<svg width="303" height="137" viewBox="0 0 303 137" fill="none" xmlns="http://www.w3.org/2000/svg">
<g clip-path="url(#clip0_20_1791)">
<path d="M35.8457 98.6312C35.8712 98.6312 35.899 98.6243 35.9292 98.6104L36.073 98.5408L36.0266 98.3761C36.0081 98.3204 35.9709 98.2508 35.8758 98.1998L35.159 97.8008L35.6299 98.4735C35.674 98.5361 35.7413 98.6312 35.8433 98.6312H35.8457ZM35.732 98.4665L35.6972 98.5292C35.6972 98.5292 35.6786 98.5106 35.6694 98.4851L35.732 98.4642V98.4665Z" fill="url(#paint0_radial_20_1791)"/>
<path d="M78.2913 93.9012C78.2913 93.9012 64.6902 100.942 48.2289 75.2917C48.1152 73.0276 82.286 61.3009 78.2913 93.9012Z" fill="#3F2B34"/>
<path d="M132.099 125.499C132.099 125.499 131.809 112.708 167.272 115.471C174.54 115.325 180.064 110.673 180.644 107.623H190.526L191.252 125.499H132.097H132.099Z" fill="#7B6967"/>
<path d="M53.256 122.161C53.256 122.161 52.9637 109.372 79.2146 111.973C84.5896 111.794 88.647 107.117 89.0599 104.064L96.3719 104.02L97.0192 121.894L53.256 122.163V122.161Z" fill="#AC7346"/>
<path d="M43.0812 107.435C43.0812 107.435 42.7889 94.6459 69.0398 97.2464C74.4148 97.0677 78.4722 92.391 78.8851 89.3381L86.1971 89.2941L86.8444 107.168L43.0812 107.437V107.435Z" fill="#3F2B34"/>
<path d="M122.187 110.641C122.187 110.641 121.932 97.8495 152.954 100.612C159.311 100.466 164.143 95.815 164.651 92.7645H173.297L173.932 110.641H122.189H122.187Z" fill="#3F2B34"/>
<path d="M68.4506 33.1222C68.4506 33.1222 69.2834 5.37493 48.498 2.88345C48.4701 3.74178 42.9652 16.7814 57.123 29.6726C58.3919 30.8279 60.1155 31.3614 61.8183 31.1271C64.0337 30.8232 67.2768 30.9369 68.4506 33.1198V33.1222Z" fill="#FDFCF7"/>
<path d="M68.4506 34.0501C68.4506 34.0501 69.2834 6.30291 48.498 3.81143C48.4701 4.66976 42.9652 17.7094 57.123 30.6006C58.3919 31.7558 60.1155 32.2894 61.8183 32.0551C64.0337 31.7512 67.2768 31.8649 68.4506 34.0478V34.0501Z" fill="#3F2B34"/>
<path d="M2.13898 80.4463C2.26424 80.5739 1.00692 83.9701 3.01819 84.7241C3.6515 84.9607 4.75343 85.0442 5.99452 84.9352C8.68318 84.7055 12.0306 83.5804 12.7011 81.2003C14.0141 76.5444 9.43014 72.0231 9.43014 72.0231C9.43014 72.0231 4.83228 72.2342 2.00211 74.1434C1.05795 74.7814 0.313293 75.6072 0.000118256 76.6743C0.000118256 78.6879 0.881639 79.82 2.13898 80.4463Z" fill="#D3956C"/>
<path d="M192.897 108.27C192.897 108.27 203.568 118.616 219.981 126.789C222.498 128.042 225.152 129.246 227.926 130.355C230.747 131.482 233.693 132.507 236.741 133.387C239.671 134.231 242.699 134.941 245.802 135.465C250.345 136.242 255.052 136.63 259.877 136.507C262.661 136.43 265.486 136.187 268.337 135.746C273.559 134.932 278.874 133.461 284.223 131.162C284.386 131.095 284.55 131.023 284.717 130.951C287.195 129.865 289.651 128.299 291.911 126.383C295.298 123.514 298.251 119.86 300.195 115.881C300.218 115.837 300.241 115.786 300.26 115.742C301.912 112.32 302.809 108.662 302.596 105.048C302.591 104.964 302.584 104.879 302.58 104.795C302.545 104.345 302.489 103.904 302.413 103.468V103.463C301.926 100.566 300.599 98.0096 298.713 95.7802C294.948 91.3285 288.946 88.2014 282.929 86.3757C280.532 85.6473 278.138 85.123 275.879 84.8075C274.501 84.615 273.174 84.4944 271.933 84.4526C268.191 84.325 264.231 85.4339 261.733 88.22C264.451 88.1365 267.179 88.1712 269.896 88.3174C270.757 88.3638 271.613 88.4195 272.469 88.4867C273.506 88.5703 274.536 88.7025 275.552 88.8858C279.226 89.5423 282.711 90.8622 285.631 92.9779C285.654 92.9918 285.673 93.008 285.696 93.022C286.831 93.8455 287.877 94.792 288.816 95.8707C289.883 97.0886 290.811 98.4735 291.57 100.032C291.913 100.738 292.21 101.471 292.454 102.225C292.57 102.587 292.672 102.953 292.76 103.327C293.24 105.308 293.284 107.37 292.665 109.298C292.208 110.715 291.412 111.986 290.41 113.093C289.512 114.093 288.441 114.96 287.302 115.68C286.116 116.427 284.875 117.088 283.594 117.668C280.275 119.173 276.661 120.138 272.926 120.686C270.395 121.055 267.806 121.233 265.219 121.247C260.958 121.27 256.694 120.86 252.683 120.164C251.057 119.881 249.472 119.554 247.946 119.189C246.438 118.828 244.939 118.419 243.457 117.96C240.817 117.148 238.228 116.183 235.702 115.074C232.719 113.768 229.826 112.265 227.038 110.574C226.62 110.321 226.207 110.066 225.796 109.803C223.409 108.296 203.415 93.3328 205.034 90.8854C204.665 91.4167 192.902 108.268 192.902 108.268L192.897 108.27Z" fill="#7B6967"/>
<path d="M7.88264 74.5795C9.56451 77.0849 12.0166 81.2374 9.63411 84.4712C10.1398 83.7172 26.9863 76.6743 38.5552 80.6992C42.8283 82.4599 58.6725 80.1981 62.6974 77.6811C66.7223 75.1641 70.7448 82.207 73.0066 81.9542C75.2708 81.706 103.559 28.9837 81.4948 23.4045C81.4948 23.4045 73.3848 25.0446 62.9874 29.784L62.4886 30.0114C53.1189 34.3378 41.9862 41.165 33.273 51.5276C23.6017 62.4075 11.3717 70.9629 7.08929 72.2759C6.91994 72.3293 6.76218 72.3711 6.61372 72.4012C6.61372 72.4012 7.07767 73.3825 7.88033 74.5818L7.88264 74.5795Z" fill="#C1B19A"/>
<path d="M92.876 105.971C95.8036 106.488 100.058 104.069 102.689 103.102C104.839 102.308 106.99 101.506 109.142 100.724C111.975 99.6937 114.819 98.7009 117.703 97.8077C118.354 97.6036 119.011 97.4041 119.672 97.2115C125.04 95.6434 130.415 94.8987 135.748 94.9405C139.212 94.9637 142.659 95.3139 146.081 95.982C151.15 96.9749 156.165 98.6568 161.076 100.991C164.939 102.823 168.175 105.697 171.627 108.124C172.283 108.588 172.951 109.033 173.629 109.451C174.617 110.061 175.635 110.615 176.702 111.079C179.966 112.508 183.395 113.545 186.933 114.009C198.699 115.557 209.105 110.015 216.104 100.687C234.21 76.5444 226.666 36.5578 204.788 21.4698C198.933 17.4333 193.28 13.9699 187.719 11.0933C178.495 6.31451 169.541 3.13405 160.394 1.57514C157.633 1.10654 154.857 0.784085 152.05 0.610099C148.827 0.405956 145.568 0.403636 142.248 0.59386C142.223 0.59386 142.195 0.59386 142.17 0.5985C141.499 0.635617 140.826 0.684333 140.156 0.744648C129.299 1.65401 118.496 4.82287 108.289 8.78742C106.275 9.5692 104.283 10.3835 102.318 11.2163C100.515 11.9818 98.4969 12.8076 96.3812 13.717C86.5777 17.9275 74.6191 23.8708 71.5593 33.3148C71.1255 34.651 70.8123 36.0637 71.035 37.4463C71.2948 39.0841 72.2947 40.5247 73.5242 41.6289C75.1132 43.0556 77.1825 43.7632 78.7971 45.111C81.8152 47.6233 80.5555 54.4134 77.0363 59.9462C73.5172 65.4789 56.165 97.6686 92.8806 105.967L92.876 105.971Z" fill="#7B6967"/>
<path d="M6.61618 72.3989C6.83192 72.726 6.87368 72.9927 7.17526 73.4405C12.4459 75.1803 17.4659 73.7304 20.1964 72.2736C23.9684 70.26 38.8082 59.9508 42.4526 58.1205C46.0993 56.2878 55.9075 60.4519 63.8482 56.3017C72.9233 50.4628 66.0775 35.5046 62.9875 29.7817L62.4888 30.009C53.1191 34.3355 41.9863 41.1627 33.2731 51.5252C23.6018 62.4051 10.8962 71.0835 6.61386 72.3966L6.61618 72.3989Z" fill="#7B6967"/>
<path d="M71.1764 44.3593C71.1764 44.3593 86.5173 21.2239 70.1696 8.14481C69.6662 8.89874 56.84 17.953 64.3864 38.5737C64.1358 38.0703 71.427 40.3345 71.1764 44.357V44.3593Z" fill="#AC7346"/>
<path d="M69.8845 41.3552C73.218 34.9664 79.3284 19.7763 68.7339 9.53901C69.5156 8.75028 70.0747 8.29327 70.1721 8.14713C86.5175 21.2239 71.1789 44.3616 71.1789 44.3616C71.2508 43.2064 70.701 42.1973 69.8868 41.3575L69.8845 41.3552Z" fill="#3F2B34"/>
<path d="M47.6048 65.1379C47.8576 66.0774 49.5836 66.43 51.4603 65.9266C53.3393 65.4232 54.657 64.254 54.4041 63.3145C54.1512 62.375 52.4253 62.0224 50.5486 62.5258C48.6695 63.0292 47.3519 64.1984 47.6048 65.1379Z" fill="#3F2B34"/>
<path d="M48.2266 64.3306C48.2266 64.7574 48.5722 65.1054 49.0014 65.1054C49.4306 65.1054 49.7762 64.7598 49.7762 64.3306C49.7762 63.9014 49.4306 63.5558 49.0014 63.5558C48.5722 63.5558 48.2266 63.9014 48.2266 64.3306Z" fill="white"/>
<path d="M135.748 94.9428C139.212 94.966 142.659 95.3163 146.081 95.9844C151.15 96.9773 156.165 98.6591 161.076 100.993C164.938 102.826 168.175 105.7 171.626 108.126C157.04 66.8499 176.157 28.6821 187.719 11.0956C178.495 6.31684 169.541 3.13638 160.394 1.57747C151.46 0.99288 143.793 0.540517 142.248 0.596193C142.223 0.596193 142.195 0.596193 142.17 0.600832C141.499 0.637949 140.826 0.686665 140.156 0.74698C120.022 32.5817 129.972 76.215 135.751 94.9405L135.748 94.9428Z" fill="#C1B19A"/>
<path d="M119.194 17.0784C119.709 18.3172 121.467 18.7626 123.121 18.0759C124.776 17.3869 125.696 15.8257 125.181 14.5869C124.666 13.3481 122.908 12.9027 121.254 13.5894C119.6 14.2761 118.679 15.8396 119.194 17.0784Z" fill="#C1B19A"/>
<path d="M113.647 9.39059C114.162 10.6294 115.921 11.0748 117.575 10.3881C119.229 9.69913 120.15 8.1379 119.635 6.89912C119.12 5.66034 117.361 5.21494 115.707 5.9016C114.053 6.58827 113.132 8.15182 113.647 9.39059Z" fill="#C1B19A"/>
<path d="M108.342 21.9824C108.542 23.3094 110.14 24.1677 111.91 23.9009C113.68 23.6341 114.953 22.342 114.754 21.0151C114.554 19.6882 112.956 18.8298 111.186 19.0966C109.416 19.3634 108.143 20.6555 108.342 21.9824Z" fill="#C1B19A"/>
<path d="M105.679 14.9442C105.878 16.2711 107.477 17.1295 109.247 16.8627C111.017 16.5959 112.29 15.3038 112.091 13.9768C111.891 12.6499 110.293 11.7916 108.523 12.0584C106.753 12.3251 105.479 13.6173 105.679 14.9442Z" fill="#C1B19A"/>
<path d="M105.679 29.1855C105.878 30.5124 107.477 31.3707 109.247 31.104C111.017 30.8372 112.29 29.545 112.091 28.2181C111.891 26.8912 110.293 26.0329 108.523 26.2996C106.753 26.5664 105.479 27.8585 105.679 29.1855Z" fill="#C1B19A"/>
<path d="M117.229 39.17C117.429 40.4969 119.027 41.3552 120.797 41.0885C122.567 40.8217 123.841 39.5295 123.641 38.2026C123.442 36.8757 121.843 36.0174 120.073 36.2841C118.303 36.5509 117.03 37.843 117.229 39.17Z" fill="#C1B19A"/>
<path d="M107.25 38.2165C107.449 39.5435 109.047 40.4018 110.817 40.135C112.587 39.8682 113.861 38.5761 113.662 37.2492C113.462 35.9223 111.864 35.0639 110.094 35.3307C108.324 35.5975 107.05 36.8896 107.25 38.2165Z" fill="#C1B19A"/>
<path d="M111.789 44.8418C111.989 46.1688 113.587 47.0271 115.357 46.7603C117.127 46.4936 118.401 45.2014 118.201 43.8745C118.002 42.5476 116.403 41.6892 114.633 41.956C112.863 42.2228 111.59 43.5149 111.789 44.8418Z" fill="#C1B19A"/>
<path d="M96.9286 34.535C97.1281 35.8619 98.7264 36.7202 100.496 36.4534C102.266 36.1867 103.54 34.8945 103.341 33.5676C103.141 32.2407 101.543 31.3823 99.7726 31.6491C98.0026 31.9159 96.729 33.208 96.9286 34.535Z" fill="#C1B19A"/>
<path d="M78.5649 34.535C78.7644 35.8619 80.3628 36.7202 82.1328 36.4534C83.9028 36.1867 85.1764 34.8945 84.9769 33.5676C84.7774 32.2407 83.179 31.3823 81.409 31.6491C79.639 31.9159 78.3654 33.208 78.5649 34.535Z" fill="#C1B19A"/>
<path d="M87.7468 38.2165C87.9463 39.5435 89.5446 40.4018 91.3147 40.135C93.0847 39.8682 94.3582 38.5761 94.1587 37.2492C93.9592 35.9223 92.3609 35.0639 90.5909 35.3307C88.8209 35.5975 87.5473 36.8896 87.7468 38.2165Z" fill="#C1B19A"/>
<path d="M95.3396 40.0144C95.5391 41.3413 97.1374 42.1996 98.9074 41.9328C100.677 41.6661 101.951 40.3739 101.752 39.047C101.552 37.7201 99.9537 36.8617 98.1836 37.1285C96.4136 37.3953 95.1401 38.6874 95.3396 40.0144Z" fill="#C1B19A"/>
<path d="M102.478 43.8513C102.677 45.1782 104.275 46.0366 106.045 45.7698C107.815 45.503 109.089 44.2109 108.889 42.8839C108.69 41.557 107.092 40.6987 105.322 40.9655C103.552 41.2322 102.278 42.5244 102.478 43.8513Z" fill="#C1B19A"/>
<path d="M119.753 47.2939C119.953 48.6208 121.551 49.4791 123.321 49.2124C125.091 48.9456 126.365 47.6534 126.165 46.3265C125.966 44.9996 124.367 44.1413 122.597 44.408C120.827 44.6748 119.554 45.9669 119.753 47.2939Z" fill="#C1B19A"/>
<path d="M124.922 10.0146C125.121 11.3415 126.72 12.1998 128.49 11.9331C130.26 11.6663 131.533 10.3741 131.334 9.04722C131.134 7.72029 129.536 6.86196 127.766 7.12874C125.996 7.39551 124.722 8.68765 124.922 10.0146Z" fill="#C1B19A"/>
<path d="M96.9286 26.7357C97.1281 28.0627 98.7264 28.921 100.496 28.6542C102.266 28.3874 103.54 27.0953 103.341 25.7684C103.141 24.4414 101.543 23.5831 99.7726 23.8499C98.0026 24.1167 96.729 25.4088 96.9286 26.7357Z" fill="#C1B19A"/>
<path d="M86.6417 30.9994C86.4415 29.673 87.715 28.3811 89.4861 28.1139C91.2572 27.8467 92.8551 28.7053 93.0552 30.0317C93.2554 31.3581 91.9819 32.65 90.2108 32.9172C88.4397 33.1844 86.8418 32.3258 86.6417 30.9994Z" fill="#C1B19A"/>
<path d="M85.3482 23.8894C85.5477 25.2163 87.1461 26.0746 88.9161 25.8078C90.6861 25.5411 91.9597 24.2489 91.7602 22.922C91.5607 21.5951 89.9623 20.7367 88.1923 21.0035C86.4223 21.2703 85.1487 22.5624 85.3482 23.8894Z" fill="#C1B19A"/>
<path d="M95.5138 19.4145C95.7133 20.7414 97.3116 21.5997 99.0816 21.3329C100.852 21.0662 102.125 19.774 101.926 18.4471C101.726 17.1202 100.128 16.2618 98.3578 16.5286C96.5878 16.7954 95.3143 18.0875 95.5138 19.4145Z" fill="#C1B19A"/>
<path d="M115.997 30.995C116.197 32.3219 117.795 33.1802 119.565 32.9134C121.335 32.6467 122.609 31.3545 122.409 30.0276C122.21 28.7007 120.611 27.8423 118.841 28.1091C117.071 28.3759 115.798 29.668 115.997 30.995Z" fill="#C1B19A"/>
<path d="M107.396 52.8777C107.595 54.2046 109.194 55.0629 110.964 54.7962C112.734 54.5294 114.007 53.2372 113.808 51.9103C113.608 50.5834 112.01 49.7251 110.24 49.9918C108.47 50.2586 107.196 51.5507 107.396 52.8777Z" fill="#C1B19A"/>
<path d="M118.932 62.87C118.731 61.5436 120.005 60.2518 121.776 59.9845C123.547 59.7173 125.145 60.576 125.345 61.9024C125.545 63.2288 124.272 64.5206 122.501 64.7879C120.73 65.0551 119.132 64.1964 118.932 62.87Z" fill="#C1B19A"/>
<path d="M108.966 61.9087C109.165 63.2356 110.764 64.0939 112.534 63.8272C114.304 63.5604 115.577 62.2683 115.378 60.9413C115.178 59.6144 113.58 58.7561 111.81 59.0228C110.04 59.2896 108.766 60.5817 108.966 61.9087Z" fill="#C1B19A"/>
<path d="M113.504 68.5341C113.703 69.861 115.301 70.7193 117.071 70.4526C118.842 70.1858 120.115 68.8937 119.916 67.5667C119.716 66.2398 118.118 65.3815 116.348 65.6482C114.578 65.915 113.304 67.2071 113.504 68.5341Z" fill="#C1B19A"/>
<path d="M114.694 74.7187C114.893 76.0456 116.491 76.9039 118.261 76.6372C120.031 76.3704 121.305 75.0783 121.106 73.7513C120.906 72.4244 119.308 71.5661 117.538 71.8328C115.768 72.0996 114.494 73.3917 114.694 74.7187Z" fill="#C1B19A"/>
<path d="M100.276 58.4243C100.476 59.7513 102.074 60.6096 103.844 60.3428C105.614 60.076 106.888 58.7839 106.688 57.457C106.489 56.13 104.89 55.2717 103.12 55.5385C101.35 55.8053 100.077 57.0974 100.276 58.4243Z" fill="#C1B19A"/>
<path d="M80.2793 58.2272C80.4788 59.5541 82.0771 60.4124 83.8471 60.1456C85.6171 59.8789 86.8907 58.5867 86.6912 57.2598C86.4917 55.9329 84.8934 55.0745 83.1233 55.3413C81.3533 55.6081 80.0798 56.9002 80.2793 58.2272Z" fill="#C1B19A"/>
<path d="M76.9504 64.7087C77.1499 66.0356 78.7483 66.894 80.5183 66.6272C82.2883 66.3604 83.5619 65.0683 83.3624 63.7413C83.1629 62.4144 81.5645 61.5561 79.7945 61.8229C78.0245 62.0896 76.7509 63.3818 76.9504 64.7087Z" fill="#C1B19A"/>
<path d="M71.8468 78.4675C72.0463 79.7944 73.6446 80.6527 75.4146 80.386C77.1846 80.1192 78.4582 78.8271 78.2587 77.5001C78.0592 76.1732 76.4609 75.3149 74.6909 75.5816C72.9208 75.8484 71.6473 77.1406 71.8468 78.4675Z" fill="#C1B19A"/>
<path d="M81.423 75.2267C81.6225 76.5536 83.2208 77.412 84.9908 77.1452C86.7608 76.8784 88.0344 75.5863 87.8349 74.2594C87.6354 72.9324 86.037 72.0741 84.267 72.3409C82.497 72.6076 81.2234 73.8998 81.423 75.2267Z" fill="#C1B19A"/>
<path d="M80.2793 81.7268C80.4788 83.0538 82.0771 83.9121 83.8471 83.6453C85.6171 83.3785 86.8907 82.0864 86.6912 80.7595C86.4917 79.4325 84.8934 78.5742 83.1233 78.841C81.3533 79.1078 80.0798 80.3999 80.2793 81.7268Z" fill="#C1B19A"/>
<path d="M79.7968 87.6957C79.9963 89.0226 81.5947 89.881 83.3647 89.6142C85.1347 89.3474 86.4083 88.0553 86.2088 86.7283C86.0093 85.4014 84.4109 84.5431 82.6409 84.8099C80.8709 85.0766 79.5973 86.3688 79.7968 87.6957Z" fill="#C1B19A"/>
<path d="M71.8468 84.9212C72.0463 86.2482 73.6446 87.1065 75.4146 86.8397C77.1846 86.5729 78.4582 85.2808 78.2587 83.9539C78.0592 82.6269 76.4609 81.7686 74.6909 82.0354C72.9208 82.3022 71.6473 83.5943 71.8468 84.9212Z" fill="#C1B19A"/>
<path d="M73.8603 91.811C74.0598 93.138 75.6582 93.9963 77.4282 93.7295C79.1982 93.4627 80.4718 92.1706 80.2723 90.8437C80.0728 89.5167 78.4744 88.6584 76.7044 88.9252C74.9344 89.192 73.6608 90.4841 73.8603 91.811Z" fill="#C1B19A"/>
<path d="M78.5649 97.1675C78.7644 98.4944 80.3628 99.3527 82.1328 99.086C83.9028 98.8192 85.1764 97.527 84.9769 96.2001C84.7774 94.8732 83.179 94.0149 81.409 94.2816C79.639 94.5484 78.3654 95.8405 78.5649 97.1675Z" fill="#C1B19A"/>
<path d="M83.8704 93.247C84.07 94.5739 85.6683 95.4323 87.4383 95.1655C89.2083 94.8987 90.4819 93.6066 90.2824 92.2796C90.0829 90.9527 88.4845 90.0944 86.7145 90.3612C84.9445 90.6279 83.6709 91.9201 83.8704 93.247Z" fill="#C1B19A"/>
<path d="M91.0828 87.6957C91.2824 89.0226 92.8807 89.881 94.6507 89.6142C96.4207 89.3474 97.6943 88.0553 97.4948 86.7283C97.2953 85.4014 95.6969 84.5431 93.9269 84.8099C92.1569 85.0766 90.8833 86.3688 91.0828 87.6957Z" fill="#C1B19A"/>
<path d="M83.8704 99.7378C84.07 101.065 85.6683 101.923 87.4383 101.656C89.2083 101.389 90.4819 100.097 90.2824 98.7704C90.0829 97.4435 88.4845 96.5851 86.7145 96.8519C84.9445 97.1187 83.6709 98.4108 83.8704 99.7378Z" fill="#C1B19A"/>
<path d="M93.4465 96.671C93.646 97.9979 95.2443 98.8563 97.0144 98.5895C98.7844 98.3227 100.058 97.0306 99.8584 95.7036C99.6589 94.3767 98.0606 93.5184 96.2906 93.7852C94.5206 94.0519 93.247 95.3441 93.4465 96.671Z" fill="#C1B19A"/>
<path d="M92.9942 103.231C93.1937 104.558 94.7921 105.417 96.5621 105.15C98.3321 104.883 99.6057 103.591 99.4062 102.264C99.2067 100.937 97.6083 100.079 95.8383 100.346C94.0683 100.612 92.7947 101.904 92.9942 103.231Z" fill="#C1B19A"/>
<path d="M100.276 88.8858C100.476 90.2127 102.074 91.0711 103.844 90.8043C105.614 90.5375 106.888 89.2454 106.688 87.9184C106.489 86.5915 104.89 85.7332 103.12 86C101.35 86.2667 100.077 87.5589 100.276 88.8858Z" fill="#C1B19A"/>
<path d="M83.432 51.2144C83.6315 52.5413 85.2298 53.3996 86.9998 53.1329C88.7698 52.8661 90.0434 51.5739 89.8439 50.247C89.6444 48.9201 88.0461 48.0618 86.2761 48.3285C84.506 48.5953 83.2325 49.8874 83.432 51.2144Z" fill="#C1B19A"/>
<path d="M89.461 61.9087C89.6605 63.2356 91.2589 64.0939 93.0289 63.8272C94.7989 63.5604 96.0725 62.2683 95.873 60.9413C95.6735 59.6144 94.0751 58.7561 92.3051 59.0228C90.5351 59.2896 89.2615 60.5817 89.461 61.9087Z" fill="#C1B19A"/>
<path d="M83.455 68.2139C83.6545 69.5409 85.2529 70.3992 87.0229 70.1324C88.7929 69.8657 90.0665 68.5735 89.867 67.2466C89.6675 65.9197 88.0691 65.0613 86.2991 65.3281C84.5291 65.5949 83.2555 66.887 83.455 68.2139Z" fill="#C1B19A"/>
<path d="M88.1783 81.2675C88.3778 82.5944 89.9762 83.4527 91.7462 83.186C93.5162 82.9192 94.7898 81.627 94.5903 80.3001C94.3908 78.9732 92.7924 78.1149 91.0224 78.3816C89.2524 78.6484 87.9788 79.9405 88.1783 81.2675Z" fill="#C1B19A"/>
<path d="M95.3396 66.4207C95.5391 67.7477 97.1374 68.606 98.9074 68.3392C100.677 68.0724 101.951 66.7803 101.752 65.4534C101.552 64.1264 99.9537 63.2681 98.1836 63.5349C96.4136 63.8017 95.1401 65.0938 95.3396 66.4207Z" fill="#C1B19A"/>
<path d="M88.9299 73.4312C89.1294 74.7581 90.7277 75.6164 92.4978 75.3497C94.2678 75.0829 95.5414 73.7907 95.3418 72.4638C95.1423 71.1369 93.544 70.2786 91.774 70.5453C90.004 70.8121 88.7304 72.1042 88.9299 73.4312Z" fill="#C1B19A"/>
<path d="M104.192 67.5435C104.391 68.8705 105.99 69.7288 107.76 69.462C109.53 69.1952 110.803 67.9031 110.604 66.5762C110.404 65.2492 108.806 64.3909 107.036 64.6577C105.266 64.9245 103.992 66.2166 104.192 67.5435Z" fill="#C1B19A"/>
<path d="M102.988 74.7187C103.188 76.0456 104.786 76.9039 106.556 76.6372C108.326 76.3704 109.599 75.0783 109.4 73.7513C109.2 72.4244 107.602 71.5661 105.832 71.8328C104.062 72.0996 102.788 73.3917 102.988 74.7187Z" fill="#C1B19A"/>
<path d="M95.3396 78.4675C95.5391 79.7944 97.1374 80.6527 98.9074 80.386C100.677 80.1192 101.951 78.8271 101.752 77.5001C101.552 76.1732 99.9537 75.3149 98.1836 75.5816C96.4136 75.8484 95.1401 77.1406 95.3396 78.4675Z" fill="#C1B19A"/>
<path d="M96.1861 72.4453C96.3856 73.7722 97.984 74.6306 99.754 74.3638C101.524 74.097 102.798 72.8049 102.598 71.4779C102.399 70.151 100.8 69.2927 99.0302 69.5595C97.2602 69.8262 95.9866 71.1184 96.1861 72.4453Z" fill="#C1B19A"/>
<path d="M109.541 88.8858C109.741 90.2127 111.339 91.0711 113.109 90.8043C114.879 90.5375 116.153 89.2454 115.953 87.9184C115.754 86.5915 114.155 85.7332 112.385 86C110.615 86.2667 109.342 87.5589 109.541 88.8858Z" fill="#C1B19A"/>
<path d="M105.679 94.2607C105.878 95.5876 107.477 96.446 109.247 96.1792C111.017 95.9124 112.29 94.6203 112.091 93.2933C111.891 91.9664 110.293 91.1081 108.523 91.3749C106.753 91.6416 105.479 92.9338 105.679 94.2607Z" fill="#C1B19A"/>
<path d="M102.118 99.6172C102.318 100.944 103.916 101.802 105.686 101.536C107.456 101.269 108.729 99.9767 108.53 98.6498C108.33 97.3229 106.732 96.4646 104.962 96.7313C103.192 96.9981 101.919 98.2902 102.118 99.6172Z" fill="#C1B19A"/>
<path d="M100.622 82.613C100.821 83.9399 102.42 84.7982 104.19 84.5315C105.96 84.2647 107.233 82.9725 107.034 81.6456C106.834 80.3187 105.236 79.4603 103.466 79.7271C101.696 79.9939 100.422 81.286 100.622 82.613Z" fill="#C1B19A"/>
<path d="M188.051 19.4145C188.25 20.7414 189.849 21.5997 191.619 21.3329C193.389 21.0662 194.662 19.774 194.463 18.4471C194.263 17.1202 192.665 16.2618 190.895 16.5286C189.125 16.7954 187.851 18.0875 188.051 19.4145Z" fill="#C1B19A"/>
<path d="M195.713 23.8894C195.913 25.2163 197.511 26.0746 199.281 25.8078C201.051 25.5411 202.325 24.2489 202.125 22.922C201.926 21.5951 200.327 20.7367 198.557 21.0035C196.787 21.2703 195.514 22.5624 195.713 23.8894Z" fill="#C1B19A"/>
<path d="M186.014 27.6614C186.214 28.9883 187.812 29.8466 189.582 29.5798C191.352 29.3131 192.625 28.0209 192.426 26.694C192.226 25.3671 190.628 24.5087 188.858 24.7755C187.088 25.0423 185.815 26.3344 186.014 27.6614Z" fill="#C1B19A"/>
<path d="M181.286 34.535C181.486 35.8619 183.084 36.7202 184.854 36.4534C186.624 36.1867 187.898 34.8945 187.698 33.5676C187.499 32.2407 185.9 31.3823 184.13 31.6491C182.36 31.9159 181.087 33.208 181.286 34.535Z" fill="#C1B19A"/>
<path d="M178.059 41.7982C178.259 43.1252 179.857 43.9835 181.627 43.7167C183.397 43.4499 184.671 42.1578 184.471 40.8309C184.272 39.5039 182.673 38.6456 180.903 38.9124C179.133 39.1792 177.86 40.4713 178.059 41.7982Z" fill="#C1B19A"/>
<path d="M175.271 50.428C175.47 51.7549 177.069 52.6132 178.839 52.3464C180.609 52.0797 181.882 50.7875 181.683 49.4606C181.483 48.1337 179.885 47.2753 178.115 47.5421C176.345 47.8089 175.071 49.101 175.271 50.428Z" fill="#C1B19A"/>
<path d="M170.724 59.9067C170.924 61.2336 172.522 62.092 174.292 61.8252C176.062 61.5584 177.336 60.2663 177.136 58.9393C176.937 57.6124 175.338 56.7541 173.568 57.0209C171.798 57.2876 170.525 58.5798 170.724 59.9067Z" fill="#C1B19A"/>
<path d="M169.295 67.5435C169.495 68.8705 171.093 69.7288 172.863 69.462C174.633 69.1952 175.906 67.9031 175.707 66.5762C175.507 65.2492 173.909 64.3909 172.139 64.6577C170.369 64.9245 169.096 66.2166 169.295 67.5435Z" fill="#C1B19A"/>
<path d="M169.295 75.8995C169.495 77.2264 171.093 78.0848 172.863 77.818C174.633 77.5512 175.906 76.2591 175.707 74.9321C175.507 73.6052 173.909 72.7469 172.139 73.0137C170.369 73.2804 169.096 74.5726 169.295 75.8995Z" fill="#C1B19A"/>
<path d="M186.782 70.9861C186.981 72.313 188.58 73.1713 190.35 72.9046C192.12 72.6378 193.393 71.3456 193.194 70.0187C192.994 68.6918 191.396 67.8335 189.626 68.1002C187.856 68.367 186.582 69.6591 186.782 70.9861Z" fill="#C1B19A"/>
<path d="M188.503 81.7268C188.703 83.0538 190.301 83.9121 192.071 83.6453C193.841 83.3785 195.115 82.0864 194.915 80.7595C194.716 79.4325 193.117 78.5742 191.347 78.841C189.577 79.1078 188.304 80.3999 188.503 81.7268Z" fill="#C1B19A"/>
<path d="M188.511 39.1649C188.312 37.8385 189.585 36.5468 191.356 36.2799C193.127 36.013 194.725 36.8719 194.925 38.1984C195.125 39.5248 193.851 40.8165 192.08 41.0834C190.309 41.3503 188.711 40.4914 188.511 39.1649Z" fill="#C1B19A"/>
<path d="M188.051 47.2939C188.25 48.6208 189.849 49.4791 191.619 49.2124C193.389 48.9456 194.662 47.6534 194.463 46.3265C194.263 44.9996 192.665 44.1413 190.895 44.408C189.125 44.6748 187.851 45.9669 188.051 47.2939Z" fill="#C1B19A"/>
<path d="M191.164 56.8237C191.364 58.1506 192.962 59.009 194.732 58.7422C196.502 58.4754 197.775 57.1833 197.576 55.8563C197.376 54.5294 195.778 53.6711 194.008 53.9378C192.238 54.2046 190.965 55.4968 191.164 56.8237Z" fill="#C1B19A"/>
<path d="M194.036 64.0406C194.235 65.3676 195.834 66.2259 197.604 65.9591C199.374 65.6923 200.647 64.4002 200.448 63.0733C200.248 61.7464 198.65 60.888 196.88 61.1548C195.11 61.4216 193.836 62.7137 194.036 64.0406Z" fill="#C1B19A"/>
<path d="M206.952 72.8002C207.152 74.1271 208.75 74.9854 210.52 74.7186C212.29 74.4519 213.564 73.1597 213.364 71.8328C213.165 70.5059 211.566 69.6475 209.796 69.9143C208.026 70.1811 206.753 71.4732 206.952 72.8002Z" fill="#C1B19A"/>
<path d="M212.311 82.2673C212.511 83.5943 214.109 84.4526 215.879 84.1858C217.649 83.919 218.923 82.6269 218.723 81.3C218.524 79.973 216.925 79.1147 215.155 79.3815C213.385 79.6483 212.112 80.9404 212.311 82.2673Z" fill="#C1B19A"/>
<path d="M183.219 54.933C183.418 56.26 185.016 57.1183 186.786 56.8515C188.556 56.5847 189.83 55.2926 189.631 53.9657C189.431 52.6387 187.833 51.7804 186.063 52.0472C184.293 52.314 183.019 53.6061 183.219 54.933Z" fill="#C1B19A"/>
<path d="M181.105 61.9922C181.305 63.3191 182.903 64.1775 184.673 63.9107C186.443 63.6439 187.717 62.3518 187.517 61.0248C187.318 59.6979 185.719 58.8396 183.949 59.1064C182.179 59.3731 180.906 60.6653 181.105 61.9922Z" fill="#C1B19A"/>
<path d="M176.113 71.2297C176.313 72.5567 177.911 73.415 179.681 73.1482C181.451 72.8814 182.724 71.5893 182.525 70.2624C182.325 68.9354 180.727 68.0771 178.957 68.3439C177.187 68.6107 175.913 69.9028 176.113 71.2297Z" fill="#C1B19A"/>
<path d="M178.619 78.4773C178.419 77.1509 179.693 75.859 181.464 75.5918C183.235 75.3246 184.833 76.1832 185.033 77.5096C185.233 78.836 183.96 80.1279 182.188 80.3951C180.417 80.6623 178.819 79.8037 178.619 78.4773Z" fill="#C1B19A"/>
<path d="M181.286 88.8858C181.486 90.2127 183.084 91.0711 184.854 90.8043C186.624 90.5375 187.898 89.2454 187.698 87.9184C187.499 86.5915 185.9 85.7332 184.13 86C182.36 86.2667 181.087 87.5589 181.286 88.8858Z" fill="#C1B19A"/>
<path d="M182.318 97.1675C182.518 98.4944 184.116 99.3527 185.886 99.086C187.656 98.8192 188.93 97.527 188.73 96.2001C188.531 94.8732 186.932 94.0149 185.162 94.2816C183.392 94.5484 182.119 95.8405 182.318 97.1675Z" fill="#C1B19A"/>
<path d="M191.164 99.3829C191.364 100.71 192.962 101.568 194.732 101.301C196.502 101.035 197.775 99.7425 197.576 98.4155C197.376 97.0886 195.778 96.2303 194.008 96.4971C192.238 96.7638 190.965 98.056 191.164 99.3829Z" fill="#C1B19A"/>
<path d="M189.693 107.917C189.893 109.244 191.491 110.103 193.261 109.836C195.031 109.569 196.305 108.277 196.105 106.95C195.906 105.623 194.307 104.765 192.537 105.032C190.767 105.298 189.494 106.591 189.693 107.917Z" fill="#C1B19A"/>
<path d="M192.301 91.811C192.5 93.138 194.098 93.9963 195.868 93.7295C197.638 93.4627 198.912 92.1706 198.712 90.8437C198.513 89.5167 196.915 88.6584 195.145 88.9252C193.375 89.192 192.101 90.4841 192.301 91.811Z" fill="#C1B19A"/>
<path d="M202.215 98.847C202.415 100.174 204.013 101.032 205.783 100.765C207.553 100.499 208.827 99.2066 208.627 97.8796C208.428 96.5527 206.83 95.6944 205.06 95.9612C203.289 96.2279 202.016 97.5201 202.215 98.847Z" fill="#C1B19A"/>
<path d="M171.905 84.84C172.104 86.1669 173.703 87.0253 175.473 86.7585C177.243 86.4917 178.516 85.1996 178.317 83.8727C178.117 82.5457 176.519 81.6874 174.749 81.9542C172.979 82.221 171.705 83.5131 171.905 84.84Z" fill="#C1B19A"/>
<path d="M170.724 94.2607C170.924 95.5876 172.522 96.446 174.292 96.1792C176.062 95.9124 177.336 94.6203 177.136 93.2933C176.937 91.9664 175.338 91.1081 173.568 91.3749C171.798 91.6416 170.525 92.9338 170.724 94.2607Z" fill="#C1B19A"/>
<path d="M176.113 103.86C176.313 105.187 177.911 106.045 179.681 105.779C181.451 105.512 182.724 104.22 182.525 102.893C182.325 101.566 180.727 100.707 178.957 100.974C177.187 101.241 175.913 102.533 176.113 103.86Z" fill="#C1B19A"/>
<path d="M195.458 73.473C195.657 74.7999 197.256 75.6582 199.026 75.3915C200.796 75.1247 202.069 73.8326 201.87 72.5056C201.67 71.1787 200.072 70.3204 198.302 70.5871C196.532 70.8539 195.258 72.1461 195.458 73.473Z" fill="#C1B19A"/>
<path d="M199.717 82.2673C199.916 83.5943 201.515 84.4526 203.285 84.1858C205.055 83.919 206.328 82.6269 206.129 81.3C205.929 79.973 204.331 79.1147 202.561 79.3815C200.791 79.6483 199.517 80.9404 199.717 82.2673Z" fill="#C1B19A"/>
<path d="M205.89 91.3656C206.089 92.6926 207.688 93.5509 209.458 93.2841C211.228 93.0173 212.501 91.7252 212.302 90.3983C212.102 89.0713 210.504 88.213 208.734 88.4798C206.964 88.7466 205.69 90.0387 205.89 91.3656Z" fill="#C1B19A"/>
<path d="M199.717 50.428C199.916 51.7549 201.515 52.6132 203.285 52.3464C205.055 52.0797 206.328 50.7875 206.129 49.4606C205.929 48.1337 204.331 47.2753 202.561 47.5421C200.791 47.8089 199.517 49.101 199.717 50.428Z" fill="#C1B19A"/>
<path d="M203.255 58.2272C203.454 59.5541 205.053 60.4124 206.823 60.1456C208.593 59.8789 209.866 58.5867 209.667 57.2598C209.467 55.9329 207.869 55.0745 206.099 55.3413C204.329 55.6081 203.055 56.9002 203.255 58.2272Z" fill="#C1B19A"/>
<path d="M205.89 64.7087C206.089 66.0356 207.688 66.894 209.458 66.6272C211.228 66.3604 212.501 65.0683 212.302 63.7413C212.102 62.4144 210.504 61.5561 208.734 61.8229C206.964 62.0896 205.69 63.3818 205.89 64.7087Z" fill="#C1B19A"/>
<path d="M216.475 72.4453C216.675 73.7722 218.273 74.6306 220.043 74.3638C221.813 74.097 223.087 72.8049 222.887 71.4779C222.688 70.151 221.089 69.2927 219.319 69.5595C217.549 69.8262 216.276 71.1184 216.475 72.4453Z" fill="#C1B19A"/>
<path d="M213.896 55.3459C214.095 56.6729 215.694 57.5312 217.464 57.2644C219.234 56.9976 220.507 55.7055 220.308 54.3786C220.108 53.0516 218.51 52.1933 216.74 52.4601C214.97 52.7269 213.696 54.019 213.896 55.3459Z" fill="#C1B19A"/>
<path d="M217.123 64.0406C217.322 65.3676 218.92 66.2259 220.69 65.9591C222.46 65.6923 223.734 64.4002 223.534 63.0733C223.335 61.7464 221.737 60.888 219.967 61.1548C218.197 61.4216 216.923 62.7137 217.123 64.0406Z" fill="#C1B19A"/>
<path d="M212.311 44.8418C212.511 46.1688 214.109 47.0271 215.879 46.7603C217.649 46.4936 218.923 45.2014 218.723 43.8745C218.524 42.5476 216.925 41.6892 215.155 41.956C213.385 42.2228 212.112 43.5149 212.311 44.8418Z" fill="#C1B19A"/>
<path d="M194.036 30.995C194.235 32.3219 195.834 33.1802 197.604 32.9134C199.374 32.6467 200.647 31.3545 200.448 30.0276C200.248 28.7007 198.65 27.8423 196.88 28.1091C195.11 28.3759 193.836 29.668 194.036 30.995Z" fill="#C1B19A"/>
<path d="M201.062 40.0144C201.262 41.3413 202.86 42.1996 204.63 41.9328C206.4 41.6661 207.674 40.3739 207.474 39.047C207.275 37.7201 205.677 36.8617 203.907 37.1285C202.137 37.3953 200.863 38.6874 201.062 40.0144Z" fill="#C1B19A"/>
<path d="M211.165 37.2306C211.365 38.5575 212.963 39.4158 214.733 39.149C216.503 38.8823 217.777 37.5901 217.577 36.2632C217.378 34.9363 215.779 34.0779 214.009 34.3447C212.239 34.6115 210.966 35.9036 211.165 37.2306Z" fill="#C1B19A"/>
<path d="M203.255 28.6543C203.454 29.9812 205.053 30.8395 206.823 30.5728C208.593 30.306 209.866 29.0139 209.667 27.6869C209.467 26.36 207.869 25.5017 206.099 25.7684C204.329 26.0352 203.055 27.3274 203.255 28.6543Z" fill="#C1B19A"/>
<path d="M125.66 86.4546C125.859 87.7815 127.457 88.6398 129.227 88.3731C130.997 88.1063 132.271 86.8142 132.071 85.4872C131.872 84.1603 130.274 83.302 128.504 83.5687C126.734 83.8355 125.46 85.1277 125.66 86.4546Z" fill="#C1B19A"/>
<path d="M124.827 93.247C125.026 94.5739 126.625 95.4323 128.395 95.1655C130.165 94.8987 131.438 93.6066 131.239 92.2796C131.039 90.9527 129.441 90.0944 127.671 90.3612C125.901 90.6279 124.627 91.9201 124.827 93.247Z" fill="#C1B19A"/>
<path d="M118.303 89.7766C118.503 91.1035 120.101 91.9618 121.871 91.6951C123.641 91.4283 124.915 90.1361 124.715 88.8092C124.516 87.4823 122.917 86.624 121.147 86.8907C119.377 87.1575 118.104 88.4496 118.303 89.7766Z" fill="#C1B19A"/>
<path d="M116.028 83.5688C116.227 84.8957 117.826 85.754 119.596 85.4873C121.366 85.2205 122.639 83.9284 122.44 82.6014C122.24 81.2745 120.642 80.4162 118.872 80.6829C117.102 80.9497 115.828 82.2418 116.028 83.5688Z" fill="#C1B19A"/>
<path d="M109.541 81.2675C109.741 82.5944 111.339 83.4527 113.109 83.186C114.879 82.9192 116.153 81.627 115.953 80.3001C115.754 78.9732 114.155 78.1149 112.385 78.3816C110.615 78.6484 109.342 79.9405 109.541 81.2675Z" fill="#C1B19A"/>
<path d="M113.504 95.2699C113.703 96.5968 115.301 97.4552 117.071 97.1884C118.842 96.9216 120.115 95.6295 119.916 94.3025C119.716 92.9756 118.118 92.1173 116.348 92.384C114.578 92.6508 113.304 93.943 113.504 95.2699Z" fill="#C1B19A"/>
<path d="M121.47 70.9861C121.669 72.313 123.268 73.1713 125.038 72.9046C126.808 72.6378 128.081 71.3456 127.882 70.0187C127.682 68.6918 126.084 67.8335 124.314 68.1002C122.544 68.367 121.27 69.6591 121.47 70.9861Z" fill="#C1B19A"/>
<path d="M122.72 79.2794C122.92 80.6063 124.518 81.4647 126.288 81.1979C128.058 80.9311 129.332 79.639 129.132 78.312C128.933 76.9851 127.334 76.1268 125.564 76.3936C123.794 76.6603 122.521 77.9525 122.72 79.2794Z" fill="#C1B19A"/>
<path d="M98.6428 50.428C98.8423 51.7549 100.441 52.6132 102.211 52.3464C103.981 52.0797 105.254 50.7875 105.055 49.4606C104.855 48.1337 103.257 47.2753 101.487 47.5421C99.7169 47.8089 98.4433 49.101 98.6428 50.428Z" fill="#C1B19A"/>
<path d="M91.0364 55.3459C91.2359 56.6729 92.8342 57.5312 94.6042 57.2644C96.3742 56.9976 97.6478 55.7055 97.4483 54.3786C97.2488 53.0516 95.6504 52.1933 93.8804 52.4601C92.1104 52.7269 90.8369 54.019 91.0364 55.3459Z" fill="#C1B19A"/>
<path d="M83.8704 44.1993C84.07 45.5262 85.6683 46.3846 87.4383 46.1178C89.2083 45.851 90.4819 44.5589 90.2824 43.2319C90.0829 41.905 88.4845 41.0467 86.7145 41.3135C84.9445 41.5802 83.6709 42.8724 83.8704 44.1993Z" fill="#C1B19A"/>
<path d="M76.9504 41.7982C77.1499 43.1252 78.7483 43.9835 80.5183 43.7167C82.2883 43.4499 83.5619 42.1578 83.3624 40.8309C83.1629 39.5039 81.5645 38.6456 79.7945 38.9124C78.0245 39.1792 76.7509 40.4713 76.9504 41.7982Z" fill="#C1B19A"/>
<path d="M91.5305 46.4518C91.73 47.7788 93.3283 48.6371 95.0983 48.3703C96.8684 48.1035 98.1419 46.8114 97.9424 45.4845C97.7429 44.1575 96.1446 43.2992 94.3746 43.566C92.6046 43.8328 91.331 45.1249 91.5305 46.4518Z" fill="#C1B19A"/>
<path d="M117.712 54.6871C117.911 56.0141 119.51 56.8724 121.28 56.6056C123.05 56.3388 124.323 55.0467 124.124 53.7198C123.924 52.3928 122.326 51.5345 120.556 51.8013C118.786 52.0681 117.512 53.3602 117.712 54.6871Z" fill="#C1B19A"/>
<path d="M119.753 23.8894C119.953 25.2163 121.551 26.0746 123.321 25.8078C125.091 25.5411 126.365 24.2489 126.165 22.922C125.966 21.5951 124.367 20.7367 122.597 21.0035C120.827 21.2703 119.554 22.5624 119.753 23.8894Z" fill="#C1B19A"/>
<path d="M159.399 97.4366C159.165 98.3993 160.675 99.594 162.774 100.107C164.874 100.619 166.764 100.253 166.998 99.2901C167.233 98.3274 165.723 97.1327 163.623 96.62C161.524 96.1073 159.633 96.4738 159.399 97.4366Z" fill="#7B6967"/>
<path d="M146.979 92.5603C146.744 93.523 148.254 94.7177 150.354 95.2304C152.453 95.7431 154.344 95.3766 154.578 94.4138C154.813 93.4511 153.302 92.2564 151.203 91.7437C149.103 91.2311 147.213 91.5976 146.979 92.5603Z" fill="#7B6967"/>
<path d="M137.191 89.5979C136.957 90.5607 138.467 91.7554 140.566 92.268C142.666 92.7807 144.557 92.4142 144.791 91.4515C145.025 90.4887 143.515 89.294 141.416 88.7814C139.316 88.2687 137.425 88.6352 137.191 89.5979Z" fill="#7B6967"/>
<path d="M159.399 91.8365C159.165 92.7992 160.675 93.9939 162.774 94.5066C164.874 95.0193 166.764 94.6528 166.998 93.69C167.233 92.7273 165.723 91.5326 163.623 91.02C161.524 90.5073 159.633 90.8738 159.399 91.8365Z" fill="#7B6967"/>
<path d="M150.748 88.1527C150.514 89.1154 152.024 90.3101 154.124 90.8228C156.223 91.3354 158.114 90.9689 158.348 90.0062C158.582 89.0435 157.072 87.8488 154.973 87.3361C152.873 86.8234 150.983 87.1899 150.748 88.1527Z" fill="#7B6967"/>
<path d="M140.515 85.3828C140.281 86.3455 141.791 87.5402 143.891 88.0529C145.99 88.5656 147.881 88.1991 148.115 87.2363C148.349 86.2736 146.839 85.0789 144.74 84.5662C142.64 84.0536 140.75 84.4201 140.515 85.3828Z" fill="#7B6967"/>
<path d="M132.663 79.5601C132.429 80.5228 133.939 81.7175 136.038 82.2302C138.138 82.7429 140.028 82.3764 140.263 81.4137C140.497 80.4509 138.987 79.2562 136.887 78.7436C134.788 78.2309 132.897 78.5974 132.663 79.5601Z" fill="#7B6967"/>
<path d="M144.257 81.8335C144.023 82.7963 145.533 83.991 147.633 84.5036C149.732 85.0163 151.623 84.6498 151.857 83.6871C152.091 82.7243 150.581 81.5296 148.482 81.017C146.382 80.5043 144.492 80.8708 144.257 81.8335Z" fill="#7B6967"/>
<path d="M137.191 74.489C136.957 75.4517 138.467 76.6464 140.566 77.1591C142.666 77.6718 144.557 77.3053 144.791 76.3425C145.025 75.3798 143.515 74.1851 141.416 73.6724C139.316 73.1598 137.425 73.5263 137.191 74.489Z" fill="#7B6967"/>
<path d="M143.68 70.1347C143.445 71.0974 144.956 72.2921 147.055 72.8048C149.154 73.3175 151.045 72.951 151.279 71.9882C151.514 71.0255 150.003 69.8308 147.904 69.3181C145.805 68.8055 143.914 69.172 143.68 70.1347Z" fill="#7B6967"/>
<path d="M133.552 67.6641C133.317 68.6268 134.827 69.8215 136.927 70.3342C139.026 70.8469 140.917 70.4804 141.151 69.5177C141.386 68.5549 139.875 67.3602 137.776 66.8476C135.676 66.3349 133.786 66.7014 133.552 67.6641Z" fill="#7B6967"/>
<path d="M132.438 60.5818C132.204 61.5445 133.714 62.7392 135.813 63.2519C137.913 63.7645 139.803 63.398 140.038 62.4353C140.272 61.4726 138.762 60.2779 136.662 59.7652C134.563 59.2525 132.672 59.619 132.438 60.5818Z" fill="#7B6967"/>
<path d="M141.687 64.0847C141.453 65.0474 142.963 66.2421 145.062 66.7548C147.162 67.2674 149.052 66.9009 149.287 65.9382C149.521 64.9755 148.011 63.7808 145.911 63.2681C143.812 62.7554 141.921 63.1219 141.687 64.0847Z" fill="#7B6967"/>
<path d="M153.2 65.6482C152.966 66.6109 154.476 67.8057 156.576 68.3183C158.675 68.831 160.566 68.4645 160.8 67.5018C161.034 66.539 159.524 65.3443 157.425 64.8317C155.325 64.319 153.434 64.6855 153.2 65.6482Z" fill="#7B6967"/>
<path d="M156.993 60.9599C156.759 61.9227 158.269 63.1174 160.368 63.63C162.468 64.1427 164.358 63.7762 164.593 62.8135C164.827 61.8507 163.317 60.656 161.217 60.1434C159.118 59.6307 157.227 59.9972 156.993 60.9599Z" fill="#7B6967"/>
<path d="M159.399 55.0073C159.165 55.97 160.675 57.1647 162.774 57.6774C164.874 58.19 166.764 57.8235 166.998 56.8608C167.233 55.8981 165.723 54.7034 163.623 54.1907C161.524 53.678 159.633 54.0445 159.399 55.0073Z" fill="#7B6967"/>
<path d="M160.116 49.7552C159.881 50.7179 161.391 51.9126 163.491 52.4253C165.59 52.938 167.481 52.5714 167.715 51.6087C167.95 50.646 166.439 49.4513 164.34 48.9386C162.241 48.4259 160.35 48.7925 160.116 49.7552Z" fill="#7B6967"/>
<path d="M150.409 48.2566C150.175 49.2193 151.685 50.414 153.785 50.9267C155.884 51.4394 157.775 51.0729 158.009 50.1102C158.243 49.1474 156.733 47.9527 154.634 47.4401C152.534 46.9274 150.644 47.2939 150.409 48.2566Z" fill="#7B6967"/>
<path d="M141.687 49.5719C141.453 50.5347 142.963 51.7294 145.062 52.242C147.162 52.7547 149.052 52.3882 149.287 51.4255C149.521 50.4627 148.011 49.268 145.911 48.7554C143.812 48.2427 141.921 48.6092 141.687 49.5719Z" fill="#7B6967"/>
<path d="M131.099 49.0175C130.865 49.9802 132.375 51.1749 134.475 51.6876C136.574 52.2003 138.465 51.8338 138.699 50.8711C138.933 49.9083 137.423 48.7136 135.324 48.2009C133.224 47.6883 131.334 48.0548 131.099 49.0175Z" fill="#7B6967"/>
<path d="M132.619 42.7888C132.384 43.7515 133.895 44.9462 135.994 45.4589C138.094 45.9716 139.984 45.6051 140.218 44.6423C140.453 43.6796 138.943 42.4849 136.843 41.9723C134.744 41.4596 132.853 41.8261 132.619 42.7888Z" fill="#7B6967"/>
<path d="M130.093 36.806C129.858 37.7688 131.369 38.9635 133.468 39.4761C135.567 39.9888 137.458 39.6223 137.692 38.6596C137.927 37.6968 136.416 36.5021 134.317 35.9895C132.218 35.4768 130.327 35.8433 130.093 36.806Z" fill="#7B6967"/>
<path d="M139.525 37.2608C139.291 38.2235 140.801 39.4182 142.9 39.9309C145 40.4436 146.89 40.077 147.125 39.1143C147.359 38.1516 145.849 36.9569 143.749 36.4442C141.65 35.9315 139.759 36.2981 139.525 37.2608Z" fill="#7B6967"/>
<path d="M160.832 44.5031C160.598 45.4659 162.108 46.6606 164.208 47.1732C166.307 47.6859 168.198 47.3194 168.432 46.3567C168.666 45.394 167.156 44.1993 165.057 43.6866C162.957 43.1739 161.067 43.5404 160.832 44.5031Z" fill="#7B6967"/>
<path d="M150.544 41.9931C150.31 42.9558 151.82 44.1505 153.919 44.6632C156.019 45.1759 157.909 44.8094 158.144 43.8466C158.378 42.8839 156.868 41.6892 154.768 41.1765C152.669 40.6639 150.778 41.0304 150.544 41.9931Z" fill="#7B6967"/>
<path d="M150.215 36.806C149.98 37.7688 151.49 38.9635 153.59 39.4761C155.689 39.9888 157.58 39.6223 157.814 38.6596C158.049 37.6968 156.538 36.5021 154.439 35.9895C152.34 35.4768 150.449 35.8433 150.215 36.806Z" fill="#7B6967"/>
<path d="M148.568 31.1503C148.333 32.1131 149.843 33.3078 151.943 33.8204C154.042 34.3331 155.933 33.9666 156.167 33.0039C156.401 32.0411 154.891 30.8464 152.792 30.3338C150.692 29.8211 148.802 30.1876 148.568 31.1503Z" fill="#7B6967"/>
<path d="M139.525 31.9205C139.291 32.8832 140.801 34.0779 142.9 34.5906C145 35.1033 146.89 34.7368 147.125 33.774C147.359 32.8113 145.849 31.6166 143.749 31.1039C141.65 30.5913 139.759 30.9578 139.525 31.9205Z" fill="#7B6967"/>
<path d="M130.093 30.0508C129.858 31.0135 131.369 32.2082 133.468 32.7209C135.567 33.2336 137.458 32.867 137.692 31.9043C137.927 30.9416 136.416 29.7469 134.317 29.2342C132.218 28.7215 130.327 29.0881 130.093 30.0508Z" fill="#7B6967"/>
<path d="M141.687 42.7888C141.453 43.7515 142.963 44.9462 145.062 45.4589C147.162 45.9716 149.052 45.6051 149.287 44.6423C149.521 43.6796 148.011 42.4849 145.911 41.9723C143.812 41.4596 141.921 41.8261 141.687 42.7888Z" fill="#7B6967"/>
<path d="M161.549 39.2511C161.315 40.2138 162.825 41.4085 164.924 41.9212C167.024 42.4339 168.914 42.0674 169.149 41.1046C169.383 40.1419 167.873 38.9472 165.773 38.4345C163.674 37.9219 161.783 38.2884 161.549 39.2511Z" fill="#7B6967"/>
<path d="M158.863 34.7994C158.629 35.7622 160.139 36.9569 162.238 37.4695C164.338 37.9822 166.228 37.6157 166.463 36.653C166.697 35.6902 165.187 34.4955 163.087 33.9829C160.988 33.4702 159.097 33.8367 158.863 34.7994Z" fill="#7B6967"/>
<path d="M156.369 28.7772C156.135 29.7399 157.645 30.9346 159.744 31.4473C161.844 31.96 163.734 31.5934 163.969 30.6307C164.203 29.668 162.693 28.4733 160.593 27.9606C158.494 27.4479 156.603 27.8145 156.369 28.7772Z" fill="#7B6967"/>
<path d="M166.089 31.1503C165.855 32.1131 167.365 33.3078 169.464 33.8204C171.564 34.3331 173.454 33.9666 173.689 33.0039C173.923 32.0411 172.413 30.8464 170.313 30.3338C168.214 29.8211 166.323 30.1876 166.089 31.1503Z" fill="#7B6967"/>
<path d="M167.583 26.6314C167.349 27.5941 168.859 28.7888 170.958 29.3015C173.058 29.8142 174.948 29.4476 175.183 28.4849C175.417 27.5222 173.907 26.3275 171.807 25.8148C169.708 25.3021 167.817 25.6687 167.583 26.6314Z" fill="#7B6967"/>
<path d="M157.554 23.2282C157.32 24.1909 158.83 25.3856 160.93 25.8983C163.029 26.411 164.92 26.0445 165.154 25.0817C165.388 24.119 163.878 22.9243 161.779 22.4116C159.679 21.899 157.789 22.2655 157.554 23.2282Z" fill="#7B6967"/>
<path d="M147.603 26.0653C147.368 27.028 148.878 28.2227 150.978 28.7354C153.077 29.2481 154.968 28.8816 155.202 27.9188C155.437 26.9561 153.926 25.7614 151.827 25.2487C149.727 24.7361 147.837 25.1026 147.603 26.0653Z" fill="#7B6967"/>
<path d="M137.681 26.0653C137.446 27.028 138.957 28.2227 141.056 28.7354C143.156 29.2481 145.046 28.8816 145.28 27.9188C145.515 26.9561 144.005 25.7614 141.905 25.2487C139.806 24.7361 137.915 25.1026 137.681 26.0653Z" fill="#7B6967"/>
<path d="M133.552 19.2196C133.317 20.1823 134.827 21.377 136.927 21.8897C139.026 22.4024 140.917 22.0359 141.151 21.0731C141.386 20.1104 139.875 18.9157 137.776 18.403C135.676 17.8904 133.786 18.2569 133.552 19.2196Z" fill="#7B6967"/>
<path d="M136.198 11.78C135.964 12.7427 137.474 13.9374 139.574 14.4501C141.673 14.9627 143.564 14.5962 143.798 13.6335C144.032 12.6708 142.522 11.4761 140.423 10.9634C138.323 10.4507 136.433 10.8173 136.198 11.78Z" fill="#7B6967"/>
<path d="M141.687 19.2196C141.453 20.1823 142.963 21.377 145.062 21.8897C147.162 22.4024 149.052 22.0359 149.287 21.0731C149.521 20.1104 148.011 18.9157 145.911 18.403C143.812 17.8904 141.921 18.2569 141.687 19.2196Z" fill="#7B6967"/>
<path d="M149.403 17.9182C149.168 18.8809 150.679 20.0756 152.778 20.5883C154.877 21.101 156.768 20.7344 157.002 19.7717C157.237 18.809 155.727 17.6143 153.627 17.1016C151.528 16.5889 149.637 16.9555 149.403 17.9182Z" fill="#7B6967"/>
<path d="M145.373 11.78C145.139 12.7427 146.649 13.9374 148.748 14.4501C150.848 14.9627 152.739 14.5962 152.973 13.6335C153.207 12.6708 151.697 11.4761 149.598 10.9634C147.498 10.4507 145.607 10.8173 145.373 11.78Z" fill="#7B6967"/>
<path d="M140.344 5.76236C140.109 6.72509 141.62 7.91979 143.719 8.43246C145.818 8.94514 147.709 8.57861 147.943 7.61589C148.178 6.65317 146.668 5.45847 144.568 4.94579C142.469 4.43311 140.578 4.79964 140.344 5.76236Z" fill="#7B6967"/>
<path d="M151.161 4.55842C150.927 5.52114 152.437 6.71584 154.536 7.22852C156.636 7.74119 158.527 7.37466 158.761 6.41194C158.995 5.44922 157.485 4.25452 155.385 3.74184C153.286 3.22917 151.395 3.59569 151.161 4.55842Z" fill="#7B6967"/>
<path d="M159.83 18.004C159.596 18.9668 161.106 20.1615 163.206 20.6741C165.305 21.1868 167.196 20.8203 167.43 19.8576C167.664 18.8948 166.154 17.7001 164.055 17.1875C161.955 16.6748 160.065 17.0413 159.83 18.004Z" fill="#7B6967"/>
<path d="M154.548 11.3648C154.314 12.3275 155.824 13.5222 157.923 14.0349C160.023 14.5475 161.913 14.181 162.148 13.2183C162.382 12.2556 160.872 11.0609 158.772 10.5482C156.673 10.0355 154.782 10.402 154.548 11.3648Z" fill="#7B6967"/>
<path d="M161.549 5.76236C161.315 6.72509 162.825 7.91979 164.924 8.43246C167.024 8.94514 168.914 8.57861 169.149 7.61589C169.383 6.65317 167.873 5.45847 165.773 4.94579C163.674 4.43311 161.783 4.79964 161.549 5.76236Z" fill="#7B6967"/>
<path d="M170.659 20.7251C170.425 21.6879 171.935 22.8826 174.034 23.3952C176.134 23.9079 178.024 23.5414 178.259 22.5787C178.493 21.6159 176.983 20.4212 174.883 19.9086C172.784 19.3959 170.893 19.7624 170.659 20.7251Z" fill="#7B6967"/>
<path d="M173.798 16.0623C173.563 17.025 175.074 18.2197 177.173 18.7324C179.272 19.2451 181.163 18.8786 181.397 17.9158C181.632 16.9531 180.122 15.7584 178.022 15.2457C175.923 14.7331 174.032 15.0996 173.798 16.0623Z" fill="#7B6967"/>
<path d="M164.126 12.796C163.892 13.7587 165.402 14.9534 167.502 15.4661C169.601 15.9788 171.492 15.6122 171.726 14.6495C171.96 13.6868 170.45 12.4921 168.351 11.9794C166.251 11.4667 164.361 11.8333 164.126 12.796Z" fill="#7B6967"/>
<path d="M171.937 9.62714C171.703 10.5899 173.213 11.7846 175.313 12.2972C177.412 12.8099 179.303 12.4434 179.537 11.4807C179.771 10.5179 178.261 9.32325 176.162 8.81057C174.062 8.29789 172.172 8.66442 171.937 9.62714Z" fill="#7B6967"/>
<path d="M149.871 55.4133C149.637 56.376 151.147 57.5707 153.247 58.0834C155.346 58.5961 157.237 58.2295 157.471 57.2668C157.705 56.3041 156.195 55.1094 154.096 54.5967C151.996 54.084 150.106 54.4506 149.871 55.4133Z" fill="#7B6967"/>
<path d="M140.344 55.8192C140.109 56.7819 141.62 57.9766 143.719 58.4893C145.818 59.002 147.709 58.6355 147.943 57.6727C148.178 56.71 146.668 55.5153 144.568 55.0026C142.469 54.49 140.578 54.8565 140.344 55.8192Z" fill="#7B6967"/>
<path d="M129.805 54.3252C129.571 55.288 131.081 56.4827 133.18 56.9953C135.28 57.508 137.17 57.1415 137.405 56.1788C137.639 55.216 136.129 54.0213 134.029 53.5087C131.93 52.996 130.039 53.3625 129.805 54.3252Z" fill="#7B6967"/>
<path d="M147.401 60.5818C147.166 61.5445 148.677 62.7392 150.776 63.2519C152.875 63.7645 154.766 63.398 155 62.4353C155.235 61.4726 153.724 60.2779 151.625 59.7652C149.526 59.2525 147.635 59.619 147.401 60.5818Z" fill="#7B6967"/>
<path d="M155.144 85.0441C154.91 86.0069 156.42 87.2016 158.519 87.7142C160.619 88.2269 162.51 87.8604 162.744 86.8977C162.978 85.9349 161.468 84.7402 159.369 84.2276C157.269 83.7149 155.378 84.0814 155.144 85.0441Z" fill="#7B6967"/>
<path d="M147.603 76.2614C147.368 77.2241 148.878 78.4188 150.978 78.9315C153.077 79.4441 154.968 79.0776 155.202 78.1149C155.437 77.1522 153.926 75.9575 151.827 75.4448C149.727 74.9321 147.837 75.2986 147.603 76.2614Z" fill="#7B6967"/>
<path d="M152.5 72.2852C152.265 73.2479 153.775 74.4426 155.875 74.9553C157.974 75.468 159.865 75.1014 160.099 74.1387C160.334 73.176 158.823 71.9813 156.724 71.4686C154.624 70.9559 152.734 71.3225 152.5 72.2852Z" fill="#7B6967"/>
<path d="M157.265 77.7321C157.03 78.6948 158.54 79.8895 160.64 80.4022C162.739 80.9149 164.63 80.5483 164.864 79.5856C165.099 78.6229 163.588 77.4282 161.489 76.9155C159.389 76.4028 157.499 76.7694 157.265 77.7321Z" fill="#7B6967"/>
<path d="M219.983 126.787C222.5 128.039 225.154 129.243 227.928 130.352C230.879 126.411 234.243 120.948 235.7 115.074C232.716 113.768 229.824 112.265 227.035 110.574C225.33 115.32 222.843 121.595 219.985 126.787H219.983Z" fill="#3F2B34"/>
<path d="M236.743 133.384C239.673 134.229 242.701 134.939 245.805 135.463C248.704 131.287 251.681 125.864 252.681 120.164C251.054 119.881 249.47 119.554 247.943 119.189C246.436 118.828 244.937 118.419 243.455 117.96C241.791 122.551 239.437 128.432 236.743 133.384Z" fill="#AC7346"/>
<path d="M259.877 136.504C262.66 136.428 265.486 136.184 268.337 135.744C270.471 131.454 272.464 126.151 272.921 120.686C270.39 121.055 267.801 121.233 265.214 121.247C263.848 125.97 261.981 131.765 259.877 136.507V136.504Z" fill="#3F2B34"/>
<path d="M284.223 131.16C284.385 131.092 284.55 131.02 284.717 130.949C287.195 129.863 289.651 128.297 291.911 126.381C292.073 122.168 291.76 117.482 290.405 113.091C289.507 114.09 288.436 114.958 287.297 115.677C286.111 116.424 284.87 117.085 283.59 117.665C283.977 121.853 284.295 126.74 284.223 131.16Z" fill="#AC7346"/>
<path d="M288.814 95.8707C289.881 97.0886 290.809 98.4736 291.568 100.032C291.911 100.738 292.208 101.471 292.451 102.225C292.567 102.587 292.67 102.953 292.758 103.327C293.307 104.164 294.071 105.34 294.957 106.753C296.495 109.212 298.42 112.388 300.26 115.742C301.912 112.32 302.809 108.662 302.596 105.048C302.591 104.964 302.584 104.879 302.58 104.795C300.49 102.264 297.994 100.046 295.024 98.4759C291.783 96.7639 289.856 96.0122 288.814 95.873V95.8707Z" fill="#3F2B34"/>
<path d="M275.551 88.8834C279.226 89.5399 282.71 90.8599 285.631 92.9756C289.245 93.6135 294.066 94.56 298.712 95.7756C294.947 91.3239 288.946 88.1968 282.928 86.3711C281.717 86.5984 280.518 86.9185 279.342 87.3477C277.757 87.9253 276.512 88.4334 275.551 88.8834Z" fill="#AC7346"/>
<path d="M261.732 88.2154C264.451 88.1318 267.179 88.1666 269.896 88.3128C271.8 87.1366 273.835 85.928 275.879 84.8006C274.501 84.6081 273.174 84.4874 271.933 84.4457C268.191 84.3181 264.231 85.427 261.732 88.213V88.2154Z" fill="#3F2B34"/>
</g>
<defs>
<radialGradient id="paint0_radial_20_1791" cx="0" cy="0" r="1" gradientUnits="userSpaceOnUse" gradientTransform="translate(35.6183 98.216) rotate(180) scale(0.436118 0.436126)">
<stop stop-color="#70BEBE"/>
<stop offset="1" stop-color="#52A7AA"/>
</radialGradient>
<clipPath id="clip0_20_1791">
<rect width="302.626" height="136.071" fill="white" transform="matrix(-1 0 0 1 302.626 0.45697)"/>
</clipPath>
</defs>
</svg>
