<svg width="1440" height="381" viewBox="0 0 1440 381" fill="none" xmlns="http://www.w3.org/2000/svg">
<g clip-path="url(#clip0_24_6747)">
<path d="M1122.97 214.696C960.182 166.625 733.427 124.806 480.919 100.577C302.707 83.4585 135.428 77.3799 -7 81.0099V390.566C125.848 418.468 280.691 441.987 446.617 457.925C711.432 483.335 952.149 484.387 1122.97 465.507V214.696Z" fill="#9DCA55"/>
</g>
<path d="M1440 75.4639C1389.32 80.1057 1337.5 85.7221 1284.82 92.313C717.025 163.556 264.299 323.892 273.585 450.478C282.87 577.039 750.703 621.918 1318.47 550.675C1359.61 545.52 1400.17 539.878 1440 533.826V75.4639Z" fill="#3D7D40"/>
<path d="M278.971 168.48C182.45 156.35 88.8521 147.656 0 142.193V582.039C78.5408 596.324 160.878 609.018 245.831 619.687C804.748 689.802 1265.25 645.64 1274.4 521.054C1283.56 396.443 837.888 238.595 278.971 168.48Z" fill="#146841"/>
<defs>
<clipPath id="clip0_24_6747">
<rect width="1129.97" height="398.48" fill="white" transform="translate(-17 0.000488281)"/>
</clipPath>
</defs>
</svg>
