<svg width="434" height="270" viewBox="0 0 434 270" fill="none" xmlns="http://www.w3.org/2000/svg">
<path d="M285.876 156.639C329.136 97.4959 332.935 41.4155 332.935 41.4155C284.978 58.4535 252.463 82.8999 230.433 108.891C238.679 52.2591 225.778 12.3061 225.778 12.3061C192.628 41.4431 172.351 71.4492 160.486 99.9792C158.18 94.0194 155.735 88.3217 153.207 82.8861C152.834 82.0583 152.448 81.2444 152.061 80.4304C126.729 27.5644 92.9023 0.676166 92.0598 0.0139618H92.046C75.6644 62.6888 82.7088 111.802 98.2063 148.913C49.4208 102.614 0 90.7221 0 90.7221C29.6691 260.481 173.111 270.014 173.111 270.014C170.832 263.047 168.387 256.356 165.804 249.9C168.677 246.437 171.44 242.974 174.092 239.511C176.067 240.739 177.241 241.387 177.393 241.47C177.503 240.518 177.6 239.566 177.697 238.614C177.849 237.097 177.987 235.593 178.125 234.089C180.487 230.861 182.78 227.633 184.948 224.405C184.396 235.372 185.073 242.008 185.073 242.008C192.296 238.201 199.147 234.255 205.681 230.185C354.8 248.41 433.959 155.342 433.959 155.342C371.955 136.525 322.907 142.222 285.848 156.653L285.876 156.639Z" fill="#F2F2F2"/>
</svg>
