<svg width="275" height="431" viewBox="0 0 275 431" fill="none" xmlns="http://www.w3.org/2000/svg">
<g clip-path="url(#clip0_24_5140)">
<path d="M29.3429 77.7272L50.3487 80.9185L20.1556 96.9326L3.04613 132.684L17.697 134.912L-3.33757 146.053L-60.0144 264.563L-31.6041 361.467L-1.61224 364.586L58.4289 370.811C73.5111 337.302 93.6255 251.625 108.952 179.821L103.805 179.116L100.441 149.517L112.604 162.541C117.334 140.001 121.461 119.516 124.638 103.358L109.642 93.2813L126.795 92.4763C129.857 76.8503 131.626 67.4057 131.626 67.4057L95.5665 -3.8147e-06L40.7588 53.8642L29.3573 77.7128L29.3429 77.7272Z" fill="#496F44"/>
<path d="M29.3429 77.7272L50.3631 80.9185L20.17 96.9182L3.06052 132.67L17.7114 134.912L-3.32317 146.053L-60 264.563L-31.5897 361.452L-1.59785 364.572L95.5665 -3.8147e-06L40.7588 53.8642L29.3429 77.7272Z" fill="#2F473A"/>
<path d="M187.296 217.067L156.916 201.225L165.241 227.115L124.796 265.929L97.2487 254.356L105.43 276.192L58.3858 325.96L33.6274 312.706L38.559 339.113L-42.1861 430.986L-47.4196 366.671L-53.9039 286.888C-53.9039 286.888 63.7918 185.384 183.544 144.443C188.173 142.862 192.788 141.367 197.418 139.972L275 163.548L187.296 217.067Z" fill="#C2C155"/>
<path d="M183.544 144.472C80.5131 203.18 -22.7186 334.182 -47.4195 366.699L-53.9038 286.916C-53.9038 286.916 63.7919 185.413 183.544 144.472Z" fill="#D6D35F"/>
</g>
<defs>
<clipPath id="clip0_24_5140">
<rect width="335" height="431" fill="white" transform="matrix(-1 0 0 1 275 0)"/>
</clipPath>
</defs>
</svg>
