<svg width="275" height="789" viewBox="0 0 275 789" fill="none" xmlns="http://www.w3.org/2000/svg">
<path d="M275 71.1966C275 71.1966 268.065 176.394 131.202 256.54C96.9858 315.011 131.202 788.986 131.202 788.986H-8.58251C-8.58251 788.986 62.5484 298.107 43.1289 256.858C23.7095 215.596 -8.07038 193.657 -55.0342 126.914C-78.6615 93.3427 -52.8611 5.75438 -52.8611 5.75438C-52.8611 5.75438 11.6951 127.91 34.2428 167.195C56.7904 206.48 83.4766 244.603 83.4766 244.603C83.4766 244.603 113.692 223.798 144.254 195.538C174.83 167.278 191.439 172.59 197.364 146.681C203.302 120.773 183.716 36.864 183.716 36.864L220.617 0L231.884 19.9328L220.617 117.425C220.617 117.425 230.486 126.071 243.635 90.8528C256.799 55.6349 264.397 14.3583 264.397 14.3583L275 71.1966Z" fill="#F2F2F2"/>
</svg>
