<svg width="424" height="164" viewBox="0 0 424 164" fill="none" xmlns="http://www.w3.org/2000/svg">
<path d="M0 156.603C62.0883 32.0395 191.061 -32.0203 306.272 16.9471C356.931 38.4868 412.959 91.2772 423.056 158.681L0 156.603Z" fill="#9DCA55"/>
<path d="M45.877 90.105C62.2616 113.67 78.6329 137.247 95.0175 160.812" stroke="#CEDE86" stroke-width="1.33208" stroke-linecap="round" stroke-linejoin="round"/>
<path d="M70.8003 69.4844L121.499 160.812" stroke="#CEDE86" stroke-width="1.33208" stroke-linecap="round" stroke-linejoin="round"/>
<path d="M131.41 23.5942C133.048 29.9216 166.79 160.812 166.79 160.812" stroke="#CEDE86" stroke-width="1.33208" stroke-linecap="round" stroke-linejoin="round"/>
<path d="M179.711 6.92981C182.016 59.6003 182.282 110.246 180.564 162.93" stroke="#CEDE86" stroke-width="1.33208" stroke-linecap="round" stroke-linejoin="round"/>
<path d="M155.734 14.0165C163.047 34.2775 171.612 54.0855 181.39 73.2808" stroke="#CEDE86" stroke-width="1.33208" stroke-linecap="round" stroke-linejoin="round"/>
<path d="M22.459 118.665L78.6196 137.367" stroke="#CEDE86" stroke-width="1.33208" stroke-linecap="round" stroke-linejoin="round"/>
<path d="M212.987 1.98779L203.476 157.602" stroke="#CEDE86" stroke-width="1.33208" stroke-linecap="round" stroke-linejoin="round"/>
<path d="M251.084 4.9184C240.734 55.2578 231.969 105.917 224.829 156.802" stroke="#CEDE86" stroke-width="1.33208" stroke-linecap="round" stroke-linejoin="round"/>
<path d="M238.709 69.4844L296.109 13.79" stroke="#CEDE86" stroke-width="1.33208" stroke-linecap="round" stroke-linejoin="round"/>
<path d="M319.567 25.7388C308.723 54.8981 297.88 84.0707 287.037 113.23C280.483 130.84 276.314 139.738 271.678 157.935" stroke="#CEDE86" stroke-width="1.33208" stroke-linecap="round" stroke-linejoin="round"/>
<path d="M304.447 160.812C301.97 165.647 343.957 83.5512 359.795 52.5936" stroke="#CEDE86" stroke-width="1.33208" stroke-linecap="round" stroke-linejoin="round"/>
<path d="M306.925 162.93L378.591 69.4844" stroke="#CEDE86" stroke-width="1.33208" stroke-linecap="round" stroke-linejoin="round"/>
<path d="M360.595 158.587L401.33 101.548" stroke="#CEDE86" stroke-width="1.33208" stroke-linecap="round" stroke-linejoin="round"/>
</svg>
