<svg width="351" height="164" viewBox="0 0 351 164" fill="none" xmlns="http://www.w3.org/2000/svg">
<path d="M-73 156.603C-10.9117 32.0395 118.061 -32.0203 233.272 16.947C283.931 38.4868 339.959 91.2772 350.056 158.681L-73 156.603Z" fill="#9DCA55"/>
<path d="M-27.1232 90.105C-10.7386 113.67 5.63273 137.247 22.0173 160.812" stroke="#CEDE86" stroke-width="1.33208" stroke-linecap="round" stroke-linejoin="round"/>
<path d="M-2.19983 69.4843L48.4992 160.812" stroke="#CEDE86" stroke-width="1.33208" stroke-linecap="round" stroke-linejoin="round"/>
<path d="M58.4099 23.5941C60.0484 29.9215 93.79 160.812 93.79 160.812" stroke="#CEDE86" stroke-width="1.33208" stroke-linecap="round" stroke-linejoin="round"/>
<path d="M106.711 6.92978C109.016 59.6003 109.282 110.246 107.564 162.93" stroke="#CEDE86" stroke-width="1.33208" stroke-linecap="round" stroke-linejoin="round"/>
<path d="M82.7338 14.0165C90.0469 34.2774 98.6122 54.0855 108.39 73.2808" stroke="#CEDE86" stroke-width="1.33208" stroke-linecap="round" stroke-linejoin="round"/>
<path d="M-50.5411 118.665L5.61944 137.367" stroke="#CEDE86" stroke-width="1.33208" stroke-linecap="round" stroke-linejoin="round"/>
<path d="M139.987 1.98776L130.476 157.602" stroke="#CEDE86" stroke-width="1.33208" stroke-linecap="round" stroke-linejoin="round"/>
<path d="M178.084 4.91837C167.734 55.2577 158.969 105.917 151.829 156.802" stroke="#CEDE86" stroke-width="1.33208" stroke-linecap="round" stroke-linejoin="round"/>
<path d="M165.709 69.4844L223.108 13.79" stroke="#CEDE86" stroke-width="1.33208" stroke-linecap="round" stroke-linejoin="round"/>
<path d="M246.566 25.7388C235.723 54.898 224.88 84.0706 214.037 113.23C207.483 130.84 203.314 139.738 198.678 157.935" stroke="#CEDE86" stroke-width="1.33208" stroke-linecap="round" stroke-linejoin="round"/>
<path d="M231.447 160.812C228.97 165.647 270.957 83.5512 286.795 52.5936" stroke="#CEDE86" stroke-width="1.33208" stroke-linecap="round" stroke-linejoin="round"/>
<path d="M233.925 162.93L305.591 69.4843" stroke="#CEDE86" stroke-width="1.33208" stroke-linecap="round" stroke-linejoin="round"/>
<path d="M287.595 158.587L328.33 101.548" stroke="#CEDE86" stroke-width="1.33208" stroke-linecap="round" stroke-linejoin="round"/>
</svg>
