<svg width="170" height="109" viewBox="0 0 170 109" fill="none" xmlns="http://www.w3.org/2000/svg">
<g clip-path="url(#clip0_24_7784)">
<path d="M137.605 92.3149C135.774 88.8061 134.858 84.8216 134.969 80.8657C134.629 83.0475 134.29 85.2294 133.95 87.4076C133.843 88.0979 133.446 89.0028 132.766 88.8312C132.541 88.7739 132.362 88.5987 132.212 88.4234C130.881 86.8854 130.445 84.768 130.352 82.7364C130.259 80.7048 130.452 78.6589 130.166 76.6451C129.454 77.1745 129.196 78.0973 128.814 78.8985C128.431 79.6961 127.694 80.5045 126.818 80.3614C126.085 80.2398 125.63 79.5101 125.316 78.8377C122.272 72.353 123.144 64.2016 127.497 58.5109C127.93 57.9422 128.427 57.3771 129.1 57.1303C129.708 56.9086 130.38 56.9801 131.024 57.0695C137.756 57.9959 144.398 60.5068 149.459 65.0385C153.107 68.3005 155.804 72.4675 158.461 76.5772C161.151 80.7441 163.841 84.9075 166.527 89.0744C167.911 91.2169 169.313 93.4023 170.004 95.8595C168.43 95.9632 166.924 95.2622 165.547 94.4968C161.559 92.2792 157.957 89.3784 154.942 85.9555C157.113 90.4121 161.255 93.7921 162.857 98.4813C162.947 98.7388 163.025 99.0106 163 99.2825C162.9 100.363 161.387 100.584 160.346 100.288C158.175 99.6723 156.358 98.188 154.788 96.5677C151.823 93.506 149.505 89.8219 148.032 85.8231C147.885 89.8112 150.975 93.227 151.562 97.1758C151.673 97.934 151.619 98.8568 150.965 99.2574C150.403 99.6008 149.67 99.3826 149.087 99.075C147.027 97.9805 145.649 95.931 144.598 93.8494C142.992 90.6768 141.93 87.2324 141.472 83.7092C141.436 86.4669 141.397 89.2246 141.361 91.9823C141.35 92.7048 141.293 93.5346 140.724 93.9781C140.191 94.3966 139.387 94.2893 138.832 93.903C138.278 93.5167 137.92 92.9123 137.609 92.3114L137.605 92.3149Z" fill="#062A5E"/>
<path d="M124.464 31.5421C122.765 32.5794 121.099 33.6667 119.468 34.8077C118.799 35.2727 118.094 35.8056 117.862 36.5854C117.636 37.3401 117.872 38.27 117.339 38.853C118.058 38.9317 118.781 39.0104 119.5 39.0891C118.645 39.5863 118.023 40.4697 117.844 41.4426C118.269 41.6429 118.695 41.8432 119.121 42.0435C118.938 42.8054 118.395 43.4528 118.284 44.2253C118.173 44.9979 118.91 45.9565 119.6 45.5881C118.788 46.6396 118.352 48.099 118.874 49.3222C119.396 50.5455 121.102 51.2322 122.154 50.4167C122.071 51.572 122 52.7917 122.526 53.8254C123.048 54.859 124.396 55.5673 125.401 54.995C125.401 55.6137 125.401 56.2325 125.401 56.8477C125.931 57.1017 126.532 57.2054 127.115 57.1446C127.991 60.4996 129.565 63.6722 131.707 66.3977C131.661 66.0436 131.611 65.6859 131.564 65.3318C131.725 68.3756 134.286 71.1119 137.308 71.4803C137.902 69.2841 138.21 67.0129 138.228 64.7381C138.668 66.6624 139.279 68.5473 140.059 70.3607C140.595 71.6126 141.733 73.054 143.003 72.5605C143.843 72.2314 144.154 71.1906 144.136 70.2856C144.115 69.3843 143.879 68.4686 144.086 67.5887C144.97 72.2993 148.722 76.3518 153.354 77.5965C153.622 77.6681 153.951 77.7146 154.134 77.5035C154.298 77.314 154.244 77.0243 154.176 76.781C153.565 74.5313 152.953 72.2815 152.338 70.0317C153.282 71.0546 154.005 72.2672 154.963 73.2794C155.922 74.2916 157.217 75.1178 158.608 75.0356C159.127 75.0034 159.688 74.8031 159.914 74.3345C160.282 73.5763 159.559 72.7572 158.876 72.26C157.088 70.9616 154.938 69.7992 154.237 67.7032C155.604 68.1253 156.966 68.5473 158.333 68.9694C159.159 69.2233 160.436 69.1876 160.461 68.3256C160.475 67.832 159.999 67.4814 159.577 67.2239C157.939 66.2224 156.301 65.2245 154.663 64.223C155.475 64.2159 156.287 64.2051 157.099 64.198C157.142 63.6436 156.741 63.1643 156.365 62.7565C154.681 60.9252 153 59.0904 151.315 57.2591C147.331 52.9204 142.67 49.1327 138.982 44.5401C136.879 41.9183 135.009 39.1106 132.755 36.6176C130.502 34.1246 127.676 32.5436 124.468 31.5457L124.464 31.5421Z" fill="#F2A408"/>
<path d="M136.335 50.3702C136.411 51.4218 137.062 52.4984 138.085 52.7523C139.107 53.0063 140.327 52.0728 140.098 51.0426C139.884 52.3303 140.95 53.4462 141.922 54.3154C143.925 56.1109 145.925 57.9065 147.928 59.702C147.57 58.7041 147.212 57.7062 146.855 56.7082C148.203 57.513 149.623 58.189 151.097 58.7291C151.197 58.2141 150.807 57.6597 150.292 57.5738C150.914 57.9959 151.68 58.1998 152.427 58.1425C153 57.6096 152.617 56.6617 152.206 55.9929C149.609 51.7795 147.009 47.5625 144.412 43.349C143.571 41.9863 142.731 40.62 141.758 39.3502C141.089 38.4739 140.356 37.6405 139.73 36.732C137.995 34.214 137.119 31.2166 135.717 28.4983C135.506 28.0941 135.27 27.6756 134.873 27.4432C134.49 27.2178 134.018 27.2107 133.574 27.2321C129.729 27.4002 125.981 29.2029 123.445 32.0965C124.407 32.5186 125.441 32.7725 126.485 32.8512C125.866 33.631 125.509 34.6146 125.484 35.6125C125.845 35.6125 126.203 35.6161 126.564 35.6196C126.192 39.5219 126.796 43.5136 128.302 47.1332C129.386 46.7791 130.169 45.6703 130.148 44.5294C130.234 45.4164 130.448 46.3428 131.074 46.9794C131.7 47.6161 132.837 47.8057 133.467 47.1762C133.395 48.149 133.342 49.2042 133.871 50.0233C134.4 50.8423 135.763 51.1643 136.332 50.3702H136.335Z" fill="#A5200E"/>
<path d="M68.4056 43.9499C67.6831 44.0107 66.9391 44.0179 66.2595 43.7639C65.5835 43.51 64.9826 42.9449 64.8646 42.2331C64.7466 41.5177 65.2473 40.7094 65.9698 40.6486C65.9805 40.4697 65.7409 40.3982 65.5621 40.4054C64.2351 40.4626 63.0905 41.7574 63.2014 43.0844C63.3087 44.4078 64.65 45.5022 65.9698 45.3413C65.0363 45.4701 64.0777 45.4164 63.1656 45.1875C62.3108 44.9729 61.3737 44.4471 61.2914 43.5708C60.8228 44.1323 60.6583 44.93 60.8658 45.631C61.0732 46.3321 61.6491 46.9115 62.3465 47.1225C62.7615 47.2513 63.205 47.2513 63.6413 47.2298C64.3925 47.1869 65.1364 47.0653 65.8589 46.8686C65.4691 47.3657 64.9075 47.7306 64.2959 47.8808C65.4476 48.124 66.6601 47.8772 67.7296 47.3908C68.799 46.9043 69.7504 46.1926 70.6733 45.4629C74.1427 42.7303 77.4369 39.6542 79.6652 35.845C79.8512 35.5302 80.0336 35.194 80.0444 34.8256C80.0551 34.4572 79.8512 34.0602 79.4936 33.9743C79.0679 34.983 78.4277 35.8843 77.7946 36.7749C76.3388 38.8208 74.8581 40.8918 72.9373 42.5085C73.3773 41.9434 73.7028 41.2924 73.8852 40.5985C74.0032 40.1514 74.0604 39.6507 73.8423 39.2393C73.7135 38.9961 73.5025 38.8101 73.2771 38.6563C72.7728 38.3165 72.1254 38.1234 71.5424 38.3022C70.9594 38.4811 70.5016 39.1106 70.6518 39.7007C70.9022 39.2214 71.6104 39.0605 72.0432 39.3824C72.3865 39.6364 72.5153 40.0942 72.5332 40.5198C72.5618 41.321 72.2542 42.1258 71.6998 42.7016C70.8664 43.5672 69.6038 43.8498 68.4056 43.9499Z" fill="#1C1924"/>
<path d="M78.7603 45.9207C78.0807 45.978 77.3797 45.9851 76.7394 45.7455C76.1028 45.5058 75.5341 44.9765 75.4232 44.304C75.3123 43.6316 75.7844 42.8662 76.464 42.8089C76.4712 42.6408 76.2458 42.5729 76.0777 42.58C74.8259 42.6337 73.7493 43.8534 73.853 45.1017C73.9567 46.3499 75.2157 47.3765 76.4604 47.2262C75.5806 47.3479 74.6792 47.2978 73.8172 47.0796C73.0124 46.8793 72.129 46.3821 72.0539 45.5559C71.6139 46.0853 71.4565 46.8364 71.6533 47.4945C71.85 48.1526 72.3901 48.6999 73.0482 48.9002C73.4417 49.0218 73.8601 49.0218 74.2679 49.0003C74.9725 48.961 75.6771 48.8465 76.3567 48.6605C75.9883 49.1291 75.4625 49.4725 74.8831 49.6119C75.9668 49.8409 77.1078 49.6084 78.1165 49.1505C79.1251 48.6927 80.0193 48.0203 80.8885 47.3336C84.1576 44.7583 87.2587 41.8611 89.3618 38.2736C89.5371 37.9767 89.7088 37.6584 89.7195 37.315C89.7338 36.9717 89.5371 36.5925 89.2009 36.5138C88.8003 37.4653 88.1958 38.313 87.5985 39.1535C86.225 41.0814 84.8336 43.0307 83.0238 44.5544C83.4387 44.0215 83.7427 43.4063 83.918 42.7553C84.0289 42.3332 84.0825 41.8611 83.8786 41.4748C83.757 41.2459 83.5603 41.0671 83.3457 40.924C82.87 40.6021 82.262 40.4232 81.7111 40.5914C81.1603 40.7595 80.7311 41.3532 80.8742 41.9112C81.1102 41.4605 81.7755 41.3067 82.1833 41.6107C82.5052 41.8504 82.6268 42.2796 82.6447 42.6802C82.6733 43.4349 82.38 44.1932 81.8578 44.7368C81.0745 45.5523 79.8834 45.817 78.7567 45.9136L78.7603 45.9207Z" fill="#1C1924"/>
<path d="M38.7935 28.3731C34.9056 27.529 30.7744 27.8294 27.051 29.228C26.8614 29.2995 26.6468 29.3961 26.5896 29.5928C26.5288 29.7859 26.7899 30.0256 26.9294 29.8754C23.6996 30.58 20.5735 31.7603 17.6834 33.3699C16.7392 33.8956 15.684 34.7755 15.9559 35.8199C22.3118 34.1925 28.6033 32.3219 34.8126 30.208C36.2004 29.7359 37.6096 29.2387 38.7899 28.3731H38.7935Z" fill="#02329E"/>
<path d="M35.6853 31.3275C37.116 31.2846 38.511 30.9055 39.8987 30.5478C50.3536 27.8509 61.0911 26.2628 71.8786 25.8122C72.2541 25.7979 72.7585 25.6369 72.7048 25.2685C72.6834 25.104 72.9409 23.9665 72.8121 23.8592C71.6211 22.8899 69.94 22.8971 68.4127 22.729C67.7188 22.6539 67.0178 22.7576 66.3239 22.8613C61.3307 23.6196 56.3375 24.3815 51.348 25.1397C49.9029 25.3579 48.4579 25.5797 47.0272 25.8944C43.2037 26.7385 39.5375 28.2658 36.2469 30.3868C35.9106 30.6014 35.5351 30.9591 35.6853 31.3275Z" fill="#02329E"/>
<path d="M63.8701 23.7305C65.1005 23.2798 66.4454 22.6181 66.8174 21.3627C61.327 20.7725 55.7795 21.6166 50.2605 21.377C48.4686 21.2983 46.6802 21.1087 44.8847 21.0944C43.0176 21.0801 41.1541 21.2589 39.2978 21.4807C31.1821 22.45 23.163 24.2563 15.4157 26.8637C13.3769 27.5505 11.1808 28.4411 10.1793 30.3439C13.867 31.1988 17.7084 30.9412 21.4855 30.6801C26.3892 30.3403 31.2894 29.997 36.1931 29.6572C37.9207 29.5356 39.6519 29.4175 41.3687 29.1564C42.9067 28.924 44.4233 28.577 45.9398 28.2336C48.8048 27.5827 51.6698 26.9317 54.5348 26.2771C57.6823 25.5618 60.837 24.8429 63.8665 23.7341L63.8701 23.7305Z" fill="#CD280C"/>
<path d="M65.8446 21.5987C66.6207 21.4771 67.4326 21.3448 68.0693 20.887C68.7095 20.4291 69.1137 19.5421 68.7703 18.8339C64.1241 20.1144 59.3098 20.7975 54.4919 20.8583C52.378 20.8834 50.2642 20.7904 48.1539 20.9335C45.55 21.1087 42.9855 21.6417 40.4173 22.1102C33.203 23.4265 25.8957 24.2384 18.5669 24.5388C13.2661 24.7534 7.89026 24.7105 2.7576 26.0518C1.6345 26.3451 0.379052 26.8387 -0.00366211 27.9332C3.20469 28.5377 6.48816 28.5698 9.75017 28.5412C15.6661 28.4912 21.5893 28.2408 27.4623 27.5111C29.7228 27.2321 31.9726 26.878 34.2224 26.5275C36.3076 26.202 38.3893 25.8765 40.4746 25.5511C45.8862 24.7069 51.3014 23.8628 56.7131 23.0187C59.7569 22.543 62.8007 22.0709 65.8446 21.5952V21.5987Z" fill="#CD280C"/>
<path d="M68.0121 18.2616C65.7695 18.5442 63.5197 18.8303 61.2627 18.934C59.1203 19.0342 56.9778 18.9698 54.8353 18.8768C45.4749 18.4619 36.1396 17.4282 26.9151 15.7865C26.7577 16.0977 26.7219 16.4696 26.8149 16.8059C28.3816 18.4941 30.8603 18.8875 33.1458 19.1737C45.4749 20.7117 58.108 21.8276 70.2333 19.1093C71.4315 18.841 72.7012 18.4905 73.5096 17.5677C71.6783 17.8002 69.847 18.0327 68.0157 18.2616H68.0121Z" fill="#02329E"/>
<path d="M24.9872 24.4244C29.1863 24.6068 33.3997 24.7499 37.5881 24.4029C40.3387 24.174 43.0677 23.7305 45.7932 23.2905C53.4225 22.0566 61.0517 20.819 68.6845 19.585C69.1745 19.5063 69.7897 19.2953 69.8076 18.7981C52.235 19.9856 34.623 20.5221 17.011 20.4005C15.659 20.3898 14.2712 20.3826 13.0015 20.8548C13.6918 22.382 15.4229 23.1224 17.0468 23.5266C19.6364 24.1704 22.3225 24.3063 24.9872 24.4208V24.4244Z" fill="#02329E"/>
<path d="M161.197 8.13936C159.867 5.57482 157.918 3.33219 155.568 1.65111C155.274 2.31997 151.15 1.18971 150.442 1.01445C144.143 -0.552175 139.955 3.37153 133.488 3.96885C128.577 4.4231 112.393 5.32445 107.582 6.40463C88.9826 10.5716 82.2154 11.666 65.6442 21.0872C65.0719 21.4127 64.4138 22.0244 64.725 22.6038C64.886 22.9042 65.2472 23.0223 65.5727 23.1117C67.0034 23.5016 68.4663 23.777 69.9435 23.9343C69.6216 24.0202 69.3784 24.3457 69.3891 24.6783C72.9444 26.3916 76.5247 28.0834 80.1516 29.6464C80.0014 29.9004 79.8511 30.1579 79.7009 30.4119C79.2324 31.2095 78.7531 32.025 78.5778 32.9299C78.449 33.6023 78.5492 34.4071 79.1215 34.7827C79.4184 34.9794 79.7939 35.0187 80.148 35.0009C80.706 34.9758 81.2461 34.822 81.7826 34.6682C83.9286 34.0566 86.0747 33.4485 88.2243 32.8369C88.7895 33.0372 89.3582 33.2339 89.9305 33.4271C89.5585 34.5716 88.3531 35.7162 88.8717 36.8107C89.1936 37.4939 90.0771 37.7335 90.8211 37.6155C91.565 37.4974 92.2375 37.1076 92.9457 36.85C94.3478 36.335 95.9788 36.2813 97.2342 35.5553C104.874 37.4044 112.829 38.1019 120.558 36.7892C124.214 36.1669 127.783 35.1046 131.249 33.7991C135.591 32.1645 139.783 30.1508 143.965 28.1406C145.792 27.2643 147.631 26.3773 149.255 25.1719C150.542 24.2133 151.683 23.0688 152.964 22.0995C154.802 20.7117 156.909 19.7138 158.737 18.3188C160.564 16.9203 162.167 14.971 162.353 12.6747C162.482 11.1009 161.924 9.54503 161.194 8.13936H161.197Z" fill="#CD280C"/>
<path d="M142.584 9.6595C142.155 11.2154 141.776 12.8178 141.887 14.4273C141.998 16.0369 142.666 17.6786 143.976 18.6264C143.671 18.7624 143.328 18.8124 142.995 18.7695C143.503 20.1537 144.623 21.2554 145.911 21.9671C147.202 22.6789 148.658 23.033 150.117 23.2476C151.09 23.3907 152.084 23.473 153.05 23.3013C154.996 22.9543 156.709 21.5129 157.381 19.653C156.419 19.3847 155.657 18.5191 155.507 17.532C155.804 17.4175 155.954 17.0241 155.811 16.7415C156.001 16.7343 156.194 16.7308 156.383 16.7236C156.766 14.4917 156.541 12.1275 155.55 10.0923C154.559 8.05711 152.778 6.37603 150.618 5.69644C148.457 5.01686 145.946 5.41388 144.215 6.87678C143.786 7.2416 143.403 7.66724 143.131 8.16441C142.877 8.63297 142.727 9.14802 142.584 9.6595Z" fill="white"/>
<path d="M151.386 23.3728C151.361 23.523 151.344 23.6876 151.411 23.8271C151.476 23.9522 151.601 24.0309 151.723 24.1025C153.586 25.1648 155.954 25.2828 157.914 24.4136C158.59 24.1132 159.28 23.6053 159.363 22.8721C159.434 22.2211 159.005 21.6345 158.601 21.1194C157.817 20.1287 156.998 19.1093 155.875 18.5299C155.618 18.3975 155.328 18.2866 155.045 18.351C154.813 18.4047 154.623 18.5692 154.445 18.7266C153.754 19.3382 153.057 19.9606 152.513 20.7081C151.941 21.495 151.555 22.4142 151.39 23.3728H151.386Z" fill="#1C1924"/>
<path d="M155.975 16.3623C156.483 15.8044 157.066 15.3036 157.746 14.971C158.415 14.6419 159.173 14.4881 159.917 14.5239C160.225 14.5382 160.532 14.5883 160.808 14.7278C161.262 14.9567 161.566 15.4109 161.723 15.8974C161.913 16.484 161.902 17.117 161.891 17.7322C161.856 19.5707 161.82 21.4235 161.387 23.2083C160.958 24.9931 160.092 26.7314 158.665 27.8867C159.137 26.5633 158.923 25.0682 158.343 23.7913C157.76 22.5144 156.837 21.4235 155.868 20.4077C155.539 20.0643 155.199 19.7138 155.027 19.2738C154.638 18.2688 155.253 17.1564 155.979 16.3588L155.975 16.3623Z" fill="#EDDDB4"/>
<path d="M151.798 12.1775C151.737 12.8428 150.989 13.2971 150.328 13.1969C149.745 13.1075 149.248 12.6675 149.022 12.1239C148.797 11.5802 148.829 10.9471 149.047 10.3999C149.376 10.357 149.705 10.314 150.034 10.2711C150.331 10.2318 150.646 10.196 150.921 10.3176C151.336 10.5 151.526 10.9722 151.665 11.4049C151.748 11.6553 151.823 11.9164 151.801 12.1775H151.798Z" fill="#1C1924"/>
<path d="M81.0279 55.1345C81.1531 56.4865 83.056 57.8063 82.1117 58.7828C82.8664 58.3035 83.9037 59.1118 83.9931 59.9989C84.0825 60.8895 83.5746 61.7157 83.0846 62.4633C84.4473 62.6707 85.8065 62.8782 87.1692 63.082C84.5761 64.0013 82.405 66.0436 81.332 68.5759C84.0718 69.2806 87.0119 69.1697 89.6909 68.2648C89.047 69.5023 87.577 69.9959 86.3359 70.6326C85.0947 71.2692 83.8393 72.514 84.2256 73.8517C84.6834 75.4398 86.8581 75.5685 88.4998 75.3718C90.5672 75.1214 92.6345 74.8746 94.7055 74.6242C91.2253 76.8275 88.5856 80.3292 87.4268 84.2851C92.5809 85.4976 97.5311 81.9459 101.637 78.6052C100.793 81.2484 98.3109 82.9474 96.1541 84.6893C93.9937 86.4311 91.8548 88.8204 92.1588 91.5781C97.9246 92.0753 103.866 89.7146 107.718 85.3975C105.278 90.5766 97.7493 92.7549 97.1019 98.4455C100.396 98.9677 103.705 97.5191 106.441 95.6127C109.177 93.7063 111.566 91.317 114.396 89.5501C111.484 93.8565 109.07 98.4991 107.217 103.356C106.598 104.98 106.287 107.287 107.854 108.035C108.937 108.553 110.2 107.895 111.18 107.198C115.719 103.961 119.278 99.3647 121.281 94.1605L121.467 96.9969C122.44 96.9862 123.037 95.9525 123.405 95.0547C128.048 83.677 127.572 70.3214 122.132 59.305C120.669 56.3434 118.877 53.5607 117.085 50.7815C109.789 39.4611 102.492 28.1335 94.6697 17.1707C94.38 16.7629 94.076 16.3445 93.6432 16.0869C93.0709 15.7471 92.3663 15.7436 91.701 15.7543C86.7722 15.8223 81.5072 16.112 77.537 19.0306C78.5671 19.3489 79.5972 19.6637 80.6273 19.982C79.515 20.1358 78.4419 20.5793 77.5442 21.2518C77.2866 21.4449 77.0363 21.6667 76.8968 21.96C76.557 22.6825 77.0685 23.5767 77.7838 23.9379C78.4992 24.2992 79.3397 24.267 80.1373 24.2312C78.5528 24.6497 77.1686 25.7657 76.4282 27.2286C77.3975 27.6399 78.3668 28.0476 79.3361 28.459C77.7588 28.577 76.4425 30.14 76.5928 31.7138C77.698 31.9892 78.7996 32.2646 79.9048 32.5436C79.1179 33.5952 77.301 33.5737 76.7358 34.7576C76.2744 35.7269 77.047 36.9216 78.0485 37.3043C79.05 37.687 80.1731 37.4974 81.2282 37.3007C80.2053 37.7335 79.1537 38.1878 78.3633 38.9711C77.5764 39.758 77.1078 40.9669 77.5048 42.0077C77.9019 43.0486 79.3719 43.6173 80.2124 42.8876C78.8068 43.3168 77.7123 44.6259 77.537 46.0853C79.2896 46.6468 81.146 46.89 82.9844 46.797C81.7791 47.9344 79.5901 48.31 79.3469 49.9482C79.2038 50.9103 79.9227 51.8331 80.8026 52.2444C81.6825 52.6593 82.6876 52.6772 83.6604 52.6915C82.4157 53.0778 80.9063 53.8361 81.0244 55.1345H81.0279Z" fill="#02329E"/>
<path d="M118.974 78.8341C119.872 77.7682 120.648 76.5986 121.277 75.3539C121.284 77.1566 121.292 78.9629 121.299 80.7655C122.354 80.2827 123.216 79.3849 123.652 78.3083C123.756 79.4278 123.953 80.5402 124.239 81.6311C124.343 82.0174 124.539 82.4788 124.94 82.511C125.18 82.5289 125.398 82.3787 125.577 82.2177C127.258 80.7155 127.472 78.2082 127.572 75.9584C127.826 70.2356 128.059 64.3446 126.124 58.9544C125.033 55.9178 123.287 53.1494 122.182 50.1163C121.102 47.1583 120.655 44.0107 119.761 40.9919C118.334 36.1633 115.805 31.746 113.809 27.1248C111.813 22.5036 110.325 17.4354 111.162 12.4708C106.899 13.8658 102.388 14.506 97.9067 14.3486C94.9523 14.2449 91.9335 13.805 89.0793 14.5775C90.1273 15.7829 91.6188 16.5948 93.1997 16.8166C92.1195 17.0598 91.1073 17.6035 90.3133 18.3725C91.1073 18.6229 91.8298 19.0986 92.3735 19.7317C88.7896 20.7582 85.5776 23.033 83.4137 26.0697C85.0375 25.9838 86.6829 26.3344 88.1314 27.0747C87.5055 27.461 86.8796 27.8509 86.2536 28.2372C87.1657 28.8345 88.0134 29.5213 88.786 30.2867C88.3353 30.7016 87.6522 30.673 87.0548 30.8053C86.4575 30.9377 85.8101 31.4777 86.0283 32.0465C86.1213 32.2897 86.3502 32.4506 86.5684 32.5937C87.7165 33.3377 88.9434 33.9564 90.2203 34.4393L87.155 37.1255C86.6042 37.6083 86.039 38.1091 85.7314 38.7708C85.4238 39.4325 85.4417 40.3052 85.9711 40.8095C86.293 41.1135 86.7437 41.2387 87.1729 41.3425C89.0185 41.8003 90.8891 42.1687 92.7705 42.4477C91.9622 42.9699 91 43.2238 90.1917 43.7496C89.3833 44.2718 88.7109 45.234 88.9827 46.1604C89.3368 47.3622 90.8999 47.6233 92.1517 47.6626C94.4659 47.7341 96.7836 47.8057 99.0978 47.8736C97.2629 48.0811 95.5246 49.0718 94.4194 50.5526C95.7571 50.9532 97.0912 51.3574 98.4289 51.758C98.1213 52.5413 97.896 53.3568 97.7565 54.1902C99.1336 54.6087 100.661 54.5121 101.974 53.9219C100.926 55.417 99.8525 57.395 100.818 58.9473C101.405 59.8916 102.61 60.3029 103.719 60.2421C104.828 60.1813 105.876 59.7342 106.895 59.2907C104.839 61.2758 103.676 64.1551 103.773 67.0129C103.783 67.3169 103.808 67.6317 103.955 67.9035C104.27 68.4937 105.067 68.6832 105.715 68.5044C106.359 68.3256 106.888 67.8749 107.392 67.435L111.867 63.5255C111.316 65.4713 110.769 67.4206 110.218 69.3664C109.982 70.1962 109.746 71.0582 109.871 71.9131C109.993 72.7679 110.579 73.6192 111.427 73.7694C112.557 73.9697 113.494 72.936 114.174 72.0096C115.315 70.4609 116.452 68.9122 117.593 67.3634C117.361 70.8436 117.132 74.3274 116.899 77.8111C116.853 78.4943 116.946 79.3813 117.608 79.5566C118.126 79.6925 118.609 79.2597 118.956 78.8484L118.974 78.8341Z" fill="#F6D204"/>
<path d="M101.419 41.7717C101.694 42.5121 100.872 43.3025 101.069 44.068C101.258 44.8012 102.199 44.9836 102.957 45.0194C105.114 45.1195 107.271 45.1589 109.427 45.1338C108.151 45.7669 107.553 47.4444 108.036 48.7857C108.515 50.127 109.946 51.0283 111.37 51.0033C112.793 50.9783 114.142 50.1055 114.857 48.8716C114.009 50.0984 113.526 51.572 113.487 53.0635C114.685 53.693 116.295 53.4069 117.203 52.4054C116.831 53.1851 116.452 54.0042 116.502 54.8662C116.549 55.7282 117.189 56.6224 118.051 56.6331C118.913 56.6439 119.535 55.8462 120.011 55.1309C120.018 56.2647 120.022 57.395 120.029 58.5288C120.923 58.6933 121.896 58.2856 122.404 57.5345C122.114 60.4638 123.481 63.2752 124.811 65.9005C126.12 65.2031 126.882 63.6042 126.599 62.1485C126.299 62.9318 127.626 63.4934 128.259 62.939C128.892 62.3846 128.896 61.4188 128.817 60.5855C127.905 50.9604 122.304 42.4691 119.575 33.1946C117.908 27.5254 117.329 21.5987 116.717 15.7185C116.531 13.9373 116.102 11.8199 114.435 11.1617C113.201 10.6753 111.831 11.2369 110.629 11.7948C109.063 12.5209 107.5 13.2541 105.94 13.9981C103.279 15.2679 100.35 16.8774 99.5735 19.7209C100.264 19.8282 100.954 19.932 101.641 20.0393C101.144 21.3591 100.897 22.7719 100.911 24.1812C101.437 24.3385 101.959 24.4923 102.485 24.6497C99.8632 26.9067 97.8244 29.8324 96.6226 33.073C96.5654 33.2304 96.5082 33.4128 96.5833 33.563C96.6727 33.7418 96.9016 33.7919 97.1019 33.8241C98.5827 34.0459 100.06 34.2641 101.541 34.4858C101.702 35.0939 101.14 35.6518 100.586 35.9487C100.031 36.2456 99.3732 36.4924 99.1013 37.0611C98.8295 37.6298 99.4483 38.5025 99.9705 38.152C99.552 38.9818 99.1192 39.8975 99.3267 40.8024C99.5341 41.7073 100.732 42.3905 101.423 41.7681L101.419 41.7717Z" fill="#A5200E"/>
</g>
<defs>
<clipPath id="clip0_24_7784">
<rect width="170" height="107.571" fill="white" transform="translate(0 0.649628)"/>
</clipPath>
</defs>
</svg>
