<svg width="158" height="104" viewBox="0 0 158 104" fill="none" xmlns="http://www.w3.org/2000/svg">
<g clip-path="url(#clip0_49_470)">
<path d="M117.13 64.6112C118.9 64.4054 120.669 64.1965 122.404 63.7882C127.377 62.6169 131.809 59.8629 136.139 57.1501C138.634 55.5863 141.194 53.9624 142.891 51.5598C143.262 51.0343 143.594 50.4709 144.091 50.0625C144.895 49.4041 146 49.2553 146.899 48.7362C147.605 48.3278 148.155 47.7011 148.671 47.0743C154.48 40.0342 157.823 31.003 157.994 21.8768C158.029 19.968 157.902 17.9611 156.883 16.3467C156.781 16.1853 156.661 16.0206 156.481 15.9573C156.132 15.8339 155.787 16.1504 155.575 16.4543C154.426 18.1067 154.233 20.2149 153.872 22.1934C153.106 26.4162 151.429 30.4712 148.988 34.0007C149.703 31.0473 150.422 28.0907 151.137 25.1373C151.821 22.3168 152.4 18.9962 150.511 16.7899C149.903 16.0808 148.858 15.5522 148.054 16.027C147.506 16.3499 147.279 17.0146 147.108 17.6287C145.284 24.1687 146.329 30.2021 143.17 36.2862C144.749 27.6887 142.796 25.9572 142.239 24.4694C142.074 24.0294 141.464 23.8046 141.023 23.6369C140.349 23.3805 139.897 24.3428 139.84 25.0613C139.457 30.0407 140.647 35.4284 138.203 39.781C138.608 33.8646 138.561 32.1173 137.215 29.3981C136.889 28.7397 136.497 28.2617 135.816 27.9894C135.123 27.7109 134.328 28.2648 134.05 28.9581C133.771 29.6513 133.86 30.4269 133.914 31.1708C134.306 36.7959 132.258 42.5508 128.399 46.6596C128.368 44.0322 128.336 41.4049 128.304 38.7807C128.295 38.0146 127.978 36.9668 127.222 37.0808C126.795 37.1472 126.541 37.5873 126.38 37.9861C125.076 41.1769 125.418 45.0547 123.293 47.7675C122.996 47.2674 123.059 46.6438 122.964 46.0676C122.869 45.4947 122.451 44.8584 121.872 44.9312C121.239 45.0135 121.043 45.8176 120.961 46.4507C120.581 49.3788 119.422 52.1992 117.64 54.5512C117.577 53.4971 116.915 52.5 115.969 52.0346C115.057 54.6019 113.651 56.995 111.856 59.0462C111.29 58.4479 110.967 57.6217 110.983 56.7956C110.723 56.5202 110.29 56.8589 110.074 57.1722C108.833 59.0019 107.589 60.8316 106.349 62.6644C105.931 63.2817 105.491 64.0319 105.76 64.7283C106.127 65.6875 107.444 65.7349 108.463 65.6178C111.353 65.2791 114.243 64.9404 117.133 64.6017L117.13 64.6112Z" fill="#2B1F1F"/>
<path d="M132.226 51.2464C132.587 51.4395 132.961 51.0248 133.17 50.6703C134.36 48.6285 135.819 46.7419 137.494 45.0737C138.386 44.1842 139.491 43.3042 140.748 43.396C140.561 44.9122 140.374 46.4285 140.188 47.9448C140.732 45.8619 142.777 44.2728 144.93 44.2601C145.208 45.1623 145.202 46.1499 144.917 47.049C145.901 45.6973 147.652 44.9534 149.307 45.1813C149.434 45.6625 149.475 46.1658 149.428 46.6596C150.127 46.7324 150.811 46.4728 151.482 46.2576C152.15 46.0423 152.884 45.8714 153.546 46.1088C154.208 46.3462 154.701 47.1566 154.366 47.7738C154.246 47.9986 154.037 48.1632 153.837 48.3183C147.37 53.3831 140.688 58.5587 132.793 60.8252C130.628 61.4457 128.402 61.8382 126.183 62.2276C124.8 62.4713 123.414 62.715 122.03 62.9588C120.789 63.1772 119.545 63.3956 118.285 63.4684C115.94 63.6077 113.569 63.2437 111.249 63.6109C112.705 62.7245 113.993 61.566 115.034 60.2175C115.414 59.7268 115.766 59.2013 116.263 58.831C116.76 58.4606 117.443 58.2675 118.007 58.5271C118.567 58.7898 118.846 59.6129 118.422 60.0655C118.612 59.616 118.839 59.1317 119.283 58.9196C119.723 58.7075 120.397 58.9924 120.353 59.4799C121.612 56.805 123.069 54.2252 124.705 51.7624C124.955 51.3889 125.259 50.9837 125.702 50.914C126.497 50.7937 126.981 51.832 126.854 52.6266C126.728 53.4211 126.272 54.165 126.332 54.9627C126.494 53.9403 126.661 52.8988 127.155 51.9903C127.646 51.0818 128.532 50.3158 129.564 50.2556C129.738 50.8982 129.916 51.5408 130.09 52.1834C130.21 51.7497 130.34 51.2971 130.656 50.9773C130.973 50.6608 131.543 50.5437 131.865 50.8571C131.995 50.9805 132.078 51.1609 132.236 51.2464H132.226Z" fill="#424705"/>
<path d="M142.283 54.8773C143.584 52.807 146.379 51.8162 148.697 52.6076C148.75 53.8485 148.215 55.102 147.285 55.925C148.646 55.0672 150.634 55.4091 151.631 56.6721C150.124 57.9288 148.086 58.2675 146.18 58.7265C141.695 59.8091 137.472 61.7844 133.034 63.0443C127.083 64.7346 120.761 65.1145 114.648 64.149C116.139 63.3893 117.779 62.9778 119.4 62.5726C122.486 61.8034 125.573 61.031 128.703 60.477C130.099 60.2301 131.606 59.9706 132.597 58.9576C133.281 58.258 133.613 57.2957 134.072 56.4315C134.531 55.5673 135.231 54.7126 136.199 54.567C137.168 54.4214 138.254 55.4344 137.836 56.3207C138.795 54.146 140.71 52.4177 142.967 51.6833C143.078 52.7849 142.834 53.9213 142.277 54.8773H142.283Z" fill="#EA850C"/>
<path d="M60.5403 98.5581C59.9009 98.6119 59.2425 98.6182 58.641 98.3935C58.0396 98.1687 57.511 97.6686 57.4065 97.0386C57.302 96.4055 57.7452 95.6901 58.3846 95.6363C58.3941 95.478 58.182 95.4147 58.0238 95.421C56.8494 95.4717 55.8364 96.6176 55.9345 97.792C56.0295 98.9632 57.2166 99.9319 58.3846 99.7894C57.5584 99.9034 56.7101 99.8559 55.9029 99.6533C55.1463 99.4634 54.317 98.9981 54.2442 98.2225C53.8295 98.7195 53.6839 99.4254 53.8675 100.046C54.0511 100.666 54.5607 101.179 55.178 101.366C55.5452 101.48 55.9377 101.48 56.3239 101.461C56.9886 101.423 57.6471 101.315 58.2865 101.141C57.9415 101.581 57.4445 101.904 56.9032 102.037C57.9225 102.252 58.9924 102.034 59.9421 101.603C60.8917 101.173 61.7306 100.543 62.5473 99.8971C65.6178 97.4786 68.5333 94.7563 70.5054 91.385C70.67 91.1065 70.8314 90.8089 70.8409 90.4829C70.8536 90.16 70.67 89.8054 70.3534 89.7295C69.9767 90.6221 69.4101 91.4198 68.8498 92.2081C67.5614 94.0187 66.2509 95.8516 64.551 97.2824C64.9404 96.7822 65.2285 96.2061 65.3899 95.592C65.4944 95.1963 65.545 94.7531 65.3519 94.3891C65.238 94.1738 65.0512 94.0092 64.8518 93.8731C64.4054 93.5724 63.8325 93.4015 63.3165 93.5597C62.8005 93.718 62.3953 94.2751 62.5283 94.7974C62.7499 94.3733 63.3766 94.2308 63.7597 94.5157C64.0636 94.7405 64.1775 95.1457 64.1933 95.5223C64.2187 96.2314 63.9464 96.9437 63.4558 97.4533C62.7182 98.2194 61.6008 98.4694 60.5403 98.5581Z" fill="#1C1924"/>
<path d="M69.7044 100.302C69.103 100.353 68.4825 100.359 67.9159 100.147C67.3493 99.9351 66.8491 99.4666 66.751 98.8714C66.6528 98.2763 67.0707 97.5989 67.6721 97.5514C67.6785 97.4026 67.479 97.3425 67.3303 97.3488C66.2223 97.3963 65.2695 98.4757 65.3613 99.5805C65.4531 100.685 66.5674 101.594 67.669 101.461C66.8903 101.568 66.0926 101.524 65.3297 101.331C64.6174 101.154 63.8355 100.714 63.7691 99.9825C63.3797 100.451 63.2404 101.116 63.4145 101.698C63.5886 102.281 64.0666 102.765 64.6491 102.942C64.9973 103.05 65.3677 103.05 65.7285 103.031C66.3521 102.996 66.9757 102.895 67.5772 102.73C67.2511 103.145 66.7858 103.449 66.273 103.572C67.2321 103.775 68.2419 103.569 69.1346 103.164C70.0273 102.759 70.8187 102.164 71.5879 101.556C74.4812 99.2766 77.2256 96.7126 79.087 93.5376C79.2421 93.2748 79.394 92.9931 79.4035 92.6892C79.4162 92.3853 79.2421 92.0498 78.9445 91.9801C78.59 92.8222 78.055 93.5724 77.5264 94.3163C76.3108 96.0225 75.0794 97.7477 73.4777 99.0962C73.8449 98.6245 74.114 98.0801 74.2691 97.5039C74.3672 97.1304 74.4147 96.7126 74.2342 96.3707C74.1266 96.1681 73.9525 96.0098 73.7626 95.8832C73.3416 95.5983 72.8034 95.44 72.3159 95.5888C71.8285 95.7376 71.4486 96.2631 71.5752 96.7569C71.7841 96.358 72.3729 96.2219 72.7338 96.491C73.0187 96.7031 73.1263 97.0829 73.1421 97.4375C73.1675 98.1054 72.9079 98.7765 72.4457 99.2576C71.7525 99.9794 70.6984 100.214 69.7012 100.299L69.7044 100.302Z" fill="#1C1924"/>
<path d="M34.3332 84.7723C30.8923 84.0252 27.2362 84.2911 23.9409 85.5288C23.7731 85.5922 23.5832 85.6776 23.5325 85.8517C23.4787 86.0227 23.7098 86.2348 23.8332 86.1018C20.9748 86.7254 18.2081 87.77 15.6504 89.1945C14.8147 89.6598 13.8809 90.4385 14.1215 91.3629C19.7466 89.9226 25.3147 88.267 30.81 86.3962C32.0382 85.9783 33.2854 85.5383 34.3301 84.7723H34.3332Z" fill="#4F5906"/>
<path d="M31.5824 87.387C32.8486 87.349 34.0831 87.0135 35.3114 86.6969C44.5641 84.3101 54.067 82.9046 63.6142 82.5058C63.9465 82.4931 64.3929 82.3507 64.3454 82.0246C64.3264 81.879 64.5543 80.8724 64.4404 80.7774C63.3863 79.9196 61.8985 79.9259 60.5468 79.7771C59.9327 79.7106 59.3122 79.8024 58.6981 79.8942C54.2791 80.5653 49.86 81.2396 45.4442 81.9107C44.1653 82.1038 42.8864 82.3 41.6202 82.5786C38.2363 83.3256 34.9916 84.6773 32.0794 86.5545C31.7818 86.7444 31.4494 87.0609 31.5824 87.387Z" fill="#F5B404"/>
<path d="M56.5265 80.6635C57.6154 80.2646 58.8056 79.679 59.1349 78.5679C54.2758 78.0456 49.3661 78.7926 44.4817 78.5805C42.8958 78.5109 41.313 78.3431 39.724 78.3305C38.0716 78.3178 36.4223 78.4761 34.7794 78.6723C27.5969 79.5302 20.4998 81.1288 13.6433 83.4364C11.839 84.0442 9.89538 84.8293 9.00903 86.5165C12.2727 87.273 15.6724 87.0451 19.0152 86.814C23.3551 86.5133 27.6919 86.2094 32.0318 85.9087C33.5607 85.8011 35.0928 85.6966 36.6123 85.4655C37.9734 85.2598 39.3156 84.9527 40.6578 84.6488C43.1934 84.0727 45.7289 83.4966 48.2645 82.9173C51.0501 82.2842 53.8421 81.6479 56.5233 80.6666L56.5265 80.6635Z" fill="#F5B404"/>
<path d="M58.2738 78.7768C58.9607 78.6692 59.6793 78.552 60.2428 78.1469C60.8094 77.7417 61.1671 76.9566 60.8632 76.3299C56.7512 77.4631 52.4904 78.0677 48.2265 78.1215C46.3557 78.1437 44.4849 78.0614 42.6172 78.188C40.3127 78.3431 38.0431 78.8148 35.7702 79.2295C29.3854 80.3944 22.9183 81.1129 16.4321 81.3788C11.7409 81.5688 6.9831 81.5308 2.4406 82.7179C1.44663 82.9774 0.335536 83.4143 -0.00317383 84.3829C2.83629 84.9179 5.74222 84.9464 8.62917 84.921C13.8649 84.8767 19.107 84.6552 24.3048 84.0094C26.3054 83.7625 28.2965 83.4491 30.2876 83.1389C32.1331 82.8508 33.9754 82.5627 35.8209 82.2747C40.6103 81.5276 45.4029 80.7806 50.1923 80.0335C52.8861 79.6125 55.58 79.1946 58.2738 78.7736V78.7768Z" fill="#4F5906"/>
<path d="M60.1922 75.8234C58.2074 76.0735 56.2163 76.3267 54.2189 76.4185C52.3228 76.5071 50.4266 76.4502 48.5305 76.3679C40.2463 76.0007 31.9844 75.0858 23.8205 73.6329C23.6812 73.9083 23.6496 74.2375 23.7319 74.535C25.1184 76.0291 27.3121 76.3774 29.3348 76.6306C40.2463 77.9918 51.4269 78.9794 62.158 76.5768C63.2184 76.3394 64.3422 76.0291 65.0576 75.2124C63.4369 75.4182 61.8161 75.624 60.1954 75.8266L60.1922 75.8234Z" fill="#F5B404"/>
<path d="M22.1142 81.2776C25.8305 81.439 29.5595 81.5656 33.2663 81.2586C35.7006 81.056 38.1159 80.6635 40.528 80.2741C47.28 79.182 54.032 78.0867 60.7872 76.9946C61.2209 76.925 61.7654 76.7382 61.7812 76.2982C46.229 77.3492 30.6421 77.824 15.0551 77.7164C13.8586 77.7069 12.6303 77.7005 11.5066 78.1184C12.1175 79.4701 13.6496 80.1253 15.0868 80.483C17.3786 81.0528 19.7559 81.1731 22.1142 81.2744V81.2776Z" fill="#4F5906"/>
<path d="M142.663 66.865C141.485 64.5953 139.76 62.6106 137.681 61.1228C137.421 61.7147 133.771 60.7144 133.144 60.5593C127.57 59.1728 123.863 62.6454 118.14 63.174C113.794 63.576 99.4697 64.3737 95.2121 65.3297C78.7514 69.0175 72.7623 69.9862 58.0965 78.3241C57.59 78.6122 57.0075 79.1535 57.2829 79.6663C57.4254 79.9322 57.7451 80.0367 58.0332 80.1158C59.2994 80.4609 60.5941 80.7046 61.9014 80.8439C61.6165 80.9199 61.4013 81.2079 61.4108 81.5023C64.5573 83.0186 67.726 84.5159 70.9358 85.8992C70.8028 86.1239 70.6699 86.3519 70.5369 86.5766C70.1222 87.2794 69.6981 88.0043 69.543 88.8051C69.429 89.4003 69.5176 90.1125 70.0241 90.4449C70.2869 90.619 70.6192 90.6538 70.9326 90.638C71.4264 90.6158 71.9044 90.4797 72.3793 90.3436C74.2786 89.8023 76.1779 89.2641 78.0803 88.7228C78.5836 88.9001 79.0838 89.0742 79.5903 89.2451C79.2611 90.2581 78.1943 91.2711 78.6533 92.2397C78.9382 92.8443 79.7201 93.0564 80.3785 92.952C81.0369 92.8475 81.632 92.5024 82.2588 92.2745C83.4997 91.8187 84.9432 91.7712 86.0542 91.1286C92.8158 92.7652 99.8559 93.3825 106.697 92.2207C109.932 91.6699 113.091 90.7298 116.158 89.5744C120.001 88.1277 123.711 86.3455 127.412 84.5665C129.029 83.791 130.656 83.0059 132.093 81.9392C133.233 81.0908 134.243 80.0778 135.376 79.22C137.003 77.9918 138.868 77.1086 140.485 75.874C142.103 74.6363 143.521 72.9111 143.685 70.8789C143.799 69.486 143.306 68.109 142.66 66.865H142.663Z" fill="#F5B404"/>
<path d="M126.19 68.2103C125.81 69.5873 125.474 71.0055 125.572 72.43C125.671 73.8544 126.263 75.3074 127.421 76.1463C127.152 76.2666 126.848 76.3109 126.554 76.2729C127.003 77.4979 127.994 78.4729 129.134 79.1029C130.273 79.7328 131.565 80.0462 132.856 80.2361C133.717 80.3627 134.597 80.4355 135.452 80.2836C137.174 79.9765 138.69 78.7008 139.285 77.0548C138.434 76.8174 137.76 76.0513 137.627 75.1776C137.889 75.0763 138.022 74.7281 137.896 74.4781L138.402 74.4622C138.741 72.4869 138.542 70.3945 137.665 68.5934C136.788 66.7922 135.211 65.3044 133.299 64.703C131.387 64.1015 129.165 64.4529 127.633 65.7476C127.253 66.0705 126.915 66.4472 126.674 66.8872C126.449 67.3018 126.316 67.7577 126.19 68.2103Z" fill="#C6260C"/>
<path d="M133.98 80.3469C133.958 80.4799 133.942 80.6255 134.002 80.7489C134.059 80.8597 134.17 80.9294 134.278 80.9927C135.927 81.9328 138.022 82.0373 139.757 81.2681C140.355 81.0022 140.966 80.5527 141.039 79.9037C141.102 79.3276 140.723 78.8085 140.365 78.3526C139.672 77.4758 138.947 76.5736 137.953 76.0608C137.725 75.9437 137.468 75.8455 137.218 75.9025C137.013 75.95 136.845 76.0956 136.687 76.2349C136.076 76.7762 135.458 77.327 134.977 77.9886C134.471 78.685 134.129 79.4985 133.983 80.3469H133.98Z" fill="#1C1924"/>
<path d="M138.042 74.1393C138.491 73.6455 139.007 73.2024 139.609 72.908C140.201 72.6167 140.872 72.4806 141.53 72.5123C141.802 72.5249 142.074 72.5692 142.318 72.6927C142.72 72.8953 142.989 73.2973 143.129 73.7278C143.296 74.247 143.287 74.8073 143.277 75.3517C143.246 76.9788 143.214 78.6185 142.831 80.1981C142.451 81.7777 141.685 83.3161 140.422 84.3386C140.84 83.1705 140.65 81.8442 140.137 80.7141C139.621 79.584 138.805 78.6185 137.947 77.7195C137.655 77.4156 137.355 77.1054 137.203 76.7161C136.858 75.8266 137.402 74.8421 138.045 74.1362L138.042 74.1393Z" fill="#7C5F4D"/>
<path d="M130.653 67.9223C131.847 67.3208 133.353 67.3936 134.483 68.1091C134.816 68.3211 135.123 68.5902 135.303 68.9416C135.487 69.2993 135.528 69.7108 135.566 70.1097C135.636 70.8472 135.705 71.5848 135.772 72.3192C134.233 72.8447 132.464 72.6389 131.087 71.7715C130.387 70.7776 130.121 69.486 130.371 68.2958C130.39 68.2103 130.413 68.1185 130.47 68.0521C130.517 67.9951 130.587 67.9571 130.653 67.9223Z" fill="#9C6E56"/>
<path d="M134.344 70.4357C134.29 71.0245 133.629 71.4265 133.043 71.3379C132.527 71.2587 132.087 70.8694 131.888 70.3882C131.688 69.9071 131.717 69.3468 131.91 68.8624C132.201 68.8244 132.492 68.7865 132.784 68.7485C133.046 68.7137 133.325 68.682 133.569 68.7896C133.936 68.9511 134.104 69.3689 134.227 69.7519C134.3 69.9735 134.366 70.2046 134.347 70.4357H134.344Z" fill="#1C1924"/>
<path d="M44.1114 52.1549C44.9376 52.6455 45.9506 53.3705 45.6973 54.2979C44.0449 54.2979 42.3925 54.3011 40.7401 54.3043C42.0032 56.9475 44.6464 58.8816 47.5492 59.2836C46.6343 59.6287 45.7195 59.9737 44.8078 60.3219C44.4754 61.1608 45.3934 61.93 46.1817 62.37C48.0493 63.4146 49.9201 64.4592 51.7878 65.5038C50.5311 65.2189 49.1382 65.64 48.2487 66.5738C51.9619 68.5649 56.0295 69.8881 60.2017 70.4674C59.3723 70.7174 58.6981 71.4297 58.4923 72.2685C59.9769 72.7972 61.4584 73.3258 62.943 73.8545C62.6486 74.1077 62.3542 74.3641 62.0598 74.6173C64.4181 75.6651 66.7796 76.7129 69.1379 77.7639C68.6093 78.3906 69.0366 79.4321 69.7584 79.8214C70.4801 80.2108 71.3506 80.1412 72.1673 80.0652C72.0882 80.673 72.009 81.2807 71.9267 81.8885C73.5285 82.5913 75.2537 83.0091 77.001 83.1199C76.7003 83.7625 76.3964 84.4051 76.0957 85.0445C77.2574 85.3041 78.4508 84.8768 79.5651 84.4589C81.4043 83.7688 83.2434 83.0756 85.0858 82.3855C85.3105 82.3 85.5543 82.2019 85.6714 81.9898C85.8771 81.6131 85.5511 81.1699 85.2314 80.8787C83.6866 79.4796 81.7715 78.5616 80.0937 77.3207C77.9855 75.7633 76.292 73.7215 74.6301 71.6956C73.1265 69.8596 71.6197 68.0014 70.5466 65.8869C68.1693 61.2019 68.1186 55.6844 68.6884 50.4582C69.2582 45.2351 70.3915 40.0373 70.1952 34.7858C70.1635 33.9121 70.0907 33.0257 69.7773 32.209C69.2519 30.832 68.1123 29.8001 67.0962 28.7333C61.6325 23.0037 58.9735 15.0931 57.9827 7.23951C57.6313 4.46652 57.128 1.16173 54.5861 -0.00317383C50.626 8.22715 52.5253 17.9421 54.5038 26.8562C52.9337 25.9856 52.2594 24.1212 51.7086 22.4118C50.8856 19.8572 50.0657 17.3058 49.2427 14.7513C48.2709 14.8051 47.872 16.0048 47.7486 16.9703C46.8179 24.1655 47.546 31.5696 49.8536 38.4451C47.5302 37.4574 45.5327 35.7259 44.2254 33.567C43.7442 35.7671 43.9975 38.119 44.9408 40.164C43.969 39.629 42.861 39.3409 41.7531 39.3378C42.1108 41.4048 43.0541 43.3674 44.447 44.9344C43.0351 44.5925 41.6233 44.2538 40.2115 43.9119C39.7778 43.8075 39.3093 43.703 38.8915 43.8676C37.7456 44.3139 38.1096 46.0423 38.787 47.0679C40.1545 49.135 41.9905 50.8855 44.1209 52.1517L44.1114 52.1549Z" fill="#3D2E2E"/>
<path d="M89.8149 80.119C90.008 77.5486 88.3303 75.2789 87.1685 72.9776C83.2528 65.2285 84.9717 55.8617 82.8666 47.4383C82.6545 46.5931 82.4013 45.7511 81.9708 44.9945C81.5878 44.3234 81.0749 43.7378 80.5748 43.1459C76.9756 38.8914 73.9272 34.1717 71.5309 29.1417C70.977 27.9768 70.3122 26.6694 69.0713 26.318C68.8941 26.2674 68.6978 26.2452 68.5395 26.337C68.2736 26.4921 68.2768 26.872 68.3116 27.1759L68.8244 31.5823C68.185 31.1708 67.5456 30.7624 66.9061 30.3509C67.0169 32.5288 67.3398 34.694 67.8684 36.8085C66.5643 37.2517 65.3329 36.0488 64.456 34.9884C63.5792 33.9279 62.2623 32.7757 61.0025 33.3265C60.0148 34.8048 59.7869 36.6882 60.0117 38.4514C60.2364 40.2146 60.8758 41.8955 61.5089 43.5542C60.6068 43.2092 59.7014 42.8641 58.7993 42.5159C58.5587 43.5257 58.8626 44.6527 59.5812 45.4029C58.9006 45.1022 58.1598 44.9281 57.4159 44.8932C57.4919 45.5833 57.6692 46.2639 57.9414 46.9033C55.9345 46.8305 53.5287 47.796 53.2976 49.7903C53.114 51.3604 54.3802 52.7025 55.6148 53.6902C56.748 54.5987 57.9446 55.4312 59.1918 56.1783C58.3973 56.0548 57.5711 56.1435 56.824 56.4315C57.4159 57.1722 58.1314 57.8148 58.9291 58.3245C58.4511 58.2422 57.9446 58.1599 57.4919 58.334C57.0392 58.5081 56.6879 59.0431 56.8905 59.4831C56.9728 59.6667 57.1311 59.7996 57.2862 59.9294C58.3244 60.7999 59.3627 61.6704 60.3979 62.5409C59.7932 62.1453 58.9734 62.9176 59.0557 63.6362C59.138 64.3548 59.7458 64.8866 60.3314 65.3076C62.4333 66.8144 64.8865 67.8685 67.4506 68.1914C66.2477 68.1597 65.0511 68.8435 64.4655 69.8976C66.0483 70.5813 67.5994 71.3316 69.1188 72.1451C68.3908 72.4522 67.6627 72.756 66.9346 73.0631C66.7637 73.7025 67.3651 74.2723 67.9223 74.6332C70.0463 76.0039 72.5312 76.8079 75.0573 76.944C74.3926 77.8019 72.9206 78.3432 73.1865 79.3973C73.3195 79.9196 73.8639 80.2171 74.3704 80.4007C75.6303 80.8566 77.0009 80.999 78.3273 80.8154C78.0962 81.2364 78.0392 81.7493 78.169 82.2083C79.8657 82.3665 81.5973 82.1291 83.1863 81.5245C83.1484 81.9677 83.1104 82.4108 83.0756 82.854C84.8957 82.8413 86.7127 82.5185 88.4284 81.9044C88.7608 81.7841 89.1027 81.6479 89.3496 81.3915C89.6725 81.056 89.7833 80.5717 89.8181 80.1095L89.8149 80.119Z" fill="#4F5906"/>
<path d="M73.9525 62.4428C73.4017 62.3953 72.9111 61.9585 72.7908 61.4203C73.4904 61.0753 74.3007 60.9518 75.0731 61.0721C74.8642 60.1763 74.2849 59.4071 74.057 58.5144C73.8291 57.6249 74.1646 56.4442 75.07 56.2796C75.7917 56.1466 76.6147 56.7132 77.2193 56.2986C75.722 54.8203 74.8199 52.7532 74.7534 50.6513C75.7094 50.4139 76.7002 50.3284 77.6815 50.398C77.2478 49.287 76.8141 48.1759 76.3773 47.0679C77.2478 46.8052 78.2038 46.84 79.0522 47.1629C79.0078 45.8081 78.9635 44.4564 78.916 43.1016C78.9002 42.6109 78.9192 42.0411 79.3149 41.7499C79.815 41.3795 80.5463 41.7499 80.9166 42.25C81.287 42.7502 81.4959 43.3769 81.9676 43.7821C82.3285 43.2978 82.8159 42.8705 83.4079 42.7502C83.9998 42.6299 84.6931 42.899 84.9179 43.4592C85.054 43.8043 85.0002 44.1937 84.9463 44.5608C84.7817 45.6435 84.614 46.7229 84.4494 47.8055C85.2344 46.6533 86.6462 45.96 88.039 46.0423C86.9659 52.5538 88.9665 59.138 90.9418 65.4342C91.2014 66.2667 91.4736 67.1151 91.9928 67.8115C92.9424 69.0809 94.7246 69.657 96.2377 69.1853C96.3612 68.625 95.9813 67.9983 95.4273 67.8495C97.5704 67.2512 99.8907 67.3019 102.005 67.9951C102.227 69.9071 102.388 71.8634 101.961 73.7373C101.534 75.6145 100.429 77.4252 98.6973 78.2672C97.4881 78.856 96.0509 78.9446 94.9272 79.6853C94.4682 79.9892 94.082 80.3881 93.6642 80.7458C91.7807 82.3665 89.1913 83.1357 86.7285 82.8097C86.5639 81.7239 87.7731 80.9927 88.7893 80.5748C88.1657 80.6888 87.4819 80.7964 86.9279 80.4894C86.374 80.1791 86.1524 79.2643 86.6905 78.9288C83.696 78.9129 80.7172 77.8683 78.3684 76.0133L78.3146 75.4562C78.9382 75.1966 79.5618 74.9371 80.1854 74.6743C78.6058 75.1302 76.7603 74.0571 76.3678 72.4616C76.773 72.3413 77.1813 72.2179 77.5865 72.0976C76.2285 71.781 75.1712 70.4674 75.1491 69.0714C75.5289 69.0967 75.9088 69.1252 76.2887 69.1505C73.636 68.0679 71.705 65.4057 71.4961 62.5504C72.3033 62.4175 73.1295 62.3827 73.9462 62.4396L73.9525 62.4428Z" fill="#EA850C"/>
</g>
<defs>
<clipPath id="clip0_49_470">
<rect width="158" height="103.651" fill="white"/>
</clipPath>
</defs>
</svg>
