<svg width="1103" height="1103" viewBox="0 0 1103 1103" fill="none" xmlns="http://www.w3.org/2000/svg">
<path d="M1083.1 551.5C1083.1 845.093 845.093 1083.1 551.5 1083.1C257.907 1083.1 19.9028 845.093 19.9028 551.5C19.9028 257.907 257.907 19.9028 551.5 19.9028C845.093 19.9028 1083.1 257.907 1083.1 551.5Z" stroke="#CEDE86" stroke-opacity="0.35" stroke-width="1.28405"/>
<path d="M959.178 551.5C959.178 776.65 776.65 959.178 551.5 959.178C326.35 959.178 143.822 776.65 143.822 551.5C143.822 326.35 326.35 143.822 551.5 143.822C776.65 143.822 959.178 326.35 959.178 551.5Z" stroke="#CEDE86" stroke-opacity="0.35" stroke-width="1.28405"/>
<path d="M853.179 551.5C853.179 718.094 718.126 853.147 551.532 853.147C384.938 853.147 249.884 718.094 249.884 551.5C249.884 384.906 384.938 249.853 551.532 249.853C718.126 249.853 853.179 384.906 853.179 551.5Z" stroke="#CEDE86" stroke-opacity="0.35" stroke-width="1.28405"/>
</svg>
