<svg width="1440" height="462" viewBox="0 0 1440 462" fill="none" xmlns="http://www.w3.org/2000/svg">
<g clip-path="url(#clip0_0_1)">
<path d="M1122.97 270.696C960.182 222.625 733.427 180.806 480.919 156.577C302.707 139.458 135.428 133.38 -7 137.01V446.566C125.848 474.468 280.691 497.987 446.617 513.925C711.432 539.335 952.149 540.387 1122.97 521.507V270.696Z" fill="#9DCA55"/>
</g>
<path d="M1440 131.464C1389.32 136.106 1337.5 141.722 1284.82 148.313C717.025 219.556 264.299 379.892 273.585 506.478C282.87 633.039 750.703 677.918 1318.47 606.675C1359.61 601.52 1400.17 595.878 1440 589.826V131.464Z" fill="#3D7D40"/>
<path d="M278.971 224.48C182.45 212.35 88.8521 203.656 0 198.193V638.039C78.5408 652.324 160.878 665.018 245.831 675.687C804.748 745.802 1265.25 701.64 1274.4 577.054C1283.56 452.443 837.888 294.595 278.971 224.48Z" fill="#146841"/>
<g clip-path="url(#clip1_0_1)">
<path d="M1584.09 246.295C1575.15 226.217 1569.34 205.135 1566.24 183.602C1562.38 156.788 1526.79 120.327 1489.17 120.327C1461.98 120.327 1372.43 84.4978 1360.42 77.079C1345 67.5521 1337.93 50.6667 1319.42 45.4565C1302.07 40.5675 1283.18 46.5306 1265.84 47.6851C1251.25 48.6589 1235.71 47.3337 1221.52 45.4766C1214.61 44.5731 1209.75 41.6718 1202.28 41.7822C1195.11 41.8927 1188.29 44.0611 1181.36 44.0109C1163.09 43.8804 1165.97 26.4729 1152.94 20.3793C1141.45 15.0085 1123.15 21.6743 1110.23 18.1607C1096.82 14.5166 1084.12 11.7759 1070.06 10.0292C1056.07 8.2824 1042.65 6.50551 1029.05 3.97571C1010.79 0.582559 990.505 -0.561877 973.69 6.17423C958.813 12.1273 948.232 16.4741 931.637 14.5868C918.918 13.1312 888.711 9.07547 877.949 17.6487L892.666 51.3694C889.243 59.4407 897.164 77.4103 898.479 86.2345C900.597 100.46 903.287 115.106 901.239 129.593C898.91 146.076 894.845 163.072 887.647 178.261C878.762 197.014 869.366 215.425 870.059 236.437C870.822 259.606 886.994 277.797 913.346 281.612C965.478 289.161 1020.38 276.954 1072.56 274.956C1114.31 273.36 1155.72 268.109 1197.45 266.122C1245.88 263.823 1294.18 263.17 1342.68 263.17C1397.72 263.17 1453.15 263.702 1506.73 276.361C1538.25 283.81 1564.58 293.136 1597.12 288.89C1598.13 276.723 1589.17 257.649 1584.11 246.295H1584.09Z" fill="#88938F"/>
<path d="M1582.06 261.032C1561.96 235.493 1560.28 206.942 1523.03 197.857C1511.61 195.076 1499.84 197.235 1489.16 192.687C1477.66 187.798 1476.66 180.731 1469.27 172.469C1462.52 164.929 1416.21 128.588 1411.75 147.07C1381.92 146.729 1412.98 97.2972 1370.83 110.739C1374.59 116.06 1375.31 133.758 1363.6 129.291C1357.48 126.952 1361.12 110.85 1355.63 109.233C1338.7 104.274 1354.45 149.871 1336.96 151.497C1335.95 131.048 1331.19 111.884 1332.24 91.2136C1332.7 82.018 1336.91 72.0694 1327.59 65.0121C1319.01 58.5069 1311.28 66.287 1303.17 60.3741C1299.44 68.8469 1293.79 81.6566 1282.14 77.9321C1272.58 74.8703 1274.62 64.4198 1273.03 56.2079C1268.85 34.6946 1257.68 25.1978 1233.65 27.9886C1234.31 30.8195 1232.54 35.0459 1233.21 37.8769C1212.51 43.9605 1221.8 36.3811 1217.53 22.1861C1215.01 13.8237 1205.19 8.00111 1195.43 17.7991C1188.26 24.997 1190.5 40.5774 1190.96 50.2248C1191.28 56.8504 1193.09 63.0444 1191.07 69.4794C1189.82 73.4749 1184.48 76.4163 1183.18 82.3593C1178.01 106.182 1202.28 129.07 1188.79 152.913C1179.38 169.557 1175.84 160.442 1168.83 151.407C1164.03 145.223 1149.19 134.843 1156.47 126.239C1149.53 114.173 1147.09 111.452 1147.92 98.6826C1148.64 87.439 1150.2 74.8 1150.8 63.1749C1151.39 51.4495 1152.28 36.7827 1147.47 26.2418C1143.5 17.528 1130.22 10.551 1136.18 0.30127C1123.58 6.45512 1123.32 28.4905 1122.75 41.0291C1122.38 49.2008 1123.01 56.9809 1121.26 64.6406C1119.3 73.2038 1112.33 78.2333 1109.84 85.2706C1101.34 109.294 1128.94 169.708 1106.47 187.326C1098.36 181.684 1104.15 174.436 1103.55 166.485C1102.91 157.902 1101.12 154.639 1096.55 147.341C1092.41 140.746 1086.91 135.204 1084.42 128.076C1081.47 119.634 1084.62 115.598 1084.04 107.788C1083.02 94.145 1081.5 21.3529 1062.46 26.5028C1062.03 35.0459 1063.63 44.7034 1062.27 53.1662C1060.81 62.3819 1055.63 70.0114 1054.85 79.4079C1054.08 88.8444 1067.28 123.047 1050.65 123.459C1049.39 98.1103 1041.33 77.6209 1035.45 52.9855C1033.66 53.648 1031.17 53.6079 1029.66 54.1299C1027.84 45.9683 1026.65 25.1877 1014.65 37.7163C1008.2 44.4524 1013.37 61.4181 1015.33 68.7465C1018.34 80.0002 1019.4 87.0876 1015.33 98.2609C1012.09 107.196 1011.85 113.912 1010.24 124.824C1008.69 135.355 1004.21 145.635 1006.48 157.621C1007.52 163.142 1018.81 183.531 1007.69 186.884C994.109 190.98 992.423 135.545 992.784 126.631C993.095 118.79 996.177 111.372 995.806 102.969C995.505 96.0624 991.7 88.8545 991.72 82.3493C991.75 67.582 999.611 59.6613 993.969 43.9806C991.469 37.0437 985.757 10.9726 980.677 7.04742C970.789 -0.582154 968.058 17.8894 967.697 26.1916C967.245 36.5819 979.272 91.4445 964.384 85.7424C958.26 83.3933 953.572 63.0344 948.623 57.4829C944.618 52.9955 942.098 55.0133 938.293 48.4077C935.663 43.8199 933.856 35.7587 932.46 30.8497C930.613 31.1308 928.445 31.6729 926.668 32.4258C923.225 41.2399 928.294 50.4456 924.67 59.8822C920.855 69.8408 914.802 71.5474 916.117 85.3007C917.392 98.6524 928.365 126.199 916.107 137.111C903.578 132.032 910.847 117.184 910.244 107.477C909.361 93.3017 899.633 88.8444 895.417 76.4464C891.702 65.4939 890.598 53.7484 891.06 42.5048C891.451 32.8675 893.459 13.0708 877.969 17.6385C877.236 21.1521 877.849 29.2736 875.971 32.2049C873.482 36.0699 868.984 35.3571 866.304 38.4491C859.718 46.0385 858.705 47.6448 857.41 59.069C855.392 76.8981 855.02 96.7752 851.216 114.825C844.771 145.384 813.128 165.08 787.679 180.098C762.592 194.905 730.98 196.441 708.061 214.08C685.634 231.337 686.708 256.464 673.778 278.62C661.5 299.672 633.803 298.497 615.03 312.602H1628.98C1630.29 312.592 1600.64 284.613 1582.08 261.022L1582.06 261.032Z" fill="#C1C7C2"/>
<path d="M906.741 90.1897C894.664 67.3412 896.742 46.4603 892.475 21.8549C891.211 14.5968 885.739 11.7256 880.67 18.1606L882.888 17.4177C889.183 28.0088 887.888 42.7258 887.335 55.0536C886.984 62.9843 885.197 70.634 885.107 78.6651C885.077 80.9439 884.233 85.4514 885.107 87.5194C886.562 90.9427 888.45 89.4669 890.267 91.9566C896.471 100.429 898.037 116.251 897.485 127.374C897.184 133.498 896.511 139.692 897.686 145.825C898.117 148.074 901.029 160.281 903.719 161.155C903.719 161.155 904.914 162.018 904.884 161.988C904.422 149.951 912.091 140.455 912.704 128.448C912.995 122.756 912.312 115.759 912.654 110.408C913.105 103.371 910.164 96.6548 906.751 90.1797L906.741 90.1897Z" fill="#919191"/>
<path d="M944.828 105.991C943.905 96.6348 942.278 87.3287 941.345 77.9523C940.431 68.847 941.716 61.3781 939.518 53.0458C938.173 47.936 937.771 32.1548 931.587 31.4622L930.854 32.205C928.033 38.8608 932.551 48.709 933.966 55.8165C935.813 65.0825 934.267 73.1136 933.806 82.3895C933.274 93.2014 937.5 99.6665 941.385 108.752C944.156 115.227 940.612 127.665 944.868 132.674C949.215 126.37 945.551 113.269 944.828 106.001V105.991Z" fill="#919191"/>
<path d="M965.529 124.252C965.529 111.854 971.943 83.8851 958.883 78.685L957.407 77.9521C957.006 85.4914 959.294 93.5727 958.883 101.564C958.341 112.084 958.14 121.29 958.14 131.821C958.14 143.858 958.933 155.904 959.656 167.78C960.027 173.854 958.873 186.754 963.139 190.789C966.472 181.333 963.561 168.583 964.043 158.555C964.585 147.16 965.519 135.857 965.519 124.262L965.529 124.252Z" fill="#919191"/>
<path d="M1000.13 171.585C999.48 165.582 995.364 159.87 995.053 153.947C994.41 141.85 995.384 130.255 996.77 118.279C997.402 112.868 997.482 105.118 997.261 99.3351C997.021 93.2817 993.226 88.0414 993.557 81.6265C994.169 69.6501 996.98 57.513 995.746 45.5065C995.193 40.1558 986.048 -0.40142 979.553 7.09764V6.35476C973.509 15.1187 983.769 30.3277 986.219 39.5635C989.421 51.6604 985.305 63.4762 984.723 75.7236C984.1 88.7842 988.407 99.2448 988.417 112.044C988.417 125.998 988.277 140.053 987.684 153.776C987.192 165.04 993.045 187.728 1003.68 193.319C1004.22 187.818 1000.74 177.046 1000.15 171.575L1000.13 171.585Z" fill="#919191"/>
<path d="M1022.49 35.0259C1022.07 34.7046 1022.66 33.9718 1022.26 33.771C1015.75 40.3866 1024.59 52.7144 1025.32 60.2436C1026.23 69.6601 1026.33 81.1346 1028.99 90.1897C1030.3 86.5556 1030.96 69.0979 1029.8 54.7423L1032.83 54.4913C1030.03 45.4262 1026.37 34.8954 1022.48 35.0158L1022.49 35.0259Z" fill="#919191"/>
<path d="M1050.44 111.894C1049.86 102.066 1050.41 89.1254 1048.2 79.4278C1046.51 72.0091 1043.74 54.4309 1034.9 54.3406L1032.84 54.5112C1034.37 59.4504 1035.64 63.9478 1036.56 66.056C1044.89 85.0797 1044.01 99.6863 1040.79 120.015C1038.86 132.142 1040.48 142.854 1041.56 154.74C1042.08 160.331 1042.95 165.511 1043.78 170.932C1044.58 176.163 1043.01 181.142 1043.89 186.332C1051.51 182.849 1047.37 156.918 1047.46 148.767C1047.59 136.328 1051.16 123.9 1050.45 111.894H1050.44Z" fill="#919191"/>
<path d="M1085.32 123.208C1086.77 95.7313 1088.23 59.8021 1073.82 35.3272C1073.43 34.6646 1072.1 33.2692 1072.52 33.6708L1071.05 32.1951C1074.49 55.7765 1073.29 80.8135 1073.27 104.686C1073.25 122.134 1072.35 138.096 1074.02 155.443C1074.84 164.016 1075.84 172.71 1076.22 181.253C1076.48 187.105 1075.05 194.835 1076.95 199.825C1080.4 188.421 1080.85 171.485 1081.38 158.966C1081.98 144.912 1084.56 137.453 1085.31 123.218L1085.32 123.208Z" fill="#919191"/>
<path d="M1096.89 148.054C1085.42 151.547 1096.46 177.247 1096.89 185.69C1097.28 193.36 1096.33 199.132 1098.18 206.521C1099.63 212.263 1098.59 223.777 1102.06 227.863C1109.26 219.049 1106.61 194.052 1104.44 183.301C1103.32 177.769 1106.74 146.247 1098.37 148.797L1096.9 148.054H1096.89Z" fill="#919191"/>
<path d="M1157.42 143.627C1156.57 137.875 1156.87 132.112 1156.5 126.49C1156.11 120.588 1153.19 117.516 1151.46 111.894C1147.93 100.439 1150.13 84.4274 1150.73 72.2503C1151.41 58.0954 1154.17 45.8479 1151.5 32.2151C1150.52 27.1655 1147.73 -6.72585 1136 1.20489V0.462012C1127.2 6.16411 1137.98 24.6056 1137.47 32.9278C1136.65 46.5004 1134.33 60.4947 1134.52 74.258C1134.62 81.5864 1137.4 87.8306 1138.4 94.9181C1139.27 101.142 1137.55 107.577 1138.18 114.123C1139.48 127.555 1144.29 138.909 1152.23 149.7C1162.03 163.012 1155.38 178.542 1159.45 193.57C1160.77 177.639 1159.75 159.308 1157.42 143.617V143.627Z" fill="#919191"/>
<path d="M1223.82 102.849C1223.83 88.6037 1224.42 72.8025 1222.34 58.758C1220.99 49.5925 1222.19 39.0717 1220.11 29.9765C1219.36 26.7339 1217.64 19.8071 1215.72 17.4078C1214.07 15.3397 1207.69 10.4307 1208.32 15.9521L1209.06 14.4764C1218.24 37.0037 1213.12 56.5193 1214.23 80.7131C1214.86 94.346 1218.02 107.537 1218.66 120.929C1219.13 130.767 1216.43 141.157 1223.66 148.707C1228.37 136.058 1223.81 116.381 1223.82 102.849Z" fill="#919191"/>
<path d="M1274.74 101.373C1275.36 87.5696 1279.2 75.4928 1277.65 61.7094C1276.47 51.3392 1276.78 38.0175 1265.72 34.5641C1264.48 34.1726 1263.39 33.9919 1262.2 33.6606H1260.72C1269.9 40.1859 1268.16 57.4629 1266.63 66.8694C1264.31 81.0543 1260.8 93.4022 1262.92 108.029C1264.78 120.919 1270.17 133.437 1270.32 146.568C1270.5 162.681 1269.73 179.476 1271.18 195.177C1278.12 192.677 1275.83 161.225 1276.22 154.128C1277.19 136.61 1273.94 119.132 1274.75 101.363L1274.74 101.373Z" fill="#919191"/>
<path d="M1306.47 60.2335L1301.84 60.5447C1291.3 70.5836 1303.28 88.2521 1305.03 100.048C1307.17 114.464 1304.11 132.755 1309.56 146.498C1314.12 140.404 1310.79 128.026 1310.9 120.176C1311.01 112.456 1311.63 104.334 1311.63 96.3735C1311.63 88.4127 1311.29 80.9237 1312.4 73.5149C1313.33 67.3511 1316.07 59.1392 1306.46 60.2335H1306.47Z" fill="#919191"/>
<path d="M1321.94 62.4923C1312.35 61.3881 1326.72 92.2075 1326.36 97.8293C1325.57 109.725 1324.48 121.24 1325.69 133.327C1326.81 144.46 1325.34 155.553 1326.43 166.495C1327.19 174.135 1324.09 193.048 1331.57 197.415C1335.61 186.372 1331.9 171.746 1333.19 159.86C1334.34 149.379 1337.09 139.149 1337.46 128.087C1337.87 115.769 1337.12 103.381 1338.2 91.2237C1339.33 78.5546 1334.29 62.7232 1321.94 62.4923Z" fill="#919191"/>
<path d="M1356.18 109.916V109.183C1355.21 108.932 1355.22 108.34 1354.13 108.541C1349.52 115.869 1355.93 122.073 1356.92 129.111C1357.81 135.495 1353.04 146.558 1358.21 151.186C1359.66 146.628 1365.12 106.041 1356.18 109.916Z" fill="#919191"/>
<path d="M1389.85 111.151C1380.15 114.925 1386.16 145.655 1388.2 153.374C1392.12 168.282 1391.53 183.782 1395.01 198.74C1395.03 180.48 1393.44 162.962 1397.8 145.665C1399.91 137.302 1400.21 113.982 1389.84 110.408V111.141L1389.85 111.151Z" fill="#919191"/>
<path d="M1580.57 260.299C1560.48 234.76 1558.8 206.219 1521.54 197.124C1510.13 194.343 1500.3 194.544 1489.61 190.006C1478.12 185.118 1477.23 177.92 1469.84 169.658C1464.5 163.684 1432.22 141.689 1417.7 141.177C1416.51 141.529 1410.84 141.92 1410.35 143.667C1409.17 147.903 1416.61 149.279 1420.07 151.045C1425.74 153.937 1430.98 156.416 1436.51 160.372C1449.59 169.748 1447.42 181.042 1447.42 196.02C1447.42 203.82 1445.67 211.701 1455.59 213.779C1463.72 215.485 1471.22 208.418 1479.31 207.826C1494.51 206.711 1565.25 214.281 1555.94 235.172C1555.25 236.707 1555.82 235.714 1556.06 237.26C1549.21 237.721 1542.08 237.671 1536.5 242.209C1546.81 262.899 1559.72 283.519 1582.77 291.721C1578.4 291.62 1570.54 289.944 1568.66 294.893C1582.5 303.145 1596.49 307.221 1612.08 307.492C1612.22 307.291 1612.19 307.09 1611.99 306.9C1614.59 306.789 1618.17 306.388 1622.19 305.966C1613.02 296.499 1593.93 277.265 1580.58 260.299H1580.57Z" fill="#919191"/>
<path d="M880.67 60.9664C880.67 54.8728 883.521 35.3572 874.024 36.612L868.854 39.5635C860.843 37.4754 864.989 57.6937 865.742 61.6993C867.97 73.6255 865.872 86.3348 865.902 98.6023C865.933 112.898 864.427 127.002 864.427 141.368C864.427 150.835 862.58 163.253 867.358 171.585C873.04 166.345 870.701 149.891 870.37 142.342C869.868 130.978 869.336 119.353 868.854 107.989C868.452 98.532 871.745 90.0592 872.558 80.8836C873.241 73.2741 871.484 65.8052 871.936 58.1053C879.696 62.0908 875.379 81.1848 877.819 88.9148C883.26 87.3788 880.66 66.6083 880.66 60.9664H880.67Z" fill="#D8D3D3"/>
<path d="M929.368 58.0149C930.453 66.9395 922.592 74.7297 922.723 84.3972C922.883 96.2933 926.025 107.647 927.15 119.413C928.706 135.686 925.674 153.124 925.674 169.648C925.674 179.425 924.349 192.205 932.169 198.881C934.006 183.672 931.587 168.975 930.844 153.957C930.202 141.107 930.924 127.866 931.547 114.996C932.079 103.993 928.696 97.0663 927.2 86.7463C926.527 82.1083 925.724 76.868 927.331 72.1899C929.117 66.9696 932.581 65.6646 930.121 59.4806L929.389 58.0049L929.368 58.0149Z" fill="#D8D3D3"/>
<path d="M975.126 31.4521C972.144 45.4464 978.218 58.1657 978.077 72.0194C977.927 86.7565 975.618 101.323 974.965 116.11C974.353 130.014 972.967 143.336 972.174 156.898C971.974 160.342 969.695 194.123 978.298 188.109C980.858 186.322 978.82 168.925 978.82 165.933V141.398C978.82 128.789 981.039 117.285 981.039 104.505C981.039 91.7258 981.782 80.0304 981.782 67.6123C981.782 57.483 982.615 42.0231 977.354 33.6707L975.136 31.4521H975.126Z" fill="#D8D3D3"/>
<path d="M1136.18 156.165C1134.9 149.56 1130.71 144.51 1128.62 138.497C1126.72 133.016 1126.7 125.798 1126.4 120.005C1125.77 107.567 1124.47 95.972 1125.63 83.845C1125.83 81.767 1129.25 73.6857 1126.26 72.1497C1123.13 70.5435 1120.65 77.4603 1120.51 79.4179L1118.29 82.3693C1105.68 92.7395 1114.75 100.72 1116.77 113.199C1119.29 128.659 1118.34 145.936 1119.03 161.496C1119.6 174.165 1118.75 186.734 1117.56 198.971C1116.64 208.398 1113.89 220.987 1115.45 230.594C1125.65 233.636 1124.36 198.73 1125.69 192.155C1128.2 179.646 1138.8 169.668 1136.18 156.175V156.165Z" fill="#D8D3D3"/>
<path d="M1210.53 167.971C1210.53 151.949 1208.31 136.811 1208.31 120.748C1208.31 96.2132 1202.84 73.194 1204.04 48.428C1204.36 41.8424 1206.03 33.6407 1206.09 28.5007L1204.62 21.855C1192.55 29.1031 1197.24 43.0371 1197.97 55.0637C1198.74 67.6826 1200.33 78.615 1197.99 90.5111C1195.77 101.795 1202.01 115.408 1202.56 127.555C1203.37 145.243 1201.93 162.982 1201.81 180.54C1201.78 185.499 1204.24 199.644 1209.77 190.117C1212.66 185.138 1210.51 173.693 1210.51 167.971H1210.53Z" fill="#D8D3D3"/>
<path d="M1251.9 123.709C1250.18 106.663 1246.86 89.3362 1244.52 72.1998C1243.58 65.293 1244.4 59.5508 1245.79 52.8548C1246.79 48.0864 1250.25 40.5873 1247.61 35.6983C1246.23 33.1284 1243.45 31.8233 1240.79 30.709L1235.62 27.7576C1227.33 32.0643 1234.8 58.4565 1234.87 66.7085C1235.04 84.6581 1236.8 103.17 1239.26 120.788C1241.09 133.889 1245.98 145.895 1245.95 159.117C1245.93 166.315 1245.95 173.512 1245.95 180.7C1245.95 185.409 1243.52 199.102 1246.12 203.228C1246.47 203.78 1246.56 204.101 1246.82 204.744C1247.76 204.814 1248.58 204.834 1249.53 204.764C1252.69 179.335 1254.51 149.68 1251.89 123.719L1251.9 123.709Z" fill="#D8D3D3"/>
<path d="M1317.8 58.3063L1316.33 57.5735C1308.57 61.0369 1311.92 79.9502 1311.9 87.2786C1311.88 94.5167 1313.98 100.249 1314.89 107.166C1315.99 115.508 1314.38 125.125 1313.55 133.377C1311.96 149.068 1309.69 164.317 1309.69 180.259C1309.69 190.147 1308.55 204.021 1316.31 211.159C1319.61 208.047 1318.04 196.01 1317.8 191.111C1317.43 183.562 1317.82 176.193 1317.8 168.473C1317.77 153.023 1320.66 140.033 1322.25 125.467C1323.65 112.617 1324.45 100.249 1324.45 87.0979C1324.45 77.1795 1329.32 60.7257 1317.8 58.3164V58.3063Z" fill="#D8D3D3"/>
<path d="M1385.32 109.555C1388.47 113.089 1391.7 110.539 1391.74 110.418C1389.67 110.037 1380.94 106.513 1378.79 106.724L1371.8 107.848C1359.38 116.381 1373.06 146.127 1373.62 159.117C1374.17 171.716 1373.87 184.576 1374.36 197.325C1374.66 205.316 1374.5 218.537 1378.81 224.902C1384.6 215.214 1380.98 197.807 1381.01 186.583C1381.04 174.918 1381.41 163.032 1380.26 151.578C1379.44 143.537 1372.51 110.77 1385.33 109.545L1385.32 109.555Z" fill="#D8D3D3"/>
<path d="M700.03 295.475C693.866 287.906 691.928 291.54 683.616 292.705C675.575 293.839 674.962 287.625 667.965 284.774C659.191 281.19 656.059 286.019 651.873 292.052C649.825 283.75 646.512 289.101 641.603 290.546C638.26 291.53 638.491 288.739 634.907 291.189C634.265 291.63 633.231 295.907 632.528 297.001C621.495 288.468 615.351 300.053 615.743 311.136L707.247 313.355C706.324 307.392 704.075 300.445 700.03 295.475Z" fill="#3D7D40"/>
<path d="M1040.07 313.355C1040.07 301.739 1039.84 291.841 1052.04 289.522C1056.79 288.619 1053.91 292.494 1057.77 288.227C1059.14 286.711 1058.5 283.147 1060.17 281.792C1064.05 278.63 1070.93 281.632 1074 284.663C1078.98 279.272 1078.58 267.778 1085.05 261.714C1091.15 256.012 1096.11 259.154 1102.8 261.514C1119.23 267.306 1117.29 252.418 1123.28 242.329C1127.21 235.714 1131.35 236.015 1137.49 236.607C1141.6 237.009 1139.91 239.94 1143.94 236.607C1146.07 234.85 1145.61 230.072 1147.24 227.923C1157.19 214.833 1163.15 237.099 1168.48 242.56C1169.31 243.413 1169.65 245.04 1170.08 246.134C1174.79 243.132 1178.47 237.932 1184.87 240.843C1189.62 243.012 1192.57 249.768 1194.45 254.215C1200.61 251.575 1204.37 251.846 1209.06 257.448C1214.16 263.531 1212.12 267.346 1219.96 267.427C1226.47 267.497 1231.28 264.756 1237.3 270.358C1242.12 274.845 1241.71 280.096 1242.26 286.059C1243.66 300.956 1255.69 296.308 1266.02 302.091C1269.68 304.139 1270.27 305.996 1274.73 305.865C1277.73 305.785 1279.82 301.83 1284.33 303.004C1288.97 304.209 1291.63 308.978 1293.94 312.692C1293.93 313.244 1293.91 313.214 1293.9 312.622L1040.05 313.355H1040.07Z" fill="#3D7D40"/>
<path d="M1526.5 213.598C1525.09 209.703 1524.28 199.483 1519.75 197.435C1514.46 195.046 1509.02 203.529 1506.47 207.173C1500.89 201.902 1485.43 208.528 1484.18 215.806C1477.37 214.531 1474.31 221.8 1472.3 227C1468.82 236.025 1469.14 234.519 1460.14 233.465C1453.23 232.652 1448.52 234.649 1444.65 241.185C1441.7 246.154 1442.67 253.784 1437.81 257.327C1428.82 252.629 1423.96 255.099 1421.45 265.258C1417.82 265.007 1412.24 267.778 1409.95 270.719C1408.51 272.586 1409.76 274.765 1408.51 276.622C1407.43 278.218 1404.72 278.58 1404.04 280.316C1400.28 289.924 1415.85 286.039 1423.04 286.039L1434.11 277.917C1437.56 276.441 1443.09 277.445 1447.4 277.184C1455.89 276.672 1452.48 273.721 1457.76 269.956C1460.29 268.149 1466.83 268.551 1469.72 267.778C1471.63 267.266 1473.03 265.931 1475.44 265.379C1477.8 264.846 1480.48 265.921 1482.82 265.208C1491.88 262.477 1493.04 249.015 1496.67 241.024C1499.9 233.886 1509.5 223.115 1516.04 234.137C1517.85 229.349 1531.92 228.706 1535.97 230.764C1542.2 224.56 1534.95 211.57 1526.5 213.588V213.598Z" fill="#3D7D40"/>
<path d="M1040.1 210.737C1038.46 207.384 1030.39 205.396 1026.74 206.992C1022.28 197.204 1021.05 189.535 1009.6 185.138C1002.77 182.507 1002.74 185.278 997.071 186.985C992.905 188.24 989.431 185.338 985.245 186.965C980.386 188.852 980.316 196.492 977.144 199.523C972.506 203.971 969.464 202.395 963.29 201.16C952.568 199.021 944.748 204.061 945.481 216.569C944.065 216.248 941.947 217.122 940.552 216.81C934.759 226.307 957.879 223.627 959.606 221.107L963.3 221.84C977.505 220.314 994.17 235.985 1004.65 243.333C1011.91 232.15 1018.13 226.297 1031.19 221.268C1035.56 219.591 1043.84 218.427 1040.09 210.737H1040.1Z" fill="#3D7D40"/>
<path d="M1015.54 303.928C1013.15 299.892 1008.69 296.63 1005.19 293.638C1001.42 290.395 996.649 287.304 993.567 283.268C989.271 277.646 991.499 277.506 991.349 270.559C991.158 261.283 985.948 252.539 978.78 246.927C975.738 244.548 968.119 242.359 966.944 238.826C965.398 234.178 970.779 229.56 973.55 226.819C967.888 219.591 955.49 223.024 947.077 222.593C937.309 222.091 930.884 225.002 922.763 231.598C914.41 238.374 906.108 242.751 899.643 251.394C893.881 259.104 878.702 304.109 872.639 311.698L1018.65 314.107C1017.61 312.561 1017.28 306.879 1015.54 303.938V303.928Z" fill="#D8D3D3"/>
<path d="M931.617 311.969C931.025 308.536 930.523 304.781 928.505 301.679C924.6 301.529 919.44 300.264 916.047 297.865C910.686 294.08 912.322 293.217 911.66 286.792C910.505 275.729 903.508 271.121 893.951 267.607C880.348 262.608 887.235 248.453 879.194 237.33C870.048 224.681 859.056 245.381 857.058 224.801C856.375 217.814 855.161 212.634 850.944 207.113C845.855 200.437 840.464 203.981 836.187 198.238C831.891 192.466 833.698 185.017 824.582 184.214C816.722 183.521 817.314 189.685 812.756 193.912C805.629 181.734 790.199 190.077 786.766 201.18C785.36 205.717 786.987 212.363 783.463 216.138C779.568 220.304 775.281 218.356 769.981 218.888C763.365 219.551 762.261 220.956 757.251 218.336C753.075 216.148 751.409 213.046 745.626 212.986C732.626 212.845 731.401 222.914 727.195 232.1C722.968 228.205 719.947 218.497 712.598 226.418C707.99 231.387 712.227 242.359 707.388 245.361C704.527 239.98 700.752 235.704 696.907 243.946C694.458 249.196 697.369 256.293 697.65 261.694C698.293 274.394 761.849 262.437 772.922 312.612L930.844 311.136C931.045 311.387 931.697 312.963 931.617 311.959V311.969Z" fill="#3D7D40"/>
</g>
<g clip-path="url(#clip2_0_1)">
<path d="M3.75234 373.188C3.75234 373.188 133.005 352.437 145.54 195.753C145.54 195.753 35.4574 233.36 3.75234 373.188Z" fill="#374F3F"/>
<path d="M145.543 195.765L3.75224 373.188" stroke="#192D1F" stroke-width="1.28878" stroke-miterlimit="10"/>
<path d="M119.385 262.21L74.6517 284.469L86.3573 239.977" stroke="#192D1F" stroke-width="1.28878" stroke-miterlimit="10"/>
<path d="M81.5657 308.443L36.8354 330.714L48.541 286.222" stroke="#192D1F" stroke-width="1.28878" stroke-miterlimit="10"/>
<path d="M8.48386 378.887C7.67332 379.192 6.85422 379.512 6.04683 379.829L6.04998 379.841C6.64042 380.45 27.8013 402.53 64.8321 417.001C105.642 432.911 165.727 439.57 238.815 397.994L238.809 397.971C238.013 397.392 206.361 373.961 153.845 364.129C153.039 363.981 152.232 363.832 151.417 363.699C113.222 356.933 64.3454 357.494 8.49559 378.884L8.48386 378.887Z" fill="#5C893F"/>
<g style="mix-blend-mode:multiply" opacity="0.32">
<path d="M8.48386 378.887C15.5031 385.43 35.4302 402.296 65.7879 414.142C75.4001 408.787 85.0069 403.459 94.6277 398.09C96.1304 397.273 97.6268 396.432 99.1232 395.591C105.465 392.055 111.799 388.535 118.101 384.898C120.614 383.445 123.133 381.965 125.62 380.456C133.147 375.95 140.552 371.224 147.704 366.114C148.452 365.574 149.798 364.736 151.414 363.687C113.218 356.921 64.3423 357.482 8.49245 378.872L8.48386 378.887Z" fill="#527F34"/>
</g>
<path d="M6.03521 379.832L6.05007 379.841L62.6933 384.253L115.975 388.41L122.418 388.909L238.797 397.974L238.815 397.994" stroke="#355722" stroke-width="1.28878" stroke-miterlimit="10"/>
<path d="M167.24 414.117L122.43 388.906L166.991 373.181" stroke="#355722" stroke-width="1.28878" stroke-miterlimit="10"/>
<path d="M106.076 408.64L61.2572 383.443L105.827 367.704" stroke="#355722" stroke-width="1.28878" stroke-miterlimit="10"/>
<path d="M-0.995547 395.384C-0.995547 395.384 126.753 424.035 196.442 283.195C196.442 283.195 80.2579 277.296 -0.995547 395.384Z" fill="#659549"/>
<path d="M196.443 283.195L-0.995401 395.384" stroke="#355722" stroke-width="1.28878" stroke-miterlimit="10"/>
<path d="M147.525 335.193L97.7219 339.283L125.091 302.313" stroke="#355722" stroke-width="1.28878" stroke-miterlimit="10"/>
<path d="M95.2625 364.109L45.4596 368.199L72.8259 331.218" stroke="#355722" stroke-width="1.28878" stroke-miterlimit="10"/>
<path d="M12.8586 360.74C12.8586 360.74 104.428 267.174 21.39 133.722C21.39 133.722 -44.756 229.441 12.8586 360.74Z" fill="#77AD55"/>
<path d="M21.3986 133.707L12.8586 360.74" stroke="#355722" stroke-width="1.28878" stroke-miterlimit="10"/>
<path d="M39.8618 202.706L17.1286 247.223L0.105283 204.469" stroke="#355722" stroke-width="1.28878" stroke-miterlimit="10"/>
<path d="M36.9386 262.385L14.2054 306.902L-2.82964 264.152" stroke="#355722" stroke-width="1.28878" stroke-miterlimit="10"/>
<path d="M-18.081 390.343C-18.081 390.343 24.1382 514.324 180.627 500.383C180.627 500.383 125.039 398.127 -18.081 390.343Z" fill="#77AD55"/>
<path d="M180.627 500.383L-18.081 390.343" stroke="#C2C155" stroke-width="1.28878" stroke-miterlimit="10"/>
<path d="M110.751 485.748L81.279 445.361L127.089 449.445" stroke="#C2C155" stroke-width="1.28878" stroke-miterlimit="10"/>
<path d="M58.8117 456.209L29.343 415.835L75.1646 419.915" stroke="#C2C155" stroke-width="1.28878" stroke-miterlimit="10"/>
</g>
<g clip-path="url(#clip3_0_1)">
<path d="M1452.56 383.076C1452.56 383.076 1322.34 369.667 1269.68 517.768C1269.68 517.768 1385.74 509.934 1452.56 383.076Z" fill="#374F3F"/>
<path d="M1269.68 517.756L1452.56 383.076" stroke="#192D1F" stroke-width="1.28878" stroke-miterlimit="10"/>
<path d="M1312.14 460.345L1361.11 450.422L1338.29 490.368" stroke="#192D1F" stroke-width="1.28878" stroke-miterlimit="10"/>
<path d="M1360.64 425.475L1409.61 415.541L1386.79 455.487" stroke="#192D1F" stroke-width="1.28878" stroke-miterlimit="10"/>
<path d="M1449.46 376.347C1450.32 376.262 1451.2 376.165 1452.06 376.068L1452.06 376.056C1451.65 375.315 1436.92 348.51 1404.9 324.948C1369.6 299.018 1313.28 277.034 1231.92 298.277L1231.92 298.301C1232.54 299.066 1257.05 329.891 1305.23 352.98C1305.98 353.332 1306.72 353.684 1307.47 354.024C1342.61 370.445 1389.97 382.554 1449.45 376.347L1449.46 376.347Z" fill="#5C893F"/>
<g style="mix-blend-mode:multiply" opacity="0.32">
<path d="M1449.46 376.347C1444.38 368.21 1429.49 346.761 1403.24 327.462C1392.57 330.146 1381.91 332.806 1371.22 335.502C1369.56 335.903 1367.9 336.328 1366.23 336.753C1359.19 338.527 1352.17 340.288 1345.14 342.17C1342.33 342.923 1339.52 343.701 1336.72 344.514C1328.29 346.919 1319.91 349.567 1311.68 352.652C1310.82 352.98 1309.3 353.441 1307.47 354.036C1342.61 370.457 1389.97 382.566 1449.45 376.359L1449.46 376.347Z" fill="#527F34"/>
</g>
<path d="M1452.07 376.068L1452.06 376.056L1398.49 357.133L1348.1 339.328L1342 337.179L1231.94 298.301L1231.92 298.277" stroke="#355722" stroke-width="1.28878" stroke-miterlimit="10"/>
<path d="M1305.23 301.228L1341.99 337.179L1294.88 340.834" stroke="#355722" stroke-width="1.28878" stroke-miterlimit="10"/>
<path d="M1362.9 322.349L1399.67 358.287L1352.54 361.955" stroke="#355722" stroke-width="1.28878" stroke-miterlimit="10"/>
<path d="M1462.89 362.866C1462.89 362.866 1346.91 302.127 1243.14 420.131C1243.14 420.131 1353.84 455.9 1462.89 362.866Z" fill="#659549"/>
<path d="M1243.14 420.132L1462.89 362.866" stroke="#355722" stroke-width="1.28878" stroke-miterlimit="10"/>
<path d="M1303.85 382.566L1353.02 391.505L1317.01 420.132" stroke="#355722" stroke-width="1.28878" stroke-miterlimit="10"/>
<path d="M1361.82 368.161L1410.98 377.1L1374.98 405.739" stroke="#355722" stroke-width="1.28878" stroke-miterlimit="10"/>
<path d="M1440.54 392.744C1440.54 392.744 1327.87 459.422 1373.54 609.818C1373.54 609.818 1462.21 534.48 1440.54 392.744Z" fill="#77AD55"/>
<path d="M1373.53 609.83L1440.54 392.744" stroke="#355722" stroke-width="1.28878" stroke-miterlimit="10"/>
<path d="M1391.82 481.514L1425.3 444.398L1430.69 490.101" stroke="#355722" stroke-width="1.28878" stroke-miterlimit="10"/>
<path d="M1478.09 372.157C1478.09 372.157 1469.4 241.473 1314.63 214.437C1314.63 214.437 1341.86 327.596 1478.09 372.157Z" fill="#77AD55"/>
<path d="M1314.63 214.437L1478.09 372.157" stroke="#C2C155" stroke-width="1.28878" stroke-miterlimit="10"/>
<path d="M1378.34 246.659L1396.35 293.297L1353.16 277.496" stroke="#C2C155" stroke-width="1.28878" stroke-miterlimit="10"/>
<path d="M1420.86 288.633L1438.88 335.259L1395.67 319.458" stroke="#C2C155" stroke-width="1.28878" stroke-miterlimit="10"/>
</g>
<defs>
<clipPath id="clip0_0_1">
<rect width="1129.97" height="398.48" fill="white" transform="translate(-17 56.0005)"/>
</clipPath>
<clipPath id="clip1_0_1">
<rect width="1014" height="309.294" fill="white" transform="translate(615)"/>
</clipPath>
<clipPath id="clip2_0_1">
<rect width="396" height="247" fill="white" transform="matrix(-0.258819 -0.965926 -0.965926 0.258819 261.038 479.289)"/>
</clipPath>
<clipPath id="clip3_0_1">
<rect width="396" height="247" fill="white" transform="matrix(-4.37114e-08 1 1 4.37114e-08 1231.5 214)"/>
</clipPath>
</defs>
</svg>
