<svg width="1440" height="483" viewBox="0 0 1440 483" fill="none" xmlns="http://www.w3.org/2000/svg">
<g clip-path="url(#clip0_20_3193)">
<path d="M1112.97 134.695C950.182 86.625 723.427 44.8052 470.919 20.5768C292.707 3.45799 125.428 -2.62059 -17 1.00938V310.566C115.848 338.467 270.691 361.987 436.617 377.924C701.432 403.334 942.149 404.387 1112.97 385.506V134.695Z" fill="#9DCA55"/>
</g>
<path d="M1440 75.4634C1389.32 80.1052 1337.5 85.7216 1284.82 92.3125C717.025 163.556 264.299 323.891 273.585 450.478C282.87 577.038 750.703 621.918 1318.47 550.674C1359.61 545.52 1400.17 539.878 1440 533.825V75.4634Z" fill="#3D7D40"/>
<path d="M278.971 168.48C182.45 156.349 88.8521 147.655 0 142.193V582.039C78.5408 596.323 160.878 609.018 245.831 619.686C804.748 689.801 1265.25 645.64 1274.4 521.054C1283.56 396.442 837.888 238.594 278.971 168.48Z" fill="#146841"/>
<defs>
<clipPath id="clip0_20_3193">
<rect width="1129.97" height="398.48" fill="white" transform="translate(-17)"/>
</clipPath>
</defs>
</svg>
