<svg width="196" height="270" viewBox="0 0 196 270" fill="none" xmlns="http://www.w3.org/2000/svg">
<g clip-path="url(#clip0_24_6424)">
<path d="M189.538 30.6306C187.592 24.1682 183.603 17.376 178.327 12.9743C177.651 11.9192 161.396 12.0181 159.171 12.0841C152.939 12.3149 146.773 13.0897 140.838 14.3756C140.707 14.4086 140.608 14.4745 140.525 14.5899C139.124 14.5405 131.128 21.5964 127.584 30.9439C127.584 30.9439 127.567 30.9439 127.551 30.9439C127.188 30.9439 126.941 31.1747 126.924 31.4879C126.891 32.4441 126.793 33.4002 126.694 34.3894C126.595 35.3126 126.512 36.2853 126.479 37.225C126.446 38.2471 126.479 39.1703 126.611 40.0275C126.611 40.11 126.628 40.1759 126.644 40.2583C126.644 40.2583 118.846 63.2231 105.311 72.0265C105.163 71.9606 104.932 71.9771 104.784 72.0925C98.0412 77.0217 89.1224 73.873 74.1533 106.68C72.8839 109.449 71.6639 112.433 70.4275 115.78C64.2783 132.431 60.4865 153.45 61.5581 172.194C60.3216 173.233 56.8267 174.338 53.1338 183.57C52.326 185.597 51.716 187.609 51.2874 189.538C48.0562 204.391 58.9533 216.311 69.5537 231.626C78.9836 245.309 90.2105 261.597 105.971 265.339C107.042 265.587 108.427 265.933 109.779 266.378C112.236 288.485 102.229 321.474 66.6687 306.686C46.0449 297.965 42.8632 285.947 35.3291 274.67C29.3283 265.702 15.3153 257.426 6.49543 260.262C6.14922 259.932 2.06074 261.515 0.593499 264.004C-0.774824 266.378 0.412155 268.884 2.12668 271.027C2.6872 271.736 3.3796 272.461 4.30281 273.318C16.0242 284.249 18.2828 277.786 27.9435 299.811C29.5756 303.537 31.6528 308.499 34.5708 312.72C57.3377 345.428 140.443 347.455 132.859 266.971C133.766 267.021 133.486 266.922 134.623 267.186C134.887 267.763 138.761 269.279 139.355 269.51C143.46 271.076 149.015 272.428 153.186 270.829C153.285 271.027 153.549 271.208 153.895 271.208C155.346 271.208 158.989 269.708 173.167 271.538C177.355 272.099 180.19 273.302 183.685 273.302C186.9 273.302 187.691 271.736 186.834 269.774C188.862 269.807 191.17 267.466 188.268 264.63C190.213 263.048 190.296 260.707 187.263 258.827C182.399 255.844 167.908 253.618 162.254 252.876C162.27 252.843 179.943 216.591 180.784 214.662C184.015 207.326 186.141 201.176 187.444 195.275C188.994 188.235 189.323 181.377 188.449 174.882C187.988 171.502 187.246 168.93 186.092 166.754C185.086 164.842 183.636 163.276 181.938 162.253C178.014 159.912 173.019 160.638 168.617 161.858C166.837 153.335 165.534 144.234 165.221 135.464C165.221 135.464 165.221 135.464 165.221 135.48C165.221 135.382 165.221 135.266 165.221 135.266C165.056 128.688 165.27 121.088 166.87 114.362C167.001 113.868 167.216 113.208 167.1 112.747C177.107 94.9913 177.371 88.8091 179.086 65.7454C190.708 59.2335 189.125 42.451 190.098 31.2571C190.115 30.9439 189.851 30.6966 189.571 30.6471L189.538 30.6306Z" fill="#FF9800"/>
<path d="M172.738 58.5906C172.524 58.3763 172.194 58.3268 171.931 58.4752C170.727 57.3377 162.501 59.4973 158.132 65.7619C155.445 59.2335 140.641 55.3429 141.679 58.2279C139.503 63.3385 141.828 72.1749 148.389 72.109C148.603 79.7749 152.411 80.8794 159.55 80.8794C167.133 80.8794 168.024 78.5714 168.782 71.9606C169.722 72.4881 172.738 70.4604 173.25 66.2565C173.447 64.7233 173.316 59.1511 172.755 58.5906H172.738Z" fill="#FFDFBD"/>
<path d="M145.257 49.0453C145.718 49.0453 146.048 48.7486 146.097 48.4354C147.152 47.1165 147.565 44.0996 147.812 42.3521C147.845 42.0553 147.812 41.8081 147.565 41.6102C147.515 40.8024 147.565 39.8462 146.757 39.9452C146.361 39.0384 142.833 38.923 138.646 38.379C138.019 38.2966 137.31 37.9998 137.014 38.5439C136.816 38.6263 136.668 38.8406 136.668 39.0714C136.602 45.336 143.542 49.9685 145.273 49.0289L145.257 49.0453Z" fill="#FFDFBD"/>
<path d="M179.069 37.9668C178.509 36.5326 177.8 37.3404 175.805 38.1976C173.678 39.0714 171.403 39.7143 169.095 39.7143C168.37 39.7143 167.661 39.6484 167.694 39.6484C167.199 39.6484 166.919 40.1594 167.1 40.5551C167.067 40.621 167.051 40.7035 167.051 40.8024C167.166 43.1928 168.452 48.2045 170.035 47.7924C170.562 49.9685 176.778 46.4735 178.888 41.8575C179.399 40.7364 180.306 37.9668 179.053 37.9668H179.069Z" fill="#FFDFBD"/>
<path d="M139.915 16.4858C140.047 16.3704 140.113 16.2055 140.13 16.0077C142.454 14.6889 132.925 6.21513 124.221 0.659411C123.957 0.478067 123.545 0.54401 123.298 0.824269C121.863 1.08804 119.209 16.1561 125.358 21.2667C122.407 25.4046 124.188 31.2241 128.342 31.2241C128.672 31.2241 128.919 31.0098 129.002 30.7296C131.26 26.7565 133.832 22.8328 136.898 19.4862C137.871 18.4146 138.926 17.3925 139.899 16.4693L139.915 16.4858Z" fill="#FFDFBD"/>
<path d="M191.763 0.659386C191.252 -3.23127 179.91 11.2927 177.997 13.4029C177.866 13.5513 177.8 13.7491 177.816 13.947C177.75 14.1613 177.816 14.4251 177.981 14.6229C184.147 21.6953 186.422 25.9486 188.532 31.6857C188.697 32.1308 189.01 32.3287 189.373 32.3287C189.455 32.3287 189.521 32.3287 189.604 32.2957C191.087 32.6254 195.852 29.2623 192.307 22.569C195.456 18.0519 197.813 6.79211 191.763 0.675872V0.659386Z" fill="#FFDFBD"/>
<path d="M128.853 20.8875C128.82 21.2667 128.787 21.6129 128.837 21.9426C128.985 23.1131 130.304 23.9868 130.634 23.756C130.799 23.723 130.848 23.6901 130.914 23.6076C132.48 21.7447 133.42 21.1677 134.524 19.5686C134.64 19.4038 134.59 19.1565 134.409 19.0411C134.722 18.0849 129.48 12.1994 127.963 12.1994C127.551 12.1994 127.468 12.9083 127.402 13.3535C127.353 13.6997 127.353 14.0294 127.353 14.3261C127.435 16.7495 129.068 18.3157 128.853 20.871V20.8875Z" fill="#CC7900"/>
<path d="M189.208 14.7713C189.274 14.1283 189.158 12.9578 188.895 12.2819C188.796 11.9852 188.713 11.8698 188.581 11.7049C188.449 11.5236 188.169 11.3422 187.889 11.3422C187.658 11.3422 187.576 11.3752 187.46 11.4246C186.949 11.6225 186.471 12.216 186.141 12.6446C185.416 13.5843 184.625 15.0185 184.031 16.0407C183.784 16.4858 183.537 16.9474 183.256 17.3925C183.174 17.5409 183.207 17.7387 183.355 17.8376C183.306 17.8706 183.289 17.9365 183.273 18.019C183.273 18.2003 184.641 19.9313 184.757 20.0962C185.4 21.0029 185.894 21.8437 186.273 22.7009C186.389 22.9647 186.801 22.9977 186.982 22.7834H187.164C187.361 22.7504 187.543 22.7009 187.724 22.635C188.351 22.3877 188.713 22.0085 188.878 21.6129C189.208 20.904 189.01 20.2446 188.73 19.5027C188.466 18.7938 188.433 18.6454 188.548 17.8541C188.779 16.6671 189.092 15.9418 189.208 14.7548V14.7713Z" fill="#CC7900"/>
<path d="M157.951 65.7125C157.786 65.7125 157.654 65.8444 157.637 66.0092C157.621 66.8995 157.621 67.8062 157.637 68.6964C157.588 68.6634 157.522 68.6305 157.456 68.6305C156.434 68.6305 151.785 70.8231 150.516 71.4825C150.169 71.6639 150.433 72.2244 150.812 72.0265C151.95 71.4331 153.104 70.9055 154.307 70.4439C155.379 70.0318 156.467 69.6691 157.555 69.3064C157.802 69.224 157.786 69.1415 157.802 68.9932C157.802 68.9932 157.835 68.9932 157.852 69.0096C158 69.1086 163.836 71.6144 164.05 71.7133C163.737 71.5649 165.567 72.4387 165.897 72.5871C166.095 72.7025 166.293 72.6365 166.391 72.4717C166.49 72.3068 166.457 72.0595 166.276 71.9771C163.671 70.6747 160.951 69.6526 158.297 68.4986C158.28 67.6578 158.28 66.8335 158.297 65.9927C158.297 65.8279 158.165 65.6795 158 65.6795L157.951 65.7125Z" fill="#CC7900"/>
<path d="M142.899 55.7386C142.553 55.9034 142.817 56.4804 143.196 56.2826C145.998 54.8648 147.136 52.3754 147.944 49.2102C148.059 48.7486 147.4 48.6002 147.301 49.0123C146.856 50.8093 146.279 52.5733 145.125 53.9911C144.96 54.1889 144.779 54.3867 144.597 54.5681C144.103 55.0461 143.509 55.4418 142.899 55.7386Z" fill="#CC7900"/>
<path d="M172.475 57.1233C172.755 57.4695 173.348 56.975 173.002 56.6288C170.876 54.4691 169.392 51.9798 169.062 49.0123C169.046 48.6661 168.419 48.6661 168.469 49.1607C168.864 52.837 170.694 54.8813 172.475 57.1233Z" fill="#CC7900"/>
<path d="M176.299 41.2805C176.778 39.3846 169.738 41.7751 169.804 42.5499C169.656 42.6488 169.59 42.7477 169.606 42.8301C170.084 47.4627 176.777 45.5503 176.316 41.297L176.299 41.2805Z" fill="#CC7900"/>
<path d="M140.36 40.9013C140.195 40.9013 140.113 40.9837 140.064 41.1156C138.382 45.0722 143.212 47.4791 145.092 44.9073C145.339 44.5941 145.784 43.506 145.537 43.2258C145.537 42.8796 144.762 42.352 144.482 42.1542C143.723 41.6267 142.817 41.3299 141.926 41.1321C141.465 41.0332 140.805 40.9507 140.377 40.9013H140.36Z" fill="#CC7900"/>
<path d="M7.35268 266.971C7.31971 267.417 7.30322 267.862 7.30322 268.307C7.33619 271.522 11.3258 271.01 11.4247 268.752C11.4412 268.307 11.4741 267.862 11.5071 267.417C11.7544 264.565 7.567 264.35 7.35268 266.971Z" fill="#CC7900"/>
<path d="M21.6789 267.384C19.2884 265.504 19.6017 264.169 17.8706 264.169C16.1726 264.169 13.6503 266.328 19.2884 270.697C21.2338 272.214 23.9539 269.213 21.6624 267.367L21.6789 267.384Z" fill="#CC7900"/>
<path d="M26.4433 277.786C26.196 276.995 26.4762 278.446 27.4654 279.154C29.8229 280.836 32.6914 278.462 32.1309 276.253C31.9495 275.528 31.7352 274.802 31.422 274.11C28.7678 268.224 23.4428 272.197 25.4706 275.659C25.2233 275.264 25.9322 276.253 26.4268 277.786H26.4433Z" fill="#CC7900"/>
<path d="M122.819 276.302C124.204 275.66 124.666 273.945 124.056 272.923C123.232 271.522 121.929 269.56 120.33 269.56C118.072 269.56 117.115 272.28 118.401 273.648C119.044 274.324 119.258 274.703 119.44 275.066C120.083 276.286 121.501 276.912 122.819 276.319V276.302Z" fill="#CC7900"/>
<path d="M158.297 167.677C165.204 164.891 168.98 164.908 167.974 162.732C167.776 162.286 167.315 161.957 166.787 161.957C166.21 161.957 158.462 165.073 157.918 165.303C157.984 162.649 149.279 143.971 155.264 132.645C157.934 127.831 162.089 123.924 164.248 118.813C164.529 118.121 164.017 117.28 163.21 117.28C162.171 117.28 162.089 118.269 161.347 119.654C156.335 128.688 149.741 130.716 150.68 144.828C151.142 151.554 153.45 159.072 155.511 165.468C155.511 165.518 155.511 165.485 155.544 165.551C155.56 165.633 155.577 165.633 155.544 165.551C155.643 165.831 155.742 166.045 156.005 166.243C156.203 166.391 156.434 166.441 156.665 166.441C156.533 167.447 157.489 167.991 158.313 167.661L158.297 167.677Z" fill="#CC7900"/>
<path d="M67.526 173.794C71.9771 173.744 76.1316 176.448 79.3298 179.564C80.6816 180.899 82.3467 178.987 81.2916 177.931C79.0331 175.706 76.4613 173.794 73.4938 172.607C70.2461 171.304 67.2127 171.271 64.2288 172.227C63.7672 172.376 63.421 173.085 63.7012 173.662C64.2288 174.783 65.185 173.925 67.5424 173.794H67.526Z" fill="#CC7900"/>
<path d="M135.629 59.5797C136.569 60.5689 137.904 59.2006 137.08 58.3763C134.129 55.3923 132.299 52.3919 130.601 48.5837C128.144 43.0939 128.491 42.3356 127.205 42.3356C126.38 42.3356 125.721 43.1269 126.1 44.0831C128.293 49.7212 131.491 55.2275 135.645 59.5632L135.629 59.5797Z" fill="#CC7900"/>
<path d="M139.767 55.821C142.586 53.6119 140.805 51.5841 139.256 51.5841C138.349 51.5841 137.887 52.1117 137.162 52.6722C135.134 54.2219 137.525 57.585 139.783 55.821H139.767Z" fill="#CC7900"/>
<path d="M134.145 50.4466C133.749 50.8917 133.486 51.0895 133.601 51.7654C133.717 52.4578 134.376 52.9359 135.085 52.8205C135.596 52.7381 135.893 52.3424 136.255 51.9303C137.244 50.8257 135.464 48.9793 134.162 50.4301L134.145 50.4466Z" fill="#CC7900"/>
<path d="M133.09 49.2761C136.602 49.2761 136.107 44.7425 133.568 44.7425C130.057 44.7425 130.551 49.2761 133.09 49.2761Z" fill="#CC7900"/>
<path d="M131.062 41.4453C131.92 41.1486 132.694 40.7859 132.282 39.8791C132.068 39.4011 131.491 39.2032 131.013 39.4175C130.766 39.5329 130.518 39.6319 130.254 39.7143C129.183 40.1099 129.727 41.9234 131.046 41.4453H131.062Z" fill="#CC7900"/>
<path d="M132.546 35.6423C133.123 34.785 132.315 33.7629 131.507 33.9772C130.436 34.274 129.298 34.3399 129.48 35.4939C129.579 36.038 130.139 36.4996 130.7 36.3677C131.227 36.2358 132.233 36.0709 132.53 35.6588L132.546 35.6423Z" fill="#CC7900"/>
<path d="M176.316 54.4527C176.596 55.6396 176.695 56.8101 177.899 56.6123C179.135 56.4145 178.838 55.2605 178.574 54.09C178.179 52.4579 176.003 53.1668 176.316 54.4527Z" fill="#CC7900"/>
<path d="M177.157 48.3199C175.953 49.3091 177.223 50.4961 178.03 51.7325C177.866 51.4522 178.162 52.1117 178.706 52.326C179.91 52.7711 180.932 51.4522 180.404 50.5125C180.009 49.8201 179.58 49.1442 179.102 48.5013C178.657 47.9078 177.717 47.8583 177.173 48.3199H177.157Z" fill="#CC7900"/>
<path d="M179.267 58.5247C179.316 59.5468 180.767 60.2227 181.707 59.4314C181.971 59.2171 182.251 58.805 182.234 58.4423C182.218 56.7607 182.152 54.8154 180.338 55.1121C178.624 55.4089 179.184 57.2058 179.25 58.5247H179.267Z" fill="#CC7900"/>
<path d="M184.031 45.4679C185.02 45.0228 184.196 43.9677 183.652 43.0115C183.075 41.9894 181.74 42.8301 182.218 43.6709C182.745 44.5941 183.108 45.8965 184.048 45.4679H184.031Z" fill="#CC7900"/>
<path d="M183.784 34.7026C182.894 35.1148 182.614 36.2193 182.993 36.8458C183.883 38.2965 184.542 39.8297 186.059 39.1208C186.933 38.7252 187.23 37.6041 186.85 36.9942C186.043 35.7083 185.35 33.9937 183.784 34.7026Z" fill="#CC7900"/>
<path d="M184.427 47.9902C183.454 47.9902 182.613 48.9464 182.844 49.8696C183.009 50.5126 183.207 51.139 183.454 51.7655C184.064 53.3646 187.065 52.8041 186.323 50.4466C185.911 49.2102 185.96 48.0067 184.443 48.0067L184.427 47.9902Z" fill="#CC7900"/>
<path d="M140.838 29.3118C140.014 29.4601 139.223 29.7734 138.432 30.0701C137.591 30.3998 137.261 31.4879 137.624 32.2627C138.349 33.8289 140.047 33.0376 141.795 32.3946C143.443 31.7846 142.784 28.9491 140.838 29.2953V29.3118Z" fill="#CC7900"/>
<path d="M139.404 26.3938C140.014 26.2454 140.624 26.163 141.251 26.1135C142.421 26.0311 143.179 24.4155 142.273 23.3439C141.679 22.635 140.937 22.7504 141.135 22.7504C139.239 22.7999 137.08 23.0471 137.409 24.976C137.558 25.8497 138.464 26.6081 139.388 26.3938H139.404Z" fill="#CC7900"/>
<path d="M173.827 30.0866C175.591 30.6306 176.365 32.0484 177.684 30.9439C180.24 28.8337 173.958 25.009 172.854 27.894C172.541 28.7018 172.953 29.8063 173.843 30.0866H173.827Z" fill="#CC7900"/>
<path d="M174.371 25.8003C174.667 25.8992 174.964 25.9981 175.244 26.1465C176.233 26.7565 176.464 27.3829 177.602 27.2016C178.624 27.0202 179.283 26.0641 179.119 25.0749C178.871 23.5252 174.371 20.6567 173.299 23.4098C172.953 24.3166 173.398 25.5035 174.371 25.8003Z" fill="#CC7900"/>
<path d="M151.686 35.4445C150.994 35.0818 150.318 34.7026 149.642 34.2905C147.812 33.1694 146.526 35.7577 147.96 36.6479C148.999 37.2909 150.054 37.9009 151.159 38.4449C152.23 38.9889 153.582 37.703 153.005 36.4666C152.758 35.9226 152.23 35.7412 151.686 35.4445Z" fill="#CC7900"/>
<path d="M161.742 36.615C160.885 37.159 161.198 38.8076 162.451 38.923C162.929 38.9725 163.226 38.7581 163.622 38.4944C164.232 38.1317 164.875 37.802 165.534 37.5382C166.738 37.0436 166.408 35.0818 165.023 35.0818C164.232 35.0818 162.402 36.1699 161.742 36.615Z" fill="#CC7900"/>
<path d="M153.763 33.664C154.093 33.8289 154.423 33.9937 154.752 34.1586C155.445 34.5377 156.137 35.0158 156.797 34.9169C157.637 34.7686 158.165 33.9772 158.033 33.2024C157.852 32.1308 156.912 31.8835 154.818 30.9109C153.302 30.202 151.785 32.6913 153.763 33.664Z" fill="#CC7900"/>
<path d="M163.836 30.3998C162.484 30.6965 160.671 30.8944 160.951 32.5594C161.083 33.3672 161.924 34.0432 162.748 33.8453C163.523 33.664 164.891 33.4002 165.336 32.8067C165.567 32.477 165.666 32.0649 165.6 31.6692C165.468 30.8614 164.644 30.2349 163.836 30.3998Z" fill="#CC7900"/>
<path d="M151.521 26.1795C148.603 25.1244 147.647 23.9044 146.74 25.1903C146.279 25.8333 146.526 26.74 147.037 27.0367C149.79 28.5534 151.686 29.4766 152.296 27.9105C152.56 27.2346 152.214 26.4268 151.521 26.1795Z" fill="#CC7900"/>
<path d="M159.814 27.2511C161.874 26.5257 164.281 25.7673 163.473 24.0363C163.127 23.2945 162.221 22.9647 161.479 23.2945C160.522 23.7396 159.533 24.1352 158.544 24.4979C157.769 24.7782 157.489 25.8168 157.802 26.5092C158.116 27.2016 158.857 27.5808 159.797 27.2511H159.814Z" fill="#CC7900"/>
<path d="M155.016 20.7721C155.461 20.1621 155.329 19.2884 154.703 18.8268C154.159 18.4476 153.384 18.6784 152.576 18.53C152.181 18.4146 151.801 18.1838 151.439 18.1838C150.862 18.1838 150.301 18.5795 150.087 19.107C149.213 21.3986 154.044 22.1075 155 20.7721H155.016Z" fill="#CC7900"/>
<path d="M145.735 19.0246C146.889 18.6949 148.043 18.4147 149.213 18.2003C150.697 17.9366 150.516 15.744 148.999 15.744C148.422 15.744 145.916 16.3704 145.323 16.5353C144.004 16.9309 144.02 18.2333 144.795 18.7938C145.042 18.9752 145.438 19.1071 145.735 19.0082V19.0246Z" fill="#CC7900"/>
<path d="M162.979 17.7223C164.891 17.5409 166.457 17.8047 166.622 16.1891C166.721 15.2659 165.946 14.5075 165.254 14.5075C164.314 14.5075 163.391 14.5735 162.468 14.6724C160.671 14.8537 160.72 17.9366 162.962 17.7223H162.979Z" fill="#CC7900"/>
<path d="M164.842 18.8597C163.094 18.8597 162.798 21.5305 164.71 21.7942C165.946 21.9756 167.562 22.2393 167.743 20.6237C167.826 19.8489 167.232 19.0246 166.424 18.9916C165.814 18.9587 164.842 18.8433 164.842 18.8433V18.8597Z" fill="#CC7900"/>
<path d="M123.001 65.5146C123.874 64.3936 124.732 63.2726 125.605 62.168C127.254 60.1073 123.973 57.2223 122.078 59.6457C121.204 60.7667 120.363 61.9042 119.605 63.0912C118.088 65.4322 121.286 67.6743 122.984 65.5146H123.001Z" fill="#CC7900"/>
<path d="M130.386 73.7246C130.716 73.263 131.046 72.7849 131.359 72.3068C132.447 70.6747 131.376 68.5151 129.397 68.5151C127.831 68.5151 127.353 69.6196 126.512 70.955C124.732 73.807 128.688 76.148 130.386 73.7246Z" fill="#CC7900"/>
<path d="M136.618 72.3233C135.513 72.3233 134.673 73.3454 134.854 74.4005C134.969 75.0599 135.052 76.082 135.035 75.9172C135.085 76.5436 135.035 76.9888 135.448 77.4998C135.744 77.8625 136.189 78.0933 136.651 78.1428C137.871 78.2582 138.827 77.2031 138.646 76.0326C138.547 74.2521 138.399 72.3233 136.602 72.3233H136.618Z" fill="#CC7900"/>
<path d="M138.679 82.561C138.91 83.0226 139.124 83.4842 139.322 83.9458C140.344 86.3857 145.421 85.6439 142.998 80.5663C141.597 77.6318 137.343 79.8574 138.679 82.561Z" fill="#CC7900"/>
<path d="M148.867 84.2755C148.356 85.8087 147.96 86.7154 148.306 87.4573C148.916 88.7761 150.812 88.5948 151.224 87.3584C151.752 85.8087 152.725 84.0117 150.961 83.3193C150.153 83.0226 149.131 83.4183 148.851 84.259L148.867 84.2755Z" fill="#CC7900"/>
<path d="M158.923 86.8308C158.693 86.2868 158.462 85.7592 158.214 85.2152C157.885 84.4569 156.945 84.1271 156.203 84.4733C154.604 85.2152 155.626 86.8473 156.203 88.0837C157.011 89.8477 159.731 88.6937 158.923 86.8308Z" fill="#CC7900"/>
<path d="M164.842 87.5397C165.254 88.5948 166.177 90.1115 167.315 90.2104C168.881 90.3918 169.837 88.5289 168.848 87.3419C167.76 86.0395 167.991 85.0339 166.441 85.0339C165.204 85.0339 164.364 86.2703 164.858 87.5397H164.842Z" fill="#CC7900"/>
<path d="M174.469 81.7367C174.387 81.1268 174.222 80.5168 174.156 79.9068C174.024 78.6869 172.722 77.8461 171.551 78.0439C168.353 78.5715 169.54 84.8031 172.656 84.292C173.876 84.0942 174.634 82.9402 174.486 81.7532L174.469 81.7367Z" fill="#CC7900"/>
<path d="M152.378 94.167C151.703 97.8763 153.813 100.531 156.154 99.426C158.528 98.3379 157.06 96.2442 157.324 94.6781C157.819 91.8425 153.038 90.5237 152.378 94.1505V94.167Z" fill="#CC7900"/>
<path d="M160.424 96.6728C160.555 97.2004 160.654 97.7444 160.786 98.272C161.759 102.229 167.018 100.86 166.441 97.3323C166.062 94.9748 165.122 93.013 162.765 93.3922C161.33 93.623 160.044 95.1561 160.424 96.6728Z" fill="#CC7900"/>
<path d="M134.871 98.5688C135.53 99.7557 136.041 101.025 136.832 102.13C137.821 103.531 140.558 103.449 141.349 101.388C141.613 100.679 141.531 100.02 141.284 99.3271C138.382 91.3315 133.403 95.931 134.871 98.5688Z" fill="#CC7900"/>
<path d="M124.814 89.8642C127.106 90.738 129.513 89.5345 130.452 87.3419C130.7 86.7649 130.881 86.1714 131.128 85.5944C132.645 83.105 131.837 80.6651 130.073 79.4122C124.171 75.1753 118.451 87.4243 124.798 89.8642H124.814Z" fill="#CC7900"/>
<path d="M115.895 79.3957C116.192 79.0001 116.39 78.7528 116.983 78.3242C117.33 78.1263 117.692 77.978 118.071 77.8461C119.143 77.4999 119.918 75.9008 119.291 74.5489C117.593 70.8561 110.933 75.3567 111.428 78.3571C111.79 80.5333 114.593 81.1762 115.895 79.3957Z" fill="#CC7900"/>
<path d="M97.3983 89.8642C97.9258 88.7102 98.1236 88.2322 98.9974 87.1441C99.3271 86.8309 99.6568 86.5671 100.036 86.3033C101.289 85.4131 101.338 83.4348 100.399 82.3302C97.7774 79.132 92.6174 84.2096 91.859 88.5454C91.3644 91.4304 95.8486 93.2603 97.3818 89.8642H97.3983Z" fill="#CC7900"/>
<path d="M111.807 102.459C112.252 102.229 112.664 101.965 113.076 101.685C113.422 101.454 114.197 100.662 114.708 99.7227C115.038 99.1457 115.302 98.6017 115.516 97.9917C117.181 93.1779 114.28 87.6716 110.175 89.5675C108.691 90.2434 107.801 91.9249 108.032 93.5076C107.273 94.3154 106.993 96.7223 107.075 97.9093C107.405 102.212 109.993 103.383 111.807 102.459Z" fill="#CC7900"/>
<path d="M95.3705 112.318C99.8876 111.197 101.19 104.52 100.168 102.278C99.5909 101.058 98.4204 100.333 97.118 100.333C95.964 100.333 94.9089 101.042 93.9032 101.685C91.9909 102.921 88.8586 107.982 90.095 110.686C91.0017 112.648 93.4087 113.472 95.387 112.318H95.3705Z" fill="#CC7900"/>
<path d="M82.0829 120.149C82.7259 118.583 84.2756 111.658 84.4074 110.785C84.6382 109.169 83.2369 107.471 81.3905 107.553C80.4014 107.158 79.2968 107.619 78.9506 108.262C76.824 112.202 75.7194 115.252 76.7745 119.621C77.4999 122.605 81.0773 122.605 82.0829 120.165V120.149Z" fill="#CC7900"/>
<path d="M77.3515 138.349C79.4781 135.349 77.9779 130.205 74.6972 129.842C72.5211 128.919 70.0318 130.782 70.6417 135.612C71.1693 139.684 75.0929 141.498 77.3515 138.349Z" fill="#CC7900"/>
<path d="M100.662 126.084C101.157 123.644 100.465 121.385 98.0742 120.215C97.7115 120.033 96.7883 119.835 96.3267 119.835C95.6178 119.835 94.8594 120.083 94.233 120.314C89.1718 122.078 87.6221 133.898 93.7878 133.486C97.7115 134.739 100.267 128.21 100.679 126.084H100.662Z" fill="#CC7900"/>
<path d="M117.676 100.366C114.642 103.152 114.774 108.229 116.736 109.894C119.819 115.434 128.82 106.746 124.6 100.629C123.99 99.7392 122.539 99.0138 121.072 99.0138C120.033 99.0138 118.632 99.5084 117.676 100.366ZM122.753 105.855C122.753 105.74 122.753 105.757 122.753 105.855V105.855Z" fill="#CC7900"/>
<path d="M112.813 117.115C111.774 115.351 110.125 115.17 108.905 115.895C107.817 116.209 107.026 117.346 107.257 118.5C107.356 119.044 107.422 119.588 107.537 120.132C107.669 120.808 107.916 121.418 108.246 122.012C109.927 125.061 114.939 123.462 112.829 117.115H112.813Z" fill="#CC7900"/>
<path d="M156.615 114.725C158.396 112.994 159.88 110.439 159.5 107.867C159.237 106.053 157.572 104.322 155.362 104.322C153.318 104.322 150.895 105.855 150.219 107.191C149.18 108.345 148.158 110.158 147.927 111.922C147.762 113.159 148.175 113.966 148.719 114.791C149.955 116.72 153.78 117.494 156.632 114.725H156.615Z" fill="#CC7900"/>
<path d="M134.871 118.632C137.508 119.638 139.388 115.912 139.635 112.961C139.783 111.296 138.217 109.449 136.156 109.829C132.15 107.735 131.722 117.429 134.854 118.632H134.871Z" fill="#CC7900"/>
<path d="M122.078 123.759C121.55 124.88 121.072 126.034 120.709 127.221C117.841 136.536 130.716 134.722 130.716 126.941C130.716 119.918 122.457 118.451 122.078 123.759Z" fill="#CC7900"/>
<path d="M146.971 132.826C146.872 130.551 145.57 128.639 143.328 128.639C141.316 128.639 139.025 130.518 140.459 133.98C138.629 140.097 147.317 140.245 146.971 132.826Z" fill="#CC7900"/>
<path d="M106.02 144.663C109.565 147.152 114.692 145.652 116.258 141.613C116.819 140.162 116.868 137.854 115.763 135.777C113.159 130.881 107.372 130.65 104.767 134.64C104.322 135.316 104.026 136.025 103.811 136.766C103.152 137.821 102.872 138.942 103.102 140.443C103.284 141.679 104.207 143.41 105.987 144.647L106.02 144.663Z" fill="#CC7900"/>
<path d="M86.2868 147.07C88.3311 149.84 91.2491 149.312 92.6009 147.087C95.4859 142.322 90.8369 135.728 85.1328 139.454C84.8196 139.75 84.5229 140.08 84.2261 140.393C81.7862 143.987 83.9623 146.658 86.2868 147.054V147.07Z" fill="#CC7900"/>
<path d="M73.807 162.352C75.8018 163.754 80.1211 163.259 79.61 156.17C79.5111 154.835 79.033 153.137 78.6704 152.329C75.8678 146.064 68.6799 146.641 69.1251 155.148C69.224 157.011 70.1802 162.55 73.807 162.352Z" fill="#CC7900"/>
<path d="M96.1618 170.035C98.305 169.936 100.382 169.342 102.476 168.98C103.696 168.765 104.537 167.793 104.668 166.622C105.097 165.204 105.278 163.704 105.46 162.254C106.911 150.087 98.6347 149.691 93.3262 155.049C87.7705 156.83 85.1658 170.546 96.1618 170.035ZM99.393 164.248C99.393 164.248 99.393 164.298 99.393 164.331C99.3601 164.331 99.3271 164.331 99.3106 164.347C99.3436 164.314 99.3765 164.281 99.393 164.248Z" fill="#CC7900"/>
<path d="M122.407 148.339C121.517 149.823 121.468 150.516 121.171 151.752C121.006 153.335 121.929 154.736 123.33 155.264C123.875 155.478 124.452 155.527 125.012 155.461C127.007 157.011 129.941 154.472 130.485 152.296C132.002 146.477 125.259 143.493 122.407 148.356V148.339Z" fill="#CC7900"/>
<path d="M121.616 174.371C126.545 175.788 129.463 167.974 127.023 162.567C124.402 156.648 118.187 157.192 116.357 162.237C114.494 167.348 118.896 173.777 121.616 174.371Z" fill="#CC7900"/>
<path d="M140.443 168.205C140.822 168.6 141.251 168.93 141.745 169.178C149.213 172.986 153.796 149.922 144.202 149.922C142.817 149.922 141.58 150.301 140.047 152.032C138.283 153.994 136.981 159.533 137.904 165.023C138.151 166.49 139.157 167.661 140.459 168.205H140.443Z" fill="#CC7900"/>
<path d="M95.931 176.2C94.6122 175.508 91.5623 175.706 90.4413 177.651C90.0126 178.377 89.6335 179.102 89.6005 179.959C88.3311 181.674 90.2269 186.554 93.3428 188.384C100.085 192.39 105.295 181.031 95.931 176.184V176.2ZM95.4859 183.355C95.4859 183.355 95.4365 183.372 95.42 183.388C95.453 183.388 95.4694 183.388 95.5024 183.372L95.4859 183.355Z" fill="#CC7900"/>
<path d="M113.357 181.954C112.813 182.482 112.334 183.075 112.054 183.8C111.576 185.037 109.004 187.889 110.241 191.433C110.537 192.258 111.213 193.098 111.972 193.527C113.455 194.351 114.379 194.335 115.599 194.219C117.016 194.088 119.522 192.967 120.94 190.115C123.281 185.416 118.104 177.305 113.34 181.954H113.357Z" fill="#CC7900"/>
<path d="M68.8283 185.119C69.834 183.059 68.3338 180.85 66.273 180.85C65.0366 180.85 60.7997 182.432 59.1512 184.971C56.3156 189.34 60.5524 194.582 65.3498 192.439C68.1524 191.17 69.0427 187.51 68.8119 185.136L68.8283 185.119Z" fill="#CC7900"/>
<path d="M78.0274 187.955C74.9776 188.581 74.4335 192.373 76.8405 193.857C77.1702 194.318 77.4834 194.797 77.8296 195.258C78.8352 196.593 81.2587 196.577 82.1489 195.11C84.4074 191.367 82.4786 187.065 78.0109 187.971L78.0274 187.955Z" fill="#CC7900"/>
<path d="M74.4335 205.793C70.1636 197.154 61.8878 201.44 63.7177 206.683C64.4266 221.471 79.3792 215.684 74.4335 205.793Z" fill="#CC7900"/>
<path d="M84.3415 212.947C89.0234 213.442 88.6608 204.226 83.8304 205.001C82.0499 205.298 80.6981 207.243 81.4235 209.139C81.9016 210.376 81.951 212.717 84.3415 212.947Z" fill="#CC7900"/>
<path d="M85.6274 236.028C87.243 235.467 89.2378 233.406 88.6608 229.433C88.3146 226.977 85.8417 223.053 82.9402 221.8C77.8296 219.591 73.263 225.79 77.335 229.367C78.7858 233.769 81.2751 237.544 85.6274 236.044V236.028Z" fill="#CC7900"/>
<path d="M106.02 212.074C106.828 210.837 107.174 209.469 107.158 208.084C107.042 199.643 98.3379 202.792 100.514 207.392C100.448 207.985 100.333 208.562 100.283 209.156C99.8052 213.904 104.091 215.091 106.02 212.074Z" fill="#CC7900"/>
<path d="M145.191 187.807C146.279 185.795 146.773 183.833 145.718 181.097C145.108 179.514 143.097 177.585 140.591 177.585C136.107 177.585 134.228 183.092 135.612 187.114C135.448 191.598 138.448 192.686 140.904 191.714C141.448 191.499 141.926 191.153 142.421 190.84C143.377 190.213 144.63 188.812 145.191 187.807Z" fill="#CC7900"/>
<path d="M162.83 172.277C160.935 172.277 160.011 173.2 158.973 174.436C158.462 174.898 158.083 175.525 158 176.25C157.967 176.662 158 177.074 158.149 177.453C157.819 177.997 157.555 178.426 157.654 179.069C157.852 180.256 158.907 180.668 160.11 180.569C161.281 180.487 162.253 180.009 163.226 179.349C166.54 177.074 166.672 172.293 162.83 172.293V172.277Z" fill="#CC7900"/>
<path d="M181.575 179.02C178.954 174.585 175.673 175.442 174.42 176.646C172.211 178.756 172.87 179.465 172.656 180.685C172.59 181.426 172.706 182.119 173.002 182.795C173.233 183.289 173.563 183.735 173.958 184.097C174.14 185.944 174.354 187.839 174.387 188.4C174.469 189.554 175.64 190.922 177.256 191.104C177.849 191.17 178.426 191.071 178.97 190.823C181.591 190.016 183.042 187.213 183.042 184.608C183.042 183.965 183.009 183.355 182.927 182.729C182.828 181.954 182.317 180.24 181.575 179.003V179.02Z" fill="#CC7900"/>
<path d="M161.034 192.34C159.616 192.34 158.231 193.494 158.247 195.275C158.247 195.324 158.247 195.39 158.247 195.439C157.703 196.066 157.637 196.692 157.72 197.467C157.72 198.011 157.72 198.572 157.802 199.116C158.066 201.177 160.984 201.836 162.122 200.121C163.028 198.753 163.572 197.006 163.77 195.374C163.952 193.84 162.715 192.34 161.05 192.34H161.034Z" fill="#CC7900"/>
<path d="M126.875 199.462C124.353 199.462 122.523 200.501 121.418 203.303C120.561 205.529 120.742 208.48 120.973 210.705C121.253 213.343 124.649 215.14 127.238 213.442C128.111 213.096 128.919 212.618 129.612 211.991C131.046 210.705 131.903 208.941 132.216 207.062C132.76 203.666 130.024 199.462 126.875 199.462Z" fill="#CC7900"/>
<path d="M107.372 225.345C105.987 222.427 103.267 222.905 102.163 224.438C101.965 224.718 101.8 225.065 101.685 225.444C101.174 226.07 101.025 226.944 101.388 227.719C101.948 228.922 102.443 230.109 103.333 231.115C104.652 232.599 107.438 232.5 107.9 229.235C108.229 228.675 108.444 227.9 108.262 227.29C107.999 226.35 107.982 226.251 107.372 225.345Z" fill="#CC7900"/>
<path d="M128.095 235.121C131.095 232.434 132.249 227.917 129.513 223.713C128.622 222.641 127.353 222.081 125.952 222.081C122.77 222.081 120.693 225.708 121.187 228.444C120.033 230.505 120.33 232.368 120.429 233.604C120.594 235.945 124.171 238.616 128.095 235.121Z" fill="#CC7900"/>
<path d="M152.098 221.537C152.659 220.185 152.955 218.717 153.137 217.283C153.335 215.536 153.236 213.722 152.923 211.991C152.593 210.194 151.9 208.43 150.466 207.243C149.757 206.666 148.949 206.436 148.076 206.254C147.878 206.221 147.647 206.188 147.416 206.188C146.213 206.188 145.075 206.617 144.202 207.359C143.212 208.414 143.097 208.513 142.602 209.766C141.185 213.36 142.421 221.141 143.921 224.735C145.817 229.285 153.664 227.389 152.098 221.537Z" fill="#CC7900"/>
<path d="M165.485 214.085C166.062 215.272 167.43 215.668 168.551 215.107C171.205 214.926 171.354 212.14 171.568 210.903C171.568 210.903 171.568 210.903 171.552 210.903C171.848 207.54 167.117 206.584 166.128 210.145C165.336 210.59 164.957 211.53 165.155 212.387C165.254 212.964 165.237 213.541 165.501 214.085H165.485Z" fill="#CC7900"/>
<path d="M151.637 248.227C152.741 247.634 153.467 246.925 154.274 245.968C155.296 244.765 156.78 241.666 157.258 238.616C157.604 236.423 155.758 234.362 153.631 234.132C151.439 233.901 149.362 235.549 149.147 237.759C149.098 238.237 149.015 238.764 148.883 239.242C143.229 245.804 148.504 249.925 151.637 248.227Z" fill="#CC7900"/>
<path d="M101.421 247.65C101.009 245.804 99.426 242.358 96.6399 242.358C93.0954 242.358 92.0238 247.502 95.5188 248.392C96.475 249.826 97.0685 250.205 98.3544 251.31C99.5908 252.365 102.196 251.096 101.421 247.65Z" fill="#CC7900"/>
<path d="M114.098 248.293C114.412 249.793 114.593 250.782 115.269 251.805C116.786 254.887 122.391 252.464 118.78 246.364C116.95 243.248 113.109 245.606 114.098 248.293Z" fill="#CC7900"/>
<path d="M127.139 255.382C125.589 258.663 126.545 260.888 132.002 259.965C134.92 259.487 138.811 256.338 137.887 251.409C136.667 245.161 126.776 244.913 127.139 255.382Z" fill="#CC7900"/>
<path d="M161.676 253.651C162.056 249.942 151.703 252.546 147.548 252.728C146.262 252.794 146.031 255.201 147.944 255.118C152.263 254.953 156.121 254.277 159.978 255.036C160.704 255.168 161.594 254.558 161.676 253.651Z" fill="#CC7900"/>
<path d="M151.01 262.998C150.4 264.598 149.889 266.197 151.488 266.856C152.51 267.268 153.582 266.642 153.78 265.9C153.928 265.372 154.093 264.861 154.291 264.35C155.181 262.059 151.801 260.921 150.994 262.998H151.01Z" fill="#CC7900"/>
<path d="M164.759 258.531C165.122 255.283 160.341 254.92 160.044 257.904C159.814 260.212 159.764 262.52 162.006 262.817C163.375 262.998 164.578 261.91 164.594 260.839C164.611 260.064 164.66 259.306 164.759 258.531Z" fill="#CC7900"/>
<path d="M169.903 263.196C168.65 259.751 161.495 261.712 166.144 268.109C167.892 270.483 172.013 268.538 170.81 265.339C170.529 264.614 170.167 263.922 169.903 263.196Z" fill="#CC7900"/>
<path d="M174.502 255.646C174.189 255.646 173.876 255.646 173.563 255.646C171.947 255.876 170.76 257.146 170.562 258.663C170.167 261.679 173.629 263.905 176.217 261.894C178.97 259.734 177.008 255.646 174.502 255.646Z" fill="#CC7900"/>
<path d="M160.654 156.879C160.11 157.308 159.599 157.753 159.088 158.214C158.149 159.088 158.824 161.001 160.374 160.935C161.182 160.885 162.056 159.863 162.715 159.286C163.243 158.808 163.226 157.885 162.863 157.341C162.319 156.516 161.215 156.434 160.654 156.879Z" fill="#CC7900"/>
<path d="M161.281 147.515C160.753 147.515 160.605 147.664 160.11 147.795C158.94 147.911 158.429 147.532 157.44 148.636C156.5 149.658 156.599 151.257 157.621 152.181C158.841 153.285 161.165 152.873 162.616 151.917C164.611 150.614 163.638 147.515 161.297 147.515H161.281Z" fill="#CC7900"/>
<path d="M162.715 140.41C162.352 140.212 161.99 140.08 161.627 139.899C160.407 139.289 158.874 139.734 158.231 140.97C157.621 142.124 158.05 143.806 159.303 144.366C162.056 145.603 163.605 144.68 163.968 143.08C164.215 142.025 163.688 140.921 162.732 140.41H162.715Z" fill="#CC7900"/>
<path d="M156.912 135.612C154.142 135.612 153.895 140.162 157.126 140.162C159.896 140.162 160.143 135.612 156.912 135.612Z" fill="#CC7900"/>
<path d="M152.626 59.926C152.411 59.7941 152.148 59.6457 151.917 59.6457C151.109 59.6457 150.928 60.7173 151.587 61.0305C153.45 61.9537 156.335 64.1134 157.258 65.9927C157.473 66.4049 158.198 66.4873 158.528 65.9927C159.154 66.0092 159.286 65.3498 159.632 64.8223C160.935 63.0912 163.078 61.7064 165.007 60.7338C165.221 60.6184 165.32 60.2722 165.155 60.0084C164.809 59.4644 164.067 60.0249 163.523 60.3711C163.44 60.2227 162.435 59.9095 162.27 59.8765C161.1 59.5633 159.731 59.6622 158.412 60.3381C157.522 59.7776 156.418 59.5303 155.346 59.5303C154.192 59.5303 152.824 59.8435 152.642 59.9424L152.626 59.926Z" fill="#4C3616"/>
<path d="M139.8 41.5772C139.272 44.8744 142.273 48.6991 145.026 45.979C145.042 46.5065 145.026 47.0176 145.619 46.9846C145.932 46.9681 146.163 46.7043 146.147 46.3911C146.097 45.5998 146.13 44.8085 145.998 44.0171C145.454 40.6376 142.141 40.753 139.998 40.3573C139.173 40.2089 138.943 41.4124 139.783 41.5608L139.8 41.5772ZM144.96 44.7096C144.713 44.759 144.366 45.2206 144.136 45.4349C142.042 47.0505 140.294 43.7534 140.641 41.7091C143.163 42.0388 144.746 42.1872 144.96 44.7096Z" fill="#4C3616"/>
<path d="M176.646 41.0497C176.761 40.7529 176.547 40.4232 176.135 40.5221C176.036 40.5221 175.953 40.5551 175.871 40.5716C175.904 40.5716 175.937 40.5716 175.986 40.5551C173.86 40.9508 171.947 41.0662 170.711 42.1872C169.211 43.5226 169.458 46.1108 170.282 46.0614C170.579 46.0614 170.859 45.7811 170.81 45.4184C173.711 47.8913 177.75 44.6106 176.646 41.0662V41.0497ZM171.007 44.215C171.007 44.215 170.876 44.1161 170.81 44.0996C171.123 42.2861 172.854 41.9399 175.426 41.4783C176.151 44.0501 173.217 46.5724 171.007 44.215Z" fill="#4C3616"/>
<path d="M20.3105 272.643C21.0359 273.318 22.1899 272.214 21.3491 271.423C20.5249 270.631 19.8654 270.071 19.2719 269.098C18.9092 268.521 18.7114 267.878 18.1014 267.878C17.4915 267.878 17.0463 268.472 17.4255 269.131C18.4476 270.961 18.8598 271.291 20.2941 272.643H20.3105Z" fill="#4C3616"/>
<path d="M153.384 264.251C153.384 264.251 153.368 264.218 153.351 264.218C153.021 263.378 153.054 262.603 152.131 262.603C151.505 262.603 151.06 263.196 151.241 263.872C151.604 265.109 151.719 265.636 152.955 266.23C154.456 266.955 158.264 265.883 157.192 264.301C156.286 262.998 154.686 265.405 153.368 264.251H153.384Z" fill="#4C3616"/>
<path d="M160.077 256.882C159.467 256.734 158.857 257.195 158.742 257.789C158.478 259.124 159.88 259.256 163.16 259.965C163.77 260.097 164.38 259.668 164.512 259.058C164.776 257.673 163.309 257.674 160.094 256.882H160.077Z" fill="#4C3616"/>
<path d="M168.106 264.944C166.721 265.422 166.902 264.136 165.666 264.136C164.364 264.136 163.622 266.164 166.441 267.186C167.842 267.697 170.084 267.087 169.573 265.636C169.359 265.043 168.699 264.729 168.106 264.944Z" fill="#4C3616"/>
<path d="M171.683 258.069C171.238 259.009 172.211 259.306 173.052 259.916C174.14 260.707 175.162 259.174 174.255 258.514C173.299 257.822 172.211 257.014 171.683 258.069Z" fill="#4C3616"/>
<path d="M128.491 256.19C127.534 254.755 129.018 250.321 127.534 250.041C127.304 249.991 127.04 250.041 126.842 250.189C126.38 250.502 126.446 250.964 126.43 251.557C126.034 254.657 125.985 259.124 129.018 258.366C130.271 258.053 132.018 256.157 132.958 255.25C133.337 254.887 133.321 254.129 132.843 253.717C131.59 252.629 130.222 255.464 128.507 256.206L128.491 256.19ZM128.425 256.223C128.425 256.223 128.375 256.19 128.359 256.173C128.375 256.173 128.408 256.206 128.425 256.223Z" fill="#4C3616"/>
<path d="M128.227 251.541C128.227 251.541 128.227 251.541 128.227 251.557C128.243 251.244 128.243 251.227 128.227 251.541Z" fill="#4C3616"/>
<path d="M136.041 252.53C135.316 250.997 132.909 251.92 133.486 253.601C133.832 254.64 134.063 255.299 134.936 255.844C136.552 256.635 139.058 254.014 137.558 252.728C137.162 252.382 136.585 252.283 136.041 252.546V252.53Z" fill="#4C3616"/>
<path d="M133.717 247.617C134.953 247.221 136.948 247.716 136.799 245.754C136.733 244.913 135.975 244.254 135.134 244.32C134.277 244.386 132.76 244.468 132.068 244.979C130.469 246.15 131.986 248.54 133.717 247.601V247.617Z" fill="#4C3616"/>
<path d="M149.873 245.078C149.889 244.518 150.005 244.023 149.691 243.578C148.982 242.556 147.35 243.018 147.284 244.073C147.169 245.952 146.955 247.271 148.735 247.831C149.708 248.013 150.647 247.864 151.488 247.172C152.923 246.018 151.406 243.957 149.856 245.062L149.873 245.078Z" fill="#4C3616"/>
<path d="M155.346 242.045C155.296 241.287 154.703 240.644 153.714 240.644C152.477 240.644 151.752 242.424 152.84 243.331C153.862 244.221 155.461 243.413 155.362 242.061L155.346 242.045Z" fill="#4C3616"/>
<path d="M155.132 237.808C155.181 238.435 155.659 238.946 156.467 238.946C157.473 238.946 158.066 237.528 157.176 236.769C156.335 236.061 155.049 236.704 155.132 237.792V237.808Z" fill="#4C3616"/>
<path d="M150.961 235.467C151.34 235.434 152.214 234.89 152.56 234.692C153.417 234.198 153.236 232.664 152.082 232.45C151.472 232.335 150.911 232.796 150.334 233.11C150.318 233.11 150.318 233.11 150.334 233.11C149.015 233.835 149.691 235.549 150.961 235.467ZM150.549 232.994C150.549 232.994 150.433 233.044 150.4 233.077C150.45 233.044 150.499 233.027 150.549 232.994Z" fill="#4C3616"/>
<path d="M144.597 213.409C144.746 211.249 142.306 211.596 142.223 212.832C142.108 214.678 141.877 217.349 141.861 218.025C141.597 223.647 145.553 221.701 144.729 220.053C144.152 218.899 144.432 216.113 144.581 213.409H144.597Z" fill="#4C3616"/>
<path d="M151.175 220.053C150.169 220.053 150.07 220.646 149.362 221.355C149.147 221.537 148.916 221.701 148.686 221.866C148.653 221.85 148.339 221.602 148.306 221.569C146.575 220.168 144.053 222.691 146.641 224.553C150.631 227.471 155.329 220.069 151.175 220.069V220.053Z" fill="#4C3616"/>
<path d="M151.126 217.514C152.659 219.327 154.752 217.052 153.648 215.766C153.335 215.404 152.988 215.058 152.725 214.678C152.659 214.184 152.873 210.244 152.89 209.502C152.906 208.859 152.296 208.282 151.703 208.167C150.796 207.985 150.021 208.678 149.972 209.337C149.477 215.948 149.114 215.124 151.109 217.53L151.126 217.514Z" fill="#4C3616"/>
<path d="M122.193 233.192C121.88 233.225 121.567 233.258 121.27 233.258C121.171 233.258 121.171 233.258 121.022 233.159C120.907 232.829 121.171 231.362 121.22 231.016C121.319 230.34 120.841 229.746 120.182 229.746C119.687 229.746 119.209 230.093 119.127 230.604C119.011 231.362 118.879 232.12 118.846 232.879C118.731 236.126 123.479 235.962 123.347 234.165C123.298 233.588 122.786 233.126 122.193 233.176V233.192Z" fill="#4C3616"/>
<path d="M129.694 231.708C130.106 230.95 129.513 229.928 128.606 229.928C127.881 229.928 127.617 230.406 127.287 230.966C126.99 231.379 126.611 231.725 126.248 232.087C125.77 232.566 125.902 233.439 126.38 233.851C127.584 234.857 128.969 233.077 129.71 231.708H129.694Z" fill="#4C3616"/>
<path d="M129.018 223.91C129.661 223.169 129.084 222.031 128.21 222.031C128.078 222.031 126.743 222.245 126.611 222.278C125.836 222.41 124.699 222.575 124.353 223.268C124.056 223.861 124.32 224.553 124.897 224.85C125.556 225.18 125.985 224.768 126.727 224.57C127.369 224.438 128.639 224.372 129.018 223.91Z" fill="#4C3616"/>
<path d="M120.528 206.32C119.407 209.255 118.929 212.255 121.995 212.914C123.083 213.145 123.973 211.892 123.298 210.92C123.017 210.508 122.786 210.524 122.391 210.359C121.797 209.469 123.215 207.359 122.885 206.452C122.473 205.315 120.874 205.38 120.511 206.32H120.528Z" fill="#4C3616"/>
<path d="M129.232 209.007C128.408 209.007 128.227 209.601 127.386 209.865C126.71 209.469 126.364 209.007 125.556 209.073C124.6 209.139 123.907 209.98 123.99 210.903C124.056 211.777 124.501 212.024 125.21 212.502C126.743 213.524 128.26 213.788 130.238 212.057C131.755 210.722 130.634 209.024 129.232 209.024V209.007Z" fill="#4C3616"/>
<path d="M131.705 204.82C129.941 204.82 129.628 207.886 131.936 207.886C133.7 207.886 134.013 204.82 131.705 204.82Z" fill="#4C3616"/>
<path d="M127.106 200.962C128.853 200.962 129.166 197.929 126.875 197.929C125.127 197.929 124.814 200.962 127.106 200.962Z" fill="#4C3616"/>
<path d="M114.131 252.678C114.923 253.519 116.703 253.717 117.198 253.354C118.022 252.794 117.643 251.524 116.802 251.442C115.714 251.31 115.665 251.261 115.022 250.156C114.313 248.92 111.593 249.991 114.115 252.678H114.131Z" fill="#4C3616"/>
<path d="M97.695 249.942C97.695 249.942 97.3488 249.777 97.2993 249.744C96.2607 248.952 96.0464 248.211 95.7002 247.09C95.2716 245.738 92.0239 246.249 95.0243 250.403C96.6234 252.596 99.0633 252.283 98.9479 250.881C98.8985 250.337 98.5028 249.909 97.695 249.958V249.942Z" fill="#4C3616"/>
<path d="M102.097 244.633C101.783 244.122 100.844 242.737 100.201 242.605C99.1128 242.408 98.4369 243.677 99.0304 244.402C99.4425 244.897 99.8547 245.391 100.217 245.936C101.009 247.139 102.905 246.018 102.097 244.65V244.633Z" fill="#4C3616"/>
<path d="M104.042 231.362C102.707 232.401 103.069 229.12 101.668 229.12C101.075 229.12 100.662 229.763 100.877 230.241C101.141 230.851 101.388 231.494 101.701 232.071C103.069 234.527 106.07 232.796 105.229 231.56C104.982 231.197 104.405 231.049 104.042 231.346V231.362ZM103.366 231.609C103.366 231.609 103.449 231.609 103.482 231.609C103.432 231.609 103.399 231.609 103.35 231.609H103.366ZM103.515 231.609C103.515 231.609 103.547 231.609 103.564 231.609H103.531H103.515Z" fill="#4C3616"/>
<path d="M102.657 213.162C101.289 211.546 102.937 209.04 101.272 208.744C100.662 208.628 100.085 209.09 100.052 209.551C99.5909 217.184 103.877 214.645 102.657 213.162Z" fill="#4C3616"/>
<path d="M104.603 212.7C104.751 214.695 107.817 214.514 107.669 212.469C107.521 210.491 104.454 210.606 104.603 212.7Z" fill="#4C3616"/>
<path d="M106.383 206.155C106.317 205.232 106.218 204.309 106.136 203.386C106.004 202.017 103.993 202.248 104.124 203.534C104.207 204.457 104.289 205.38 104.372 206.304C104.471 207.639 106.482 207.458 106.383 206.155Z" fill="#4C3616"/>
<path d="M77.3185 224.735C76.5437 224.735 75.9502 225.411 76.0161 226.12C76.4448 230.653 76.4283 231.576 78.1923 233.456C79.132 234.461 80.9124 232.928 80.0057 231.824C77.7472 229.071 79.7255 224.718 77.302 224.718L77.3185 224.735Z" fill="#4C3616"/>
<path d="M87.4078 234.923C89.1553 232.912 87.9519 231.609 86.7319 232.038C86.2374 232.219 86.1055 232.599 85.8252 233.044C85.5285 233.456 85.3306 233.621 84.9515 233.852C84.8031 233.819 82.7259 232.714 82.594 232.648C81.407 232.022 80.3354 233.884 81.6543 234.577C84.1601 235.912 85.3141 237.297 87.4078 234.923Z" fill="#4C3616"/>
<path d="M88.974 226.251C88.9245 225.576 88.4135 225.032 87.5397 225.032C86.4681 225.032 85.8252 226.548 86.7814 227.373C87.6881 228.147 89.0564 227.455 88.974 226.268V226.251Z" fill="#4C3616"/>
<path d="M83.1875 213.393C84.0283 213.607 84.8031 212.585 84.2426 211.777C83.8799 211.266 83.5337 211.513 83.2534 211.084C82.9237 210.359 82.8413 209.716 82.7094 208.892C82.4456 207.375 80.4344 207.82 80.6322 209.04C81.0443 211.464 81.1762 212.865 83.1875 213.409V213.393Z" fill="#4C3616"/>
<path d="M88.1827 209.222C87.9519 208.414 87.82 207.375 87.0122 207.375C86.4681 207.375 86.089 207.919 86.2703 208.447C86.4187 208.875 86.5506 209.321 86.6825 209.766C86.9627 210.722 88.4959 210.326 88.1827 209.222Z" fill="#4C3616"/>
<path d="M67.3611 211.035C66.7346 210.458 66.9984 206.65 67.0314 205.809C67.0643 205.232 66.4214 204.556 65.6466 204.622C64.2618 204.721 64.3936 206.089 64.3607 209.057C64.2947 215.766 69.4548 212.98 67.3611 211.052V211.035ZM67.3116 211.052C67.3116 211.052 67.2787 211.002 67.2787 210.969L67.3116 211.052Z" fill="#4C3616"/>
<path d="M71.6969 212.222C71.565 212.387 71.3342 212.667 71.1528 212.75C70.5923 212.486 69.7845 211.793 69.2899 211.793C68.1194 211.793 67.6249 213.31 68.4986 213.92C69.9329 214.942 71.6309 216.376 73.5268 213.788C74.5489 212.42 72.6366 211.052 71.7134 212.222H71.6969ZM71.1199 212.766C71.1199 212.766 71.0539 212.733 71.0045 212.733C71.0374 212.733 71.0704 212.766 71.1199 212.766Z" fill="#4C3616"/>
<path d="M76.3624 208.265C74.8127 197.649 70.0153 202.215 71.5815 204.078C73.5433 206.452 72.0925 210.277 74.7962 210.079C75.67 210.013 76.4942 209.172 76.3624 208.265Z" fill="#4C3616"/>
<path d="M63.932 190.147C63.2396 190.642 62.0197 191.648 61.2119 191.697C61.3273 190.774 61.8218 190.197 61.3273 189.488C59.6292 187.032 57.1069 192.67 59.926 194.055C61.9207 195.027 64.0969 193.098 65.3168 192.175C66.6687 191.153 65.1849 189.257 63.9155 190.147H63.932Z" fill="#4C3616"/>
<path d="M68.004 188.73C68.3667 187.724 68.6799 186.702 69.224 185.779C69.9329 184.542 67.7897 182.185 66.1082 186.026C65.8938 186.521 65.729 187.032 65.5476 187.526C64.8223 189.554 67.493 190.115 68.004 188.73Z" fill="#4C3616"/>
<path d="M63.5858 183.998C63.8001 183.751 64.8882 183.52 65.2344 183.438C66.1411 183.174 65.9928 181.707 64.9212 181.707C64.7069 181.707 63.8661 181.954 63.6518 182.004C60.6019 182.844 62.4648 185.235 63.6023 183.998H63.5858Z" fill="#4C3616"/>
<path d="M77.0712 193.807C76.9393 193.774 76.692 193.708 76.5931 193.659V193.626C76.4612 192.39 76.9228 190.774 75.4391 190.873C74.9116 190.922 74.4664 191.302 74.45 192.027C74.384 194.335 74.2851 195.374 76.6591 195.934C77.945 196.231 78.5714 194.187 77.0712 193.807Z" fill="#4C3616"/>
<path d="M82.8577 196.132C83.171 195.357 83.3523 194.731 83.5172 194.121C83.5996 193.774 83.3029 193.395 82.9237 193.395C82.3467 193.395 82.2972 194.055 82.1324 194.615C82.017 194.945 81.9016 195.275 81.7697 195.588C81.44 196.396 82.561 196.824 82.8577 196.115V196.132Z" fill="#4C3616"/>
<path d="M83.4018 189.999C83.3688 189.554 83.0226 189.191 82.4621 189.191C81.7532 189.191 81.3246 190.197 81.9511 190.725C82.5446 191.236 83.4513 190.774 83.4018 189.999Z" fill="#4C3616"/>
<path d="M90.3588 184.526C90.2269 184.476 90.1115 184.427 89.9961 184.361C89.1883 183.059 91.348 179.382 89.2378 178.954C88.5783 178.822 87.9024 179.267 87.787 179.943C87.5562 181.196 87.2924 182.993 87.3749 184.246C87.4078 184.806 87.6222 185.284 87.9024 185.762C88.1827 186.29 88.7432 186.57 89.2872 186.784C90.9853 187.477 91.7436 185.103 90.3918 184.526H90.3588Z" fill="#4C3616"/>
<path d="M97.217 189.719C100.761 187.757 98.1731 185.449 96.7553 186.85C96.5245 187.065 95.6508 187.691 95.3376 187.708C95.3376 187.708 95.3211 187.708 95.3046 187.708C94.6287 186.768 94.9419 185.828 93.7055 185.828C92.8812 185.828 92.3207 186.669 92.6009 187.411C93.0625 188.647 93.8868 191.598 97.2334 189.735L97.217 189.719Z" fill="#4C3616"/>
<path d="M98.7666 186.339C99.1622 186.916 99.97 187.098 100.58 186.669C101.206 186.24 101.685 184.13 101.751 183.372C101.965 181.08 100.267 178.756 98.6017 177.635C97.2829 176.745 96.2443 178.443 97.2004 179.267C98.0742 180.042 99.1952 181.624 99.2282 182.894C99.1787 183.372 99.0633 183.833 98.9314 184.295C98.6512 185.119 98.3215 185.68 98.7831 186.356L98.7666 186.339Z" fill="#4C3616"/>
<path d="M111.016 184.377C109.911 187.625 109.812 188.136 109.796 189.95C109.779 191.285 112.186 191.747 112.285 189.768C112.367 188.169 112.862 186.735 113.274 185.499C113.241 185.581 113.274 185.499 113.307 185.416C113.901 183.586 111.444 183.158 111.032 184.394L111.016 184.377Z" fill="#4C3616"/>
<path d="M113.291 185.416C113.307 185.367 113.291 185.449 113.291 185.416Z" fill="#4C3616"/>
<path d="M113.274 185.498C113.274 185.498 113.274 185.465 113.29 185.449C113.29 185.465 113.274 185.498 113.274 185.498Z" fill="#4C3616"/>
<path d="M121.418 189.059C120.907 188.614 120.05 188.647 119.621 189.191C119.275 189.62 118.929 190.032 118.533 190.428C116.786 191.928 116.456 191.829 114.511 191.005C112.78 190.296 111.972 192.752 113.373 193.313C113.868 193.527 114.362 193.725 114.857 193.906C116.027 194.335 117.016 194.45 118.121 193.956C119.819 193.197 122.935 190.362 121.402 189.059H121.418Z" fill="#4C3616"/>
<path d="M122.951 185.993C121.682 183.454 121.451 182.828 120.248 181.591C120 181.328 119.44 180.767 119.061 180.767C118.187 180.767 118.088 182.004 118.912 182.152C118.978 182.152 119.044 182.168 119.11 182.185C119.588 182.399 120.099 182.778 120.66 183.685C121.006 184.229 121.698 185.68 122.028 186.323C122.078 186.438 122.144 186.537 122.275 186.603C122.721 186.817 123.133 186.339 122.951 185.993Z" fill="#4C3616"/>
<path d="M135.893 181.179C134.887 181.179 134.607 182.102 134.244 183.042C132.381 187.609 135.959 187.18 136.14 185.713C136.288 184.575 136.321 184.509 137.014 182.993C137.409 182.152 136.816 181.179 135.893 181.179Z" fill="#4C3616"/>
<path d="M140.344 188.928C140.179 188.993 140.113 189.026 139.701 189.043C139.651 189.043 139.322 188.763 139.289 188.73C137.64 187.345 135.662 189.834 137.228 191.137C138.926 192.538 140.624 192.488 142.256 191.285C143.74 190.197 142.471 187.592 140.344 188.928Z" fill="#4C3616"/>
<path d="M145.834 186.949C146.625 185.383 147.598 183.8 146.246 183.141C145.652 182.844 144.844 183.108 144.564 183.718C144.234 184.427 143.872 185.119 143.509 185.812C142.767 187.263 145.009 188.515 145.817 186.933L145.834 186.949Z" fill="#4C3616"/>
<path d="M143.641 176.712C142.619 175.821 141.284 177.387 142.306 178.261C143.344 179.168 144.647 177.569 143.641 176.712Z" fill="#4C3616"/>
<path d="M158.693 192.67C156.533 191.615 155.132 200.303 157.786 199.363C158.247 199.198 158.511 198.654 158.346 198.193C158.017 197.286 158.165 196.28 158.429 195.341C158.841 194.22 159.764 193.214 158.693 192.67Z" fill="#4C3616"/>
<path d="M162.946 196.61C163.094 197.203 164.05 197.335 164.38 196.692C164.562 196.33 164.265 195.406 164.133 195.027C163.886 194.302 163.704 193.362 162.962 193.362C162.418 193.362 162.056 193.939 162.237 194.417C162.847 196.016 162.748 195.819 162.946 196.626V196.61Z" fill="#4C3616"/>
<path d="M166.227 216.475C167.644 216.558 169.408 216.096 168.914 214.728C168.436 213.409 167.348 214.431 165.781 214.003C165.468 213.871 165.435 213.623 165.336 213.228C165.139 212.107 165.188 210.969 164.034 210.969C163.391 210.969 162.831 211.563 162.913 212.173C163.21 214.662 163.605 216.311 166.243 216.475H166.227Z" fill="#4C3616"/>
<path d="M172.145 211.612C173.2 212.618 175.079 211.117 173.794 209.7C173.184 209.04 171.848 208.463 171.337 208.463C169.936 208.463 169.59 210.392 170.777 210.887C171.271 211.085 171.782 211.266 172.145 211.629V211.612Z" fill="#4C3616"/>
<path d="M159.748 182.135C160.588 182.531 161.314 182.531 162.056 182.251C163.671 181.69 163.358 180.042 162.204 179.811C161.561 179.679 161.495 180.009 161.083 180.042C159.945 179.827 159.517 178.558 158.396 178.97C157.786 179.184 157.44 179.86 157.654 180.52C157.835 181.031 159.253 181.888 159.748 182.135ZM161.297 179.992C161.297 179.992 161.264 179.992 161.248 180.009C161.396 179.926 161.38 179.943 161.297 179.992Z" fill="#4C3616"/>
<path d="M166.935 174.074C166.886 173.332 166.325 172.739 165.369 172.739C164.182 172.739 163.506 174.404 164.529 175.294C165.501 176.135 167.018 175.376 166.919 174.074H166.935Z" fill="#4C3616"/>
<path d="M175.211 187.691C173.332 187.411 172.656 183.471 171.98 181.196C171.65 180.091 169.886 180.586 170.249 181.822C171.288 185.251 171.354 189.274 174.519 190.016C177.074 190.626 177.305 187.609 175.211 187.708V187.691Z" fill="#4C3616"/>
<path d="M178.574 176.843C177.322 176.843 176.827 178.459 177.734 179.168C178.607 179.86 179.102 180.124 179.531 181.13C180.256 182.894 182.663 181.723 182.053 180.223C181.196 178.129 179.316 176.843 178.574 176.843Z" fill="#4C3616"/>
<path d="M140.327 168.452C144.696 169.903 147.499 166.161 146.097 164.941C145.636 164.545 144.844 164.562 144.465 165.073C143.707 166.111 142.982 166.556 141.349 166.507C140.327 166.391 140.08 166.194 139.041 165.567C138.349 165.155 137.343 165.913 137.673 166.804C137.887 167.414 139.684 168.238 140.327 168.469V168.452Z" fill="#4C3616"/>
<path d="M148.768 162.253C149.741 159.401 149.774 158.907 149.873 157.357C150.037 154.736 146.856 154.934 146.608 156.714C146.328 158.693 145.405 161.231 145.553 160.786C144.729 163.375 148.158 163.984 148.752 162.253H148.768Z" fill="#4C3616"/>
<path d="M139.173 157.489C138.943 159.517 141.663 159.533 141.828 158.017C142.124 155.494 142.635 154.522 143.888 153.071C144.564 152.296 144.037 151.027 142.949 151.027C141.712 151.027 139.52 154.357 139.173 157.489Z" fill="#4C3616"/>
<path d="M122.556 170.315C120.495 171.057 118.863 170.398 118.385 169.623C117.132 166.507 120.017 164.446 118.385 163.671C117.956 163.457 117.313 163.622 117.132 164.1C116.439 165.963 115.813 167.628 116.11 169.557C116.703 173.101 120.462 174.09 123.413 172.755C125.078 172.013 124.072 169.788 122.539 170.315H122.556Z" fill="#4C3616"/>
<path d="M125.902 166.853C125.54 167.776 125.276 168.089 124.468 169.079C122.984 170.958 126.43 174.107 128.573 168.155C129.348 165.946 126.463 165.353 125.902 166.853Z" fill="#4C3616"/>
<path d="M123.743 161.38C124.946 162.188 125.935 163.061 126.957 161.858C127.584 161.132 127.402 160.011 126.792 159.583C126.298 159.237 125.787 158.923 125.358 158.511C123.413 155.692 120.314 159.039 123.743 161.396V161.38Z" fill="#4C3616"/>
<path d="M96.3431 167.644C96.1123 166.985 95.5024 166.589 94.5462 166.804C94.0516 166.903 94.134 166.903 94.5792 166.804C93.9692 166.919 93.7878 166.903 93.1284 166.507C89.6004 163.836 91.7766 160.687 89.2378 160.885C86.7649 161.067 88.2981 165.617 89.8972 167.611C90.8039 168.716 91.5787 169.474 93.0625 169.738C94.2989 169.952 96.9861 169.458 96.3267 167.644H96.3431Z" fill="#4C3616"/>
<path d="M103.811 162.995C104.125 161.907 102.905 160.671 101.635 161.132C100.58 161.512 100.728 162.303 100.151 163.292C99.5414 164.166 99.426 164.149 98.0412 164.594C96.03 165.237 96.9367 168.518 99.1952 167.793C101.932 166.919 102.806 166.325 103.795 162.995H103.811Z" fill="#4C3616"/>
<path d="M105.377 155.181C105.509 154.456 104.965 153.763 104.223 153.763C102.987 153.763 103.02 154.983 102.459 157.044C102.295 157.687 102.806 158.33 103.416 158.462C104.833 158.742 105.081 156.863 105.377 155.181Z" fill="#4C3616"/>
<path d="M98.2885 153.928C98.7501 153.664 98.8325 152.972 98.5358 152.56C98.338 152.28 98.0577 152.148 97.7445 152.148C97.5466 152.148 97.3488 152.197 97.1675 152.313C94.4143 153.912 92.9801 154.291 93.8373 155.511C94.1341 155.956 94.8594 156.154 95.3046 155.775C95.7332 155.412 96.2113 155.132 96.7059 154.851C97.2334 154.538 97.7609 154.225 98.2885 153.928Z" fill="#4C3616"/>
<path d="M77.5493 162.88C78.2087 162.303 78.7692 161.644 79.3298 160.984C79.8408 160.407 79.7584 159.5 79.1814 158.989C77.4174 157.473 76.4283 160.968 74.7797 161.067C73.807 160.918 72.686 159.698 72.1749 158.824C71.5155 157.308 71.8287 156.253 70.5428 156.253C69.8834 156.253 69.2899 156.813 69.5042 157.736C70.5593 161.94 74.2356 165.732 77.5328 162.88H77.5493Z" fill="#4C3616"/>
<path d="M81.3576 155.989C80.6322 152.939 80.4838 151.752 79.2474 151.752C78.4066 151.752 77.8296 152.56 78.0769 153.417C78.7528 155.676 78.7363 158.28 80.5662 157.637C81.1762 157.407 81.5554 156.846 81.3576 155.972V155.989Z" fill="#4C3616"/>
<path d="M71.7298 150.565C72.3728 150.878 73.2465 150.614 73.5268 149.939C73.7081 149.444 74.8291 149.246 75.3567 149.131C76.2799 148.916 76.5437 147.367 75.4886 146.856C74.6973 146.477 72.0266 147.218 71.1198 148.768C70.7571 149.411 71.1198 150.268 71.7463 150.565H71.7298Z" fill="#4C3616"/>
<path d="M77.2031 138.827C78.1758 137.69 76.5272 136.123 75.4226 137.294C75.1094 137.624 74.1532 138.431 73.7576 138.448C72.0101 137.014 74.1367 134.31 72.3398 133.947C71.8287 133.848 71.2188 134.195 71.1528 134.739C70.988 136.074 70.7901 137.475 71.3671 138.745C72.7684 141.828 75.1589 141.201 77.2031 138.811V138.827ZM73.7411 138.464C73.7411 138.464 73.7081 138.448 73.6916 138.431C73.7081 138.431 73.7246 138.464 73.7576 138.464H73.7411ZM73.6916 138.431C73.6916 138.431 73.6257 138.398 73.6092 138.366C73.6257 138.366 73.6916 138.415 73.6916 138.431Z" fill="#4C3616"/>
<path d="M76.5272 135.415C76.6756 137.409 79.7255 137.195 79.5606 135.184C79.4122 133.222 76.3623 133.37 76.5272 135.415Z" fill="#4C3616"/>
<path d="M74.9445 130.799C75.2083 130.568 75.4886 130.502 75.8513 130.37C77.2196 129.875 76.8899 127.815 75.4061 127.815C74.1697 127.815 72.1914 129.117 73.1311 130.452C73.5927 131.112 74.5159 131.178 74.961 130.782L74.9445 130.799Z" fill="#4C3616"/>
<path d="M82.4786 144.779C83.3853 146.526 83.7974 147.548 85.0668 147.993C85.8746 148.257 86.5506 148.537 86.9792 147.647C87.21 147.152 87.0286 146.411 86.4846 146.213C86.2208 146.114 85.9736 146.015 85.7263 145.883C84.7536 145.141 84.5063 143.295 83.5666 143.113C82.7753 142.949 81.918 143.707 82.4786 144.779Z" fill="#4C3616"/>
<path d="M87.8365 148.488C89.5015 149.18 90.9193 149.823 92.6503 147.828C93.3592 147.004 92.7822 145.669 91.6941 145.669C90.7709 145.669 90.8369 146.213 90.1774 146.427C89.7323 146.361 89.5015 146.229 89.0234 146.048C87.1935 145.29 86.3527 147.878 87.8365 148.488Z" fill="#4C3616"/>
<path d="M88.0013 139.635C88.5453 139.684 89.0894 139.783 89.6169 139.948C91.2161 140.542 92.2382 141.448 92.7327 140.41C92.9306 139.998 92.7657 139.47 92.3371 139.272C91.0512 138.662 89.7983 137.871 88.3805 137.64C87.4408 137.492 86.8473 138.497 87.3419 139.223C87.4738 139.421 87.7375 139.618 87.9848 139.651L88.0013 139.635Z" fill="#4C3616"/>
<path d="M104.372 144.647C104.603 144.696 104.833 144.663 105.048 144.597C105.361 144.482 105.625 144.251 105.757 143.954C105.905 143.641 105.921 143.278 105.806 142.965C105.559 142.24 105.13 142.289 104.454 141.943C104.174 141.531 104.454 139.52 104.57 139.025C104.899 137.541 105.344 137.03 104.883 136.371C104.372 135.629 103.135 135.596 102.74 136.816C101.058 142.273 101.536 143.723 104.339 144.663L104.372 144.647Z" fill="#4C3616"/>
<path d="M115.516 143.13C116.06 142.487 115.994 141.498 115.351 140.954C113.769 139.585 112.565 142.223 110.719 142.734C110.57 142.751 110.554 142.751 110.406 142.734C109.977 142.569 109.565 142.339 109.153 142.141C107.207 141.168 105.707 144.152 107.685 145.141C108.922 145.751 110.719 146.856 112.911 145.553C113.917 144.96 114.741 144.037 115.516 143.146V143.13Z" fill="#4C3616"/>
<path d="M114.626 133.453C114 132.793 113.357 132.167 112.714 131.524C112.483 131.293 112.17 131.194 111.856 131.194C111.444 131.194 111.032 131.376 110.768 131.672C109.68 132.942 111.312 133.931 112.895 135.464C114.379 136.882 115.648 138.349 116.703 137.113C117.791 135.86 116.11 135.035 114.626 133.453Z" fill="#4C3616"/>
<path d="M92.2052 134.195C93.9362 134.854 95.5518 134.755 97.3158 132.661C100.827 128.556 97.695 127.897 97.085 129.166C96.3102 130.782 95.2056 131.953 94.2494 132.53C93.8868 132.694 93.7549 132.727 93.0954 132.727C92.1228 132.645 91.8095 132.727 90.6061 130.535C90.2599 129.892 89.1388 130.419 89.584 131.244C90.4412 132.81 90.8534 133.717 92.2217 134.211L92.2052 134.195Z" fill="#4C3616"/>
<path d="M99.5084 127.221C99.6238 125.54 99.9206 123.479 99.9206 122.918C99.9536 120.445 97.3653 120.907 97.8269 122.721C97.9917 123.726 97.8269 125.853 97.7609 126.875C97.6785 128.276 99.426 128.194 99.492 127.221H99.5084Z" fill="#4C3616"/>
<path d="M92.7987 120.94C91.6447 122.539 89.8807 124.534 91.5788 125.375C92.2052 125.671 92.9801 125.408 93.2933 124.781C94.1506 123.034 95.8816 121.913 94.5957 120.808C94.1011 120.379 93.1944 120.379 92.7987 120.94Z" fill="#4C3616"/>
<path d="M81.4565 121.566C83.6491 119.242 81.1432 117.956 80.3849 119.357C80.0716 119.918 79.6595 120.544 78.9506 120.594C78.1593 120.231 76.9888 118.385 77.0712 116.555C77.1042 116.06 77.2361 115.434 76.9723 115.038C76.6756 114.593 76.0326 114.461 75.571 114.791C73.6092 116.143 76.8075 126.463 81.4729 121.566H81.4565Z" fill="#4C3616"/>
<path d="M81.7367 112.417C81.4235 113.307 81.1927 114.197 80.9948 115.121C80.6816 116.522 82.9072 117.099 83.2369 115.566C83.4183 114.741 83.5666 113.917 83.8304 113.126C84.0612 112.4 83.2204 111.56 82.3632 111.873C82.1159 111.955 81.8356 112.17 81.7367 112.433V112.417Z" fill="#4C3616"/>
<path d="M79.676 110.472C79.9893 109.004 82.8578 109.4 82.2808 107.784C82.0994 107.306 81.5224 106.993 81.0444 107.207C78.5385 108.229 78.0274 108.856 77.7802 110.109C77.5329 111.345 79.4123 111.741 79.676 110.472Z" fill="#4C3616"/>
<path d="M90.8699 112.813C91.7931 113.357 92.8811 113.01 93.8703 112.631C95.387 112.038 94.4968 109.862 93.0625 110.389C92.7658 110.488 92.1887 110.752 91.9085 110.62C91.7436 110.373 91.7601 109.647 91.7766 109.35C91.892 107.949 92.3371 106.581 91.1007 106.35C90.5402 106.251 89.8807 106.63 89.8148 107.224C89.5016 109.746 89.0894 111.774 90.8864 112.829L90.8699 112.813ZM91.9744 110.669C91.9744 110.669 92.0569 110.719 92.0898 110.752C92.0404 110.735 92.0074 110.702 91.9744 110.669Z" fill="#4C3616"/>
<path d="M98.6842 110.092C99.0468 109.268 99.4095 108.427 99.8711 107.652C100.283 107.075 100.728 106.515 101.042 105.872C101.899 104.091 99.426 102.789 98.4039 104.141C97.4477 105.41 97.3818 104.636 95.6178 108.609C94.6451 110.768 97.8104 112.038 98.6842 110.092Z" fill="#4C3616"/>
<path d="M97.3653 102.344C97.5961 102.262 98.4533 102.229 98.7006 102.212C100.432 102.08 100.234 99.4425 98.5028 99.5744C97.4807 99.6568 96.5904 99.6568 95.7497 100.217C95.1727 100.629 94.6451 101.701 94.8924 102.393C95.2716 103.449 96.8377 103.646 97.3653 102.344ZM97.4147 102.245C97.4147 102.245 97.4807 102.196 97.4972 102.163C97.4642 102.196 97.4312 102.229 97.3982 102.245H97.4147ZM97.3158 102.377C97.3158 102.377 97.3158 102.41 97.2828 102.41C97.2828 102.41 97.2828 102.377 97.2993 102.377H97.3158Z" fill="#4C3616"/>
<path d="M108.048 122.16C108.757 122.589 109.763 121.814 109.449 120.907C109.004 119.671 107.042 120.445 106.713 116.654C106.663 116.126 106.202 115.714 105.674 115.763C104.52 115.846 104.734 117.264 104.982 118.385C105.361 120.099 106.548 121.27 108.048 122.16Z" fill="#4C3616"/>
<path d="M122.753 155.61C124.138 155.808 125.77 154.67 126.941 153.912C128.062 153.186 127.073 151.323 125.688 152.098C125.16 152.395 123.743 153.269 123.149 153.285C122.143 152.346 122.786 150.334 123.512 149.081C124.155 147.977 122.374 146.872 121.632 148.175C119.258 152.214 120.858 155.313 122.737 155.61H122.753ZM123.248 153.302C123.248 153.302 123.347 153.302 123.396 153.302C123.347 153.302 123.281 153.302 123.232 153.302H123.248ZM123.248 153.302C123.248 153.302 123.248 153.302 123.232 153.302C123.232 153.302 123.248 153.302 123.264 153.302H123.248Z" fill="#4C3616"/>
<path d="M129.513 150.713C130.123 151.01 130.881 150.845 131.326 150.334C131.936 149.625 131.722 148.587 131.161 148.191C130.518 147.762 130.271 147.598 129.216 147.317C128.969 147.251 127.567 146.922 127.304 146.922C125.54 146.922 125.16 149.543 127.007 149.955C127.6 150.087 128.177 150.202 128.771 150.367C129.018 150.466 129.265 150.565 129.496 150.68L129.513 150.713Z" fill="#4C3616"/>
<path d="M124.105 132.942C125.028 132.892 126.792 132.332 126.974 131.359C127.106 130.7 126.661 130.073 126.034 129.958C125.078 129.776 124.386 131.029 123.166 130.436C122.292 129.249 122.836 127.452 121.336 127.452C120.66 127.452 120.083 128.045 120.33 128.903C120.874 130.93 121.253 133.074 124.089 132.942H124.105ZM123.149 130.419C123.149 130.419 123.149 130.419 123.116 130.386C123.116 130.386 123.133 130.403 123.149 130.419ZM123.116 130.386C123.1 130.37 123.083 130.353 123.067 130.32C123.067 130.337 123.1 130.353 123.116 130.37V130.386Z" fill="#4C3616"/>
<path d="M127.254 127.238C127.666 127.6 128.309 127.567 128.688 127.139C129.018 126.743 128.969 125.391 128.969 124.88C128.886 120.561 124.485 119.72 123.561 122.127C123.149 123.281 124.633 124.221 125.358 122.556C125.375 122.539 125.424 122.506 125.474 122.49C126.842 122.292 127.04 123.858 126.974 125.226C126.924 126.463 126.743 126.825 127.254 127.254V127.238ZM125.226 122.704C125.226 122.704 125.276 122.622 125.309 122.572C125.309 122.572 125.226 122.688 125.226 122.704Z" fill="#4C3616"/>
<path d="M140.459 138.283C140.97 138.3 141.762 137.854 142.19 137.574C142.949 137.113 142.767 135.794 141.778 135.596C141.284 135.497 140.937 135.81 140.426 135.975C140.393 135.975 140.311 135.926 140.278 135.909C139.618 135.365 139.602 133.914 139.602 133.107C139.602 131.87 137.426 131.59 137.393 133.271C137.393 133.717 137.376 134.162 137.426 134.59C137.624 136.453 138.448 138.217 140.459 138.267V138.283ZM140.393 136.008C140.393 136.008 140.426 136.025 140.443 136.041C140.443 136.041 140.41 136.025 140.393 136.008ZM140.393 136.008C140.377 136.008 140.36 135.992 140.344 135.975L140.393 136.008Z" fill="#4C3616"/>
<path d="M147.367 132.216C146.988 131.31 146.477 130.502 145.933 129.678C144.828 127.98 141.91 129.612 143.196 131.573C143.542 132.117 143.921 132.645 144.251 133.189C145.405 135.662 148.059 133.865 147.367 132.216Z" fill="#4C3616"/>
<path d="M95.1067 91.249C95.6673 91.0842 96.1618 90.8039 96.6729 90.5236C97.3158 90.1939 97.2169 88.9905 96.3102 88.8091C95.5683 88.6607 94.5462 89.8807 93.5241 89.4026C93.2933 89.2048 93.4252 87.5892 93.4582 87.2924C93.5571 86.0065 91.859 85.99 91.7931 86.9627C91.7436 87.6386 91.6777 88.4464 91.7107 89.1059C91.7931 91.216 93.8703 91.5952 95.1067 91.2325V91.249Z" fill="#4C3616"/>
<path d="M99.2447 84.6547C98.7006 85.3801 98.0907 86.056 97.4807 86.7319C96.2937 88.0508 98.3215 90.0291 99.6403 88.5783C100.151 88.0013 100.761 87.3419 101.206 86.7319C102.624 84.7866 101.833 83.4842 100.531 83.5831C101.536 82.7918 100.992 81.2916 99.97 81.1762C99.6074 81.1432 99.2447 81.0938 98.8985 81.1102C97.6455 81.1927 96.5904 82.8083 97.695 83.7645C98.1401 84.1436 98.7995 84.2096 99.3271 83.8304C99.492 83.8469 99.5744 83.8634 99.7887 83.8469C99.426 84.1271 99.459 84.259 99.2611 84.6547H99.2447Z" fill="#4C3616"/>
<path d="M108.774 95.5024C108.46 93.7219 112.12 90.194 110.191 89.2378C108.955 88.6443 108.51 90.1115 107.438 92.3371C104.866 97.5796 109.054 97.118 108.774 95.4859V95.5024Z" fill="#4C3616"/>
<path d="M110.917 101.157C110.702 100.976 110.636 100.662 110.57 100.366C110.29 98.7996 110.57 97.4477 109.301 97.4477C108.708 97.4477 108.213 97.9753 108.262 98.5688C108.394 100.069 108.378 101.487 108.955 102.459C109.449 103.317 110.439 103.943 111.527 103.646C112.499 103.399 113.241 102.69 113.934 101.981C114.675 101.223 114.049 99.7887 112.878 99.8876C112.104 99.9536 111.691 100.844 110.917 101.157Z" fill="#4C3616"/>
<path d="M115.154 90.2599C114.131 88.9245 112.236 90.3258 113.109 91.6612C113.406 92.1228 113.67 92.5349 113.818 93.0625C113.967 94.5957 112.763 96.9366 114.725 97.2993C115.483 97.4477 116.308 96.9366 116.439 96.1453C116.983 92.6668 116.571 92.1228 115.154 90.2434V90.2599Z" fill="#4C3616"/>
<path d="M123.908 82.1654C122.721 84.6217 122.292 86.7484 122.341 87.9354C122.374 89.2872 124.122 90.128 124.963 89.5675C125.606 90.6226 127.98 90.8039 129.002 90.1445C130.32 89.2872 132.315 86.5506 130.436 85.6274C129.711 85.2812 128.903 85.5944 128.524 86.2868C128.243 86.8308 127.93 87.1441 127.501 87.4573C126.397 87.276 125.606 86.9133 124.963 88.0508C124.699 87.8859 124.633 87.9684 124.303 87.9024C124.287 87.8859 124.221 87.8365 124.204 87.8035C123.94 85.8252 124.732 84.0942 125.325 82.8578C125.77 81.9346 124.386 81.2751 123.94 82.1818L123.908 82.1654Z" fill="#4C3616"/>
<path d="M129.496 80.9619C129.529 81.4235 129.496 82.1489 129.447 82.627C129.249 85.446 132.744 85.0833 132.876 83.3029C132.909 82.6929 132.975 82.0829 132.975 81.4729C133.057 76.5767 127.798 78.3077 129.496 80.9619Z" fill="#4C3616"/>
<path d="M113.802 80.8135C114.609 80.863 115.121 80.797 116.159 80.3024C120 78.489 117.808 75.9337 116.258 77.4998C115.895 77.7966 115.681 77.9779 114.642 78.2582C113.324 78.456 113.076 78.0769 112.219 77.1372C111.197 76.0491 109.202 77.6482 110.537 79.099C111.593 80.22 112.005 80.6981 113.802 80.797V80.8135Z" fill="#4C3616"/>
<path d="M118.385 73.6422C118.813 73.6751 119.258 73.7576 119.605 73.5268C120.363 73.0157 119.984 71.8452 119.242 71.7958C118.698 71.7463 118.137 71.7298 117.593 71.7133C116.852 71.6804 116.34 72.8014 117.033 73.3949C117.346 73.6751 117.923 73.6422 118.368 73.6422H118.385Z" fill="#4C3616"/>
<path d="M120.462 66.339C121.929 67.2127 123.248 65.9103 124.468 64.8058C125.408 63.6847 123.891 62.267 122.902 63.0748C122.506 63.4045 122.111 63.7507 121.665 64.0309C121.022 62.1351 118.797 63.1242 119.291 64.6244C119.671 65.8114 120 66.0917 120.462 66.339ZM121.336 64.1463C121.336 64.1463 121.253 64.1463 121.204 64.1463C121.253 64.1463 121.286 64.1463 121.336 64.1463Z" fill="#4C3616"/>
<path d="M123.957 58.129C122.556 58.129 122.193 60.1403 123.396 60.5689C123.99 60.7997 124.171 60.9316 124.979 61.5911C126.38 62.7286 127.963 60.6514 126.694 59.6128C125.985 59.0358 124.93 58.129 123.957 58.129Z" fill="#4C3616"/>
<path d="M127.979 68.5646C125.968 70.1967 125.177 71.3672 125.803 74.0379C126.051 75.1424 127.996 74.7467 127.765 73.6257C127.155 70.7077 129.364 70.8726 129.595 69.6361C129.776 68.647 128.639 68.037 127.979 68.581V68.5646Z" fill="#4C3616"/>
<path d="M134.871 72.0925C133.914 74.9446 132.991 76.8239 134.739 78.3571C135.612 79.132 136.816 77.7966 135.909 76.9888C134.936 76.214 135.959 73.7576 136.354 72.5706C136.552 71.6144 135.151 71.2847 134.871 72.076V72.0925Z" fill="#4C3616"/>
<path d="M137.624 83.4017C137.673 86.1714 140.113 86.9297 140.674 85.7757C140.888 85.3141 140.706 84.7041 140.228 84.4898C140.064 84.4239 139.899 84.3414 139.734 84.2425C139.206 83.4677 139.602 81.8521 139.849 80.9454C140.195 79.7089 137.525 78.4395 137.624 83.3853V83.4017Z" fill="#4C3616"/>
<path d="M143.048 82.1983C142.421 82.1983 141.992 82.7918 142.174 83.4348C142.998 86.3857 142.701 87.4738 143.855 87.3914C144.317 87.3584 144.795 86.8968 144.713 86.4022C144.597 85.7593 144.498 85.0998 144.35 84.4569C144.119 83.4348 144.02 82.1983 143.031 82.1983H143.048Z" fill="#4C3616"/>
<path d="M122.605 107.273C121.962 107.982 122.506 109.219 123.545 109.136C124.353 109.07 125.638 107.587 125.704 105.575C125.737 104.685 125.622 103.778 125.54 102.888C125.391 101.289 123.067 101.569 123.215 103.069C123.363 104.718 123.693 106.103 122.622 107.273H122.605Z" fill="#4C3616"/>
<path d="M120.248 107.735C119.901 108.015 119.028 108.79 118.599 108.79C118.352 108.592 118.269 108.51 118.006 108.147C117.659 107.669 116.983 107.521 116.489 107.867C115.318 108.675 116.621 110.422 117.824 110.9C119.225 111.444 120.33 110.455 121.501 109.515C122.737 108.51 121.27 106.944 120.264 107.735H120.248ZM118.681 108.806C118.681 108.806 118.731 108.806 118.747 108.806C118.731 108.806 118.698 108.806 118.681 108.806Z" fill="#4C3616"/>
<path d="M117.956 100.679C117.478 100.976 115.236 102.641 115.137 103.234C114.956 104.19 116.093 104.817 116.736 104.289C118.896 102.525 118.797 102.36 121.929 101.586C122.819 101.355 122.968 99.9536 122.045 99.5249C121.27 99.1458 118.682 100.25 117.956 100.695V100.679Z" fill="#4C3616"/>
<path d="M137.212 102.328C136.997 102.278 136.651 102.212 136.47 102.113C136.189 101.866 136.222 101.108 136.239 100.745C136.321 99.7063 136.618 98.5688 135.513 98.5688C135.118 98.5688 134.689 98.849 134.656 99.2612C134.574 100.003 134.508 100.745 134.475 101.487C134.376 103.284 135.415 103.877 136.849 104.207C138.036 104.471 138.514 102.608 137.212 102.328Z" fill="#4C3616"/>
<path d="M139.437 95.3375C138.333 95.3375 137.706 96.541 138.316 97.4807C139.882 99.9206 139.684 99.459 141.465 102.888C142.438 104.24 144.399 102.921 143.789 101.685C143.196 100.448 142.289 98.5852 141.366 97.151C140.805 96.2772 140.41 95.3375 139.437 95.3375Z" fill="#4C3616"/>
<path d="M135.398 112.895C135.233 112.813 135.068 112.78 134.887 112.78C134.442 112.78 133.997 113.01 133.815 113.439C133.074 115.203 132.414 116.687 132.975 118.5C133.205 118.962 133.238 119.094 133.7 119.44C136.321 121.369 137.228 118.533 135.794 117.841C135.596 117.742 135.398 117.659 135.217 117.544C134.887 115.285 137.129 113.719 135.398 112.878V112.895Z" fill="#4C3616"/>
<path d="M139.173 114.28C138.91 114.824 139.322 115.994 139.47 116.637C139.52 116.901 139.553 117.181 139.569 117.445C139.635 118.071 140.162 118.55 140.805 118.5C142.47 118.368 141.745 116.307 141.284 114.395C141.086 113.488 139.618 113.291 139.14 114.28H139.173Z" fill="#4C3616"/>
<path d="M148.735 110.422C148.587 111.312 148.438 112.219 148.339 113.126C147.977 116.275 150.252 116.538 151.686 116.077C152.939 115.665 152.411 113.62 150.961 114.049C150.697 114.115 150.598 114.098 150.417 114.049C150.285 112.285 151.637 109.581 149.774 109.581C149.279 109.581 148.818 109.927 148.735 110.439V110.422Z" fill="#4C3616"/>
<path d="M158.313 109.103C157.901 108.905 157.308 109.07 157.126 109.515C157.077 109.647 156.912 109.993 156.83 110.092C156.022 110.702 155.082 111.131 155.692 111.988C156.681 113.455 160.044 109.96 158.33 109.103H158.313Z" fill="#4C3616"/>
<path d="M157.374 105.015C156.879 103.63 155.165 105.015 153.879 105.74C152.873 106.301 153.78 107.982 154.934 107.273C155.214 107.108 155.461 106.911 155.742 106.729C156.632 106.169 157.72 106.004 157.374 104.998V105.015Z" fill="#4C3616"/>
<path d="M154.489 96.6564C153.928 95.1562 154.555 93.1284 152.988 93.1284C152.362 93.1284 151.834 93.689 151.884 94.3319C151.983 95.3705 152.032 96.0135 152.247 96.9202C152.988 100.085 156.055 98.0742 154.489 96.6564Z" fill="#4C3616"/>
<path d="M158.379 93.0955C158.28 91.9744 158.313 90.8534 157.11 90.8534C156.434 90.8534 155.89 91.4469 155.956 92.1063C155.989 92.502 156.022 92.8812 156.055 93.2768C156.203 94.843 158.511 94.5957 158.379 93.0955Z" fill="#4C3616"/>
<path d="M149.79 88.1827C150.087 88.3311 150.532 88.2156 150.664 87.8859C151.027 87.0122 151.867 86.0065 151.06 85.6109C150.73 85.446 150.351 85.6109 150.186 85.9076C149.774 86.7154 149.015 87.8035 149.79 88.1827Z" fill="#4C3616"/>
<path d="M160.968 99.3435C161.924 99.8216 163.671 99.426 163.259 98.2884C163.111 97.8763 162.732 97.629 162.039 97.7939C161.165 97.9258 161.132 96.8707 160.951 95.9145C160.753 95.0078 159.896 94.9748 159.484 95.4364C159.138 95.865 159.352 96.3761 159.484 96.9861C159.715 98.1236 159.88 98.7995 160.968 99.3435Z" fill="#4C3616"/>
<path d="M166.738 91.0842C166.144 90.1774 164.644 91.0512 165.303 92.0733C165.435 92.2711 165.567 92.469 165.699 92.6833C166.276 93.6065 167.776 92.7327 167.117 91.6941C166.985 91.4963 166.853 91.282 166.721 91.0842H166.738Z" fill="#4C3616"/>
<path d="M167.908 83.4018C167.018 82.4786 165.386 83.8799 166.507 85.0339C167.512 86.0725 168.749 87.5892 169.672 86.5011C170.035 86.089 170.035 85.3306 169.557 84.9844C169.095 84.6382 168.32 83.8304 167.908 83.4018Z" fill="#4C3616"/>
<path d="M138.184 50.9907C136.766 50.9907 135.448 56.5958 138.25 55.9859C138.926 55.8375 139.107 54.7329 138.349 54.3538C138.316 54.0241 138.399 53.6943 138.497 53.3481C138.679 52.8536 139.14 51.9798 138.976 51.5512C138.877 51.2379 138.563 50.9907 138.168 50.9907H138.184Z" fill="#4C3616"/>
<path d="M133.288 45.7976C132.876 47.2154 132.315 49.375 133.815 49.2761C134.294 49.2432 134.673 48.798 134.623 48.3199C134.557 47.7594 134.887 46.7043 135.052 46.1438C135.349 45.1052 133.651 44.5447 133.288 45.7976Z" fill="#4C3616"/>
<path d="M132.53 35.1478C132.497 34.7027 132.167 34.34 131.59 34.34C130.881 34.34 130.452 35.3456 131.079 35.8897C131.656 36.4007 132.595 35.9556 132.53 35.1478Z" fill="#4C3616"/>
<path d="M140.674 29.5096C140.311 29.7239 140.245 30.2515 140.476 30.5647C140.888 31.1582 141.382 30.845 141.943 30.5317C142.751 30.0372 142.025 28.7018 141.069 29.2623C140.937 29.3448 140.805 29.4272 140.674 29.5096Z" fill="#4C3616"/>
<path d="M140.657 24.3825C141.729 24.3825 141.795 22.635 140.525 22.635C139.454 22.635 139.388 24.3825 140.657 24.3825Z" fill="#4C3616"/>
<path d="M146.905 18.9257C147.878 18.8103 148.735 19.272 148.933 18.2333C149.131 17.1947 148.109 17.1453 147.136 17.1453C145.735 17.1453 145.059 17.8542 144.119 18.8268C143.789 19.173 143.872 19.7665 144.218 20.0798C145.224 20.97 145.636 19.272 146.905 18.9257Z" fill="#4C3616"/>
<path d="M146.839 27.1027C146.971 27.4654 147.861 27.927 148.208 28.0918C149.048 28.471 149.708 28.471 150.367 28.2072C151.323 27.828 150.73 26.4927 149.873 26.8224C149.79 26.8554 149.724 26.8884 149.642 26.9048C148.982 26.9048 148.455 26.5586 147.878 26.1795C147.383 25.8662 146.608 26.4268 146.856 27.0862L146.839 27.1027Z" fill="#4C3616"/>
<path d="M150.977 21.7448C152.098 21.8602 152.395 21.8437 153.631 22.2559C154.851 22.4537 155.231 20.7721 154.241 20.4259C152.857 19.9643 150.466 19.2225 150.202 20.5908C150.103 21.0689 150.45 21.6789 150.977 21.7448Z" fill="#4C3616"/>
<path d="M151.472 31.8836C151.257 32.3452 151.356 32.8563 151.933 33.219C152.131 33.3344 154.225 34.6038 154.373 34.7851C154.95 35.3786 156.088 34.884 156.022 33.9443C155.972 33.2025 154.934 32.7409 154.274 32.3452C153.17 31.6693 152.065 30.7296 151.472 31.9001V31.8836Z" fill="#4C3616"/>
<path d="M152.395 36.4172C152.115 36.2853 152.065 36.2358 151.983 36.1699C151.67 35.7577 151.587 35.2961 151.142 35.2137C150.615 35.1148 150.103 35.6258 150.45 36.2688C151.933 39.0384 153.615 37.0271 152.395 36.4172Z" fill="#4C3616"/>
<path d="M163.836 30.878C162.798 29.9877 161.198 30.7955 161.297 32.1639C161.347 32.9387 161.94 33.5816 162.946 33.5816C164.182 33.5816 164.924 31.8177 163.836 30.878Z" fill="#4C3616"/>
<path d="M162.089 25.5365C162.534 25.6519 162.979 25.3057 163.061 24.8771C163.276 23.7726 161.66 23.7231 160.209 23.3604C159.781 23.245 159.319 23.5912 159.237 24.0034C159.022 25.1079 160.621 25.1409 162.089 25.5201V25.5365Z" fill="#4C3616"/>
<path d="M163.193 38.2471C164.018 37.4888 164.792 36.681 165.534 35.8567C166.26 35.0489 165.023 33.8784 164.248 34.7521C163.49 35.5764 162.732 36.3842 161.907 37.1426C161.182 37.769 162.204 39.1538 163.193 38.2471Z" fill="#4C3616"/>
<path d="M165.04 20.9535C165.468 21.1843 165.963 21.3162 166.441 21.4151C167.496 21.6129 168.568 22.0251 168.782 20.937C169.046 19.5357 167.133 19.9314 165.913 19.3214C165.814 18.5631 165.254 18.0025 164.298 18.0025C163.061 18.0025 162.319 19.7665 163.408 20.7062C163.836 21.0689 164.529 21.1843 165.04 20.9535Z" fill="#4C3616"/>
<path d="M166.606 15.1999C166.556 14.4251 165.963 13.7822 164.957 13.7822C163.721 13.7822 162.979 15.5461 164.067 16.4858C165.106 17.3761 166.705 16.5683 166.606 15.1999Z" fill="#4C3616"/>
<path d="M168.287 23.3274C169.112 23.8385 170.2 24.7123 170.612 23.855C171.007 23.0637 170.101 22.8988 168.864 22.1075C168.782 22.058 168.683 22.0415 168.584 22.0415C167.958 22.0415 167.545 22.8494 168.271 23.3274H168.287Z" fill="#4C3616"/>
<path d="M175.26 23.2942C175.178 23.2616 175.146 23.2616 175.26 23.2942Z" fill="#4C3616"/>
<path d="M174.42 25.0584C175.178 25.3057 175.937 25.5365 176.679 25.7673C176.942 25.8662 177.206 25.9816 177.47 26.13C177.932 26.3608 178.509 26.1465 178.723 25.6849C178.954 25.2068 178.739 24.6628 178.294 24.432C177.305 23.9044 174.997 23.212 175.294 23.3109C174.239 22.9647 173.662 23.789 173.925 24.5144C173.991 24.7287 174.189 24.9925 174.404 25.0584H174.42Z" fill="#4C3616"/>
<path d="M174.766 31.5209C175.805 32.4111 177.404 31.6033 177.305 30.235C177.256 29.4602 176.662 28.8172 175.656 28.8172C174.42 28.8172 173.678 30.5812 174.766 31.5209Z" fill="#4C3616"/>
<path d="M184.509 34.2575C184.015 33.5322 183.817 32.7408 183.059 32.7408C182.3 32.7408 181.839 33.5322 182.251 34.2575C183.553 36.4502 183.388 35.9391 184.46 37.192C185.383 38.2966 186.784 36.9942 186.059 36.0875C185.466 35.3621 185.053 35.0489 184.526 34.274L184.509 34.2575Z" fill="#4C3616"/>
<path d="M182.317 45.1876C183.883 46.523 185.845 44.149 184.328 42.8467C182.762 41.5113 180.8 43.8853 182.317 45.1876Z" fill="#4C3616"/>
<path d="M178.723 49.5894C177.899 49.5894 177.866 50.2982 177.816 51.0896C177.75 52.6557 178.789 53.3152 179.432 52.8536C179.778 52.6063 179.91 52.0622 179.646 51.716C179.382 51.4523 179.481 50.9577 179.547 50.5785C179.613 50.0345 179.234 49.5894 178.739 49.5894H178.723ZM179.514 51.5512C179.514 51.5512 179.514 51.5512 179.514 51.5347C179.514 51.5347 179.514 51.5512 179.514 51.5677V51.5512ZM179.498 51.5017C179.498 51.5017 179.498 51.5017 179.498 51.5182C179.465 51.4687 179.448 51.4193 179.415 51.3698C179.432 51.4193 179.465 51.4523 179.481 51.5017H179.498Z" fill="#4C3616"/>
<path d="M182.086 54.3208C182.102 54.7165 182.135 55.31 182.069 55.6727C181.608 56.9256 183.223 57.3872 183.603 56.4475C183.932 55.6727 183.899 55.0792 183.85 54.1889C183.8 53.0844 182.037 53.1009 182.102 54.3208H182.086Z" fill="#4C3616"/>
<path d="M180.701 57.6345C180.404 58.6236 179.91 59.6622 180.932 59.86C181.839 60.0249 181.954 58.8544 182.251 57.9477C182.498 57.0904 181.064 56.4969 180.718 57.6509L180.701 57.6345Z" fill="#4C3616"/>
<path d="M122.49 18.7938C123.875 21.4645 125.622 21.0689 124.287 23.3604C123.396 24.8771 123.215 26.3608 123.528 27.4654C123.858 28.6194 125.556 30.8944 127.089 31.6033C128.012 32.032 128.589 30.6636 127.732 30.268C127.205 30.0372 127.073 30.0042 126.265 29.114C126.265 29.114 126.265 29.1304 126.281 29.1469C126.183 29.0315 126.265 29.114 126.15 29.015C126.15 29.015 126.166 29.0315 126.183 29.048C124.864 27.5148 124.122 26.2619 125.556 24.0693C125.358 24.3496 125.985 23.4923 126.215 23.0142C126.644 22.0086 126.347 20.937 125.655 20.1622C125.457 19.9478 124.583 19.0576 124.781 19.2554C122.721 16.9474 121.566 10.0563 123.578 3.89065C123.891 2.96744 124.171 2.50584 124.171 2.50584C127.089 3.98956 129.084 5.78652 131.194 7.15484C129.842 6.33055 136.14 9.97392 138.432 13.3205C139.091 14.2767 139.569 15.5132 140.525 14.8372C141.382 14.2602 140.674 13.4359 140.08 12.5952C137.574 8.88585 130.65 4.83034 131.887 5.65463C130.897 4.9952 125.276 0.576996 124.089 0.576996C123.627 0.576996 123.199 0.923198 123.215 1.46723C123.017 1.5002 122.869 1.59912 122.721 1.731C121.863 2.53881 121.187 6.77567 121.022 8.16048C120.792 10.2542 121.022 16.0242 122.473 18.7938H122.49Z" fill="#4C3616"/>
<path d="M126.264 29.1131C126.264 29.1131 126.215 29.0642 126.199 29.0315C126.232 29.0642 126.248 29.0805 126.264 29.1131Z" fill="#4C3616"/>
<path d="M194.648 4.35225C194.203 3.11582 193.115 1.13752 191.912 0.478085C190.955 -0.0329755 190.411 0.0989112 189.373 0.412142C185.977 1.36832 178.327 12.0017 178.69 13.0403C178.904 13.6173 179.712 13.5843 179.877 13.1062C180.388 11.7049 180.635 11.8038 182.943 8.62208C183.85 7.38565 185.845 4.43468 188.548 2.34098C189.109 1.91235 190.296 1.25292 190.988 1.45075C191.483 1.64858 191.664 1.78047 191.862 1.99478C192.192 2.39044 192.835 3.42905 193.066 3.85768C193.016 3.75876 193.066 3.85768 193.131 3.97308C193.131 3.94011 193.098 3.92362 193.082 3.89065C194.236 6.2811 194.368 8.63857 194.516 10.4355C194.829 14.4416 194.994 15.9583 192.109 21.1348C191.269 22.668 192.06 22.4207 192.604 26.4762C192.901 28.6029 192.868 28.8832 191.697 30.0866C191.45 30.3504 190.576 31.1912 190.527 31.5044C190.428 31.9825 190.741 32.4276 191.203 32.5265C191.747 32.6254 192.093 32.2298 192.472 31.7682C194.285 29.5261 194.862 29.3118 193.857 24.8277C193.692 24.0693 193.033 22.2394 193.033 22.2394C193.066 22.058 193.28 21.7283 193.395 21.5635C194.22 20.327 195.522 18.3982 195.967 14.9197C196.132 13.6832 195.967 8.04508 194.665 4.38523L194.648 4.35225Z" fill="#4C3616"/>
</g>
<defs>
<clipPath id="clip0_24_6424">
<rect width="196" height="333.937" fill="white"/>
</clipPath>
</defs>
</svg>
