<svg width="24" height="25" viewBox="0 0 24 25" fill="none" xmlns="http://www.w3.org/2000/svg">
<g clip-path="url(#clip0_24_6877)">
<path d="M17.5 0.5H6.5C4.77691 0.502645 3.12514 1.18831 1.90673 2.40673C0.688314 3.62514 0.00264482 5.27691 0 7L0 18C0.00264482 19.7231 0.688314 21.3749 1.90673 22.5933C3.12514 23.8117 4.77691 24.4974 6.5 24.5H17.5C19.2231 24.4974 20.8749 23.8117 22.0933 22.5933C23.3117 21.3749 23.9974 19.7231 24 18V7C23.9974 5.27691 23.3117 3.62514 22.0933 2.40673C20.8749 1.18831 19.2231 0.502645 17.5 0.5ZM12 18C10.9122 18 9.84883 17.6774 8.94436 17.0731C8.03989 16.4687 7.33494 15.6098 6.91866 14.6048C6.50238 13.5998 6.39346 12.4939 6.60568 11.427C6.8179 10.3601 7.34172 9.3801 8.11091 8.61091C8.8801 7.84172 9.86011 7.3179 10.927 7.10568C11.9939 6.89346 13.0998 7.00238 14.1048 7.41866C15.1098 7.83494 15.9687 8.53989 16.5731 9.44436C17.1774 10.3488 17.5 11.4122 17.5 12.5C17.5 13.9587 16.9205 15.3576 15.8891 16.3891C14.8576 17.4205 13.4587 18 12 18ZM18.5 7C18.2033 7 17.9133 6.91203 17.6666 6.7472C17.42 6.58238 17.2277 6.34811 17.1142 6.07403C17.0007 5.79994 16.9709 5.49834 17.0288 5.20736C17.0867 4.91639 17.2296 4.64912 17.4393 4.43934C17.6491 4.22956 17.9164 4.0867 18.2074 4.02882C18.4983 3.97094 18.7999 4.00065 19.074 4.11418C19.3481 4.22771 19.5824 4.41997 19.7472 4.66664C19.912 4.91332 20 5.20333 20 5.5C20 5.89782 19.842 6.27936 19.5607 6.56066C19.2794 6.84196 18.8978 7 18.5 7Z" fill="white"/>
</g>
<defs>
<clipPath id="clip0_24_6877">
<rect width="24" height="24" fill="white" transform="translate(0 0.5)"/>
</clipPath>
</defs>
</svg>
