<svg width="182" height="396" viewBox="0 0 182 396" fill="none" xmlns="http://www.w3.org/2000/svg">
<path d="M-39.058 226.924C-39.058 226.924 91.1612 240.333 143.822 92.232C143.822 92.232 27.7572 100.066 -39.058 226.924Z" fill="#374F3F"/>
<path d="M143.822 92.2442L-39.058 226.924" stroke="#192D1F" stroke-width="1.28878" stroke-miterlimit="10"/>
<path d="M101.358 149.655L52.3879 159.578L75.2099 119.632" stroke="#192D1F" stroke-width="1.28878" stroke-miterlimit="10"/>
<path d="M52.8613 184.525L3.89107 194.46L26.7131 154.514" stroke="#192D1F" stroke-width="1.28878" stroke-miterlimit="10"/>
<path d="M-35.9625 233.653C-36.8244 233.738 -37.6984 233.835 -38.5603 233.932L-38.5603 233.944C-38.1475 234.685 -23.4225 261.49 8.6012 285.052C43.9025 310.982 100.217 332.966 181.575 311.723L181.575 311.699C180.956 310.934 156.447 280.109 108.265 257.021C107.525 256.668 106.784 256.316 106.032 255.976C70.8883 239.555 23.5326 227.447 -35.9503 233.653L-35.9625 233.653Z" fill="#5C893F"/>
<g style="mix-blend-mode:multiply" opacity="0.32">
<path d="M-35.9623 233.653C-30.8759 241.79 -15.993 263.239 10.2644 282.538C20.9349 279.854 31.5933 277.194 42.276 274.498C43.9391 274.097 45.6022 273.672 47.2653 273.247C54.3061 271.473 61.3348 269.712 68.3635 267.83C71.1677 267.077 73.984 266.299 76.7761 265.486C85.213 263.081 93.5891 260.433 101.82 257.348C102.682 257.02 104.199 256.559 106.032 255.964C70.8885 239.543 23.5328 227.434 -35.9502 233.641L-35.9623 233.653Z" fill="#527F34"/>
</g>
<path d="M-38.5724 233.932L-38.5603 233.944L15.0108 252.867L65.4013 270.672L71.4953 272.822L181.563 311.699L181.575 311.723" stroke="#355722" stroke-width="1.28878" stroke-miterlimit="10"/>
<path d="M108.265 308.772L71.5074 272.822L118.62 269.166" stroke="#355722" stroke-width="1.28878" stroke-miterlimit="10"/>
<path d="M50.6036 287.651L13.8334 251.713L60.9585 248.045" stroke="#355722" stroke-width="1.28878" stroke-miterlimit="10"/>
<path d="M-49.3886 247.134C-49.3886 247.134 66.591 307.873 170.358 189.869C170.358 189.869 59.6594 154.101 -49.3886 247.134Z" fill="#659549"/>
<path d="M170.359 189.869L-49.3884 247.134" stroke="#355722" stroke-width="1.28878" stroke-miterlimit="10"/>
<path d="M109.649 227.434L60.4849 218.495L96.4903 189.869" stroke="#355722" stroke-width="1.28878" stroke-miterlimit="10"/>
<path d="M51.6838 241.839L2.51935 232.9L38.5247 204.261" stroke="#355722" stroke-width="1.28878" stroke-miterlimit="10"/>
<path d="M-27.0399 217.256C-27.0399 217.256 85.6257 150.578 39.9573 0.182151C39.9573 0.182151 -48.7087 75.5199 -27.0399 217.256Z" fill="#77AD55"/>
<path d="M39.9695 0.170001L-27.0399 217.256" stroke="#355722" stroke-width="1.28878" stroke-miterlimit="10"/>
<path d="M39.9453 71.5969L6.4649 108.713L1.08716 63.0101" stroke="#355722" stroke-width="1.28878" stroke-miterlimit="10"/>
<path d="M21.6755 128.486L-11.8049 165.602L-17.1947 119.899" stroke="#355722" stroke-width="1.28878" stroke-miterlimit="10"/>
<path d="M-64.5871 237.843C-64.5871 237.843 -55.8953 368.527 98.8696 395.563C98.8696 395.563 71.641 282.404 -64.5871 237.843Z" fill="#77AD55"/>
<path d="M98.8696 395.563L-64.5871 237.843" stroke="#C2C155" stroke-width="1.28878" stroke-miterlimit="10"/>
<path d="M35.1623 363.341L17.1474 316.703L60.3394 332.504" stroke="#C2C155" stroke-width="1.28878" stroke-miterlimit="10"/>
<path d="M-7.36206 321.367L-25.3769 274.741L17.8271 290.542" stroke="#C2C155" stroke-width="1.28878" stroke-miterlimit="10"/>
</svg>
