<svg width="24" height="25" viewBox="0 0 24 25" fill="none" xmlns="http://www.w3.org/2000/svg">
<g clip-path="url(#clip0_24_6866)">
<path opacity="0.3" d="M20 8.5L12 13.5L4 8.5V18.5H20V8.5ZM20 6.5H4L12 11.49L20 6.5Z" fill="white"/>
<path d="M4 20.5H20C21.1 20.5 22 19.6 22 18.5V6.5C22 5.4 21.1 4.5 20 4.5H4C2.9 4.5 2 5.4 2 6.5V18.5C2 19.6 2.9 20.5 4 20.5ZM20 6.5L12 11.49L4 6.5H20ZM4 8.5L12 13.5L20 8.5V18.5H4V8.5Z" fill="white"/>
</g>
<defs>
<clipPath id="clip0_24_6866">
<rect width="24" height="24" fill="white" transform="translate(0 0.5)"/>
</clipPath>
</defs>
</svg>
