<svg width="64" height="64" viewBox="0 0 64 64" fill="none" xmlns="http://www.w3.org/2000/svg">
<path fill-rule="evenodd" clip-rule="evenodd" d="M30.125 1.83402C26.707 2.1799 23.3505 3.37927 20.5588 5.25227C18.6803 6.51265 16.2254 8.96227 15.0885 10.711C13.5931 13.0109 12.6395 15.2214 12.1058 17.6248C11.8529 18.7636 11.8141 19.2763 11.8134 21.4998C11.8126 23.7171 11.851 24.2343 12.0988 25.3396C12.7833 28.395 13.5931 30.5688 15.4414 34.3123C17.703 38.8931 19.8634 42.3459 23.9605 47.9278C25.4964 50.0203 29.0906 54.4291 31.2334 56.8493L32.0409 57.7613L32.6143 57.1074C35.3254 54.0156 38.1947 50.4911 40.1815 47.8123C40.7934 46.9873 41.4433 46.1154 41.6256 45.8748C42.8864 44.2115 45.3819 40.3373 46.7868 37.8619C50.9319 30.5588 52.7181 24.7525 52.2702 20.0375C51.9864 17.0478 51.3865 15.0066 50.059 12.5135C49.0656 10.6475 48.5039 9.82327 47.3239 8.49977C45.887 6.88815 43.2527 4.87902 41.2714 3.88365C38.1011 2.29102 33.6669 1.47565 30.125 1.83402ZM31.2215 14.7651C29.4893 14.9473 28.1026 15.6475 26.6758 17.0604C24.9981 18.7216 24.2669 20.617 24.4123 22.9266C24.5179 24.605 25.0123 25.878 26.0561 27.1595C27.2416 28.6149 28.8785 29.5814 30.7852 29.952C31.8086 30.1509 31.9669 30.1516 33.1219 29.962C35.797 29.5229 37.6964 28.1604 38.8623 25.8441C39.5208 24.5359 39.7956 23.2676 39.7088 21.9373C39.5004 18.7469 37.2871 15.9919 34.1875 15.0646C33.0046 14.7109 32.3583 14.6455 31.2215 14.7651ZM13.9847 44.781C13.6961 45.3481 12.4265 47.4278 10.5696 50.3748C9.9415 51.3716 9.06425 52.7653 8.62012 53.4718C8.17587 54.1783 7.37437 55.4439 6.83875 56.2843C5.51387 58.3634 5.25 58.8978 5.25 59.5018C5.25 60.3741 5.91925 61.2615 6.75863 61.5023C7.26025 61.6461 10.2365 61.6548 20.3349 61.5418L27.7323 61.459L26.442 60.0106C25.7325 59.214 24.9349 58.3209 24.6698 58.0259L24.1875 57.4896L17.7146 57.4009L11.2417 57.3123L12.1929 55.7498C12.716 54.8904 13.272 53.9904 13.4285 53.7498C15.4288 50.674 16.8921 48.2245 16.8285 48.0588C16.7513 47.8576 14.3589 44.2498 14.3027 44.2498C14.2765 44.2498 14.1334 44.4889 13.9847 44.781ZM48.9945 45.4006C48.626 45.9708 48.0828 46.772 47.7873 47.181C47.4918 47.5901 47.25 47.9956 47.25 48.0823C47.25 48.1689 47.6226 48.8468 48.078 49.5885C48.5334 50.3304 49.1622 51.3591 49.4755 51.8748C49.7887 52.3904 50.6761 53.8071 51.4473 55.023C52.2184 56.2389 52.8176 57.2655 52.7789 57.3043C52.74 57.343 49.8284 57.3748 46.3085 57.3748H39.9086L39.1106 58.3424C38.6716 58.8746 37.8765 59.7969 37.3438 60.3919C36.811 60.9869 36.375 61.5078 36.375 61.5493C36.375 61.6725 56.6415 61.6295 57.1779 61.5051C57.864 61.3459 58.2651 61.0186 58.6054 60.3405C59.0141 59.5255 58.9001 59.0255 57.9574 57.4994C54.8887 52.5313 49.9112 44.611 49.767 44.4668C49.7105 44.4103 49.3629 44.8305 48.9945 45.4006Z" fill="white"/>
</svg>
