<svg width="781" height="161" viewBox="0 0 781 161" fill="none" xmlns="http://www.w3.org/2000/svg">
<g clip-path="url(#clip0_0_1)">
<path d="M639.49 124.278C528.633 98.7478 374.217 76.5373 202.264 63.6696C80.9047 54.5778 -33.0093 51.3494 -130 53.2773V217.683C-39.5329 232.501 65.9122 244.993 178.905 253.457C359.239 266.952 523.163 267.511 639.49 257.484V124.278Z" fill="#9DCA55"/>
</g>
<path d="M869 78.4805C834.485 80.9457 799.201 83.9286 763.323 87.429C376.667 125.266 68.3694 210.421 74.6925 277.651C81.0157 344.867 399.602 368.703 786.24 330.865C814.258 328.128 841.873 325.131 869 321.917V78.4805Z" fill="#3D7D40"/>
<path d="M78.3607 127.881C12.6313 121.438 -51.1068 116.821 -111.613 113.92V347.522C-58.1287 355.109 -2.05866 361.851 55.793 367.517C436.405 404.755 749.995 381.301 756.231 315.133C762.467 248.952 458.973 165.119 78.3607 127.881Z" fill="#146841"/>
<path d="M78.3607 127.881C12.6313 121.438 -51.1068 116.821 -111.613 113.92V347.522C-58.1287 355.109 -2.05866 361.851 55.793 367.517C436.405 404.755 749.995 381.301 756.231 315.133C762.467 248.952 458.973 165.119 78.3607 127.881Z" fill="#146841"/>
<g clip-path="url(#clip1_0_1)">
<path d="M849.333 107.845C845.421 99.0534 842.876 89.8224 841.518 80.3935C839.83 68.6525 824.247 52.6872 807.772 52.6872C795.868 52.6872 756.654 36.9988 751.397 33.7504C744.645 29.5788 741.55 22.1852 733.444 19.9038C725.848 17.7631 717.576 20.3742 709.984 20.8797C703.593 21.3061 696.788 20.7258 690.577 19.9126C687.553 19.517 685.421 18.2466 682.15 18.295C679.012 18.3433 676.027 19.2928 672.99 19.2708C664.994 19.2137 666.251 11.5915 660.55 8.92328C655.517 6.57156 647.503 9.49033 641.846 7.95182C635.973 6.35617 630.413 5.15614 624.259 4.39128C618.131 3.62642 612.254 2.84837 606.302 1.74065C598.306 0.254891 589.422 -0.246222 582.06 2.70332C575.545 5.30999 570.912 7.21334 563.646 6.38694C558.076 5.74956 544.85 3.97368 540.137 7.72764L546.582 22.4929C545.083 26.0271 548.551 33.8955 549.127 37.7593C550.054 43.9881 551.232 50.4014 550.336 56.7445C549.316 63.9623 547.536 71.4043 544.384 78.055C540.494 86.2662 536.379 94.328 536.682 103.528C537.017 113.674 544.098 121.639 555.637 123.309C578.464 126.615 602.504 121.269 625.353 120.395C643.631 119.696 661.763 117.397 680.036 116.526C701.241 115.52 722.393 115.234 743.629 115.234C767.731 115.234 792 115.467 815.46 121.01C829.263 124.272 840.793 128.355 855.039 126.496C855.483 121.168 851.558 112.816 849.342 107.845H849.333Z" fill="#88938F"/>
<path d="M848.445 114.298C839.645 103.115 838.911 90.6136 822.599 86.6355C817.601 85.4179 812.444 86.363 807.767 84.3717C802.734 82.231 802.295 79.1364 799.059 75.5187C796.105 72.2175 775.824 56.3049 773.872 64.3975C760.812 64.248 774.413 42.6034 755.955 48.4893C757.603 50.8191 757.915 58.5687 752.79 56.6126C750.109 55.5884 751.704 48.5377 749.3 47.83C741.888 45.6585 748.781 65.6239 741.124 66.336C740.684 57.3819 738.596 48.9904 739.058 39.9396C739.26 35.9131 741.102 31.5569 737.022 28.4667C733.264 25.6183 729.879 29.025 726.328 26.4359C724.697 30.1459 722.222 35.7549 717.119 34.1241C712.934 32.7834 713.826 28.2074 713.132 24.6117C711.303 15.1916 706.411 11.0333 695.887 12.2553C696.177 13.4949 695.404 15.3455 695.694 16.5851C686.63 19.2489 690.7 15.9301 688.828 9.71454C687.724 6.05289 683.425 3.50336 679.153 7.7936C676.014 10.9453 676.994 17.7675 677.196 21.9918C677.337 24.893 678.128 27.6052 677.245 30.4228C676.695 32.1723 674.357 33.4603 673.79 36.0626C671.526 46.4937 682.15 56.5159 676.247 66.9558C672.124 74.2439 670.576 70.2526 667.504 66.2964C665.403 63.5887 658.906 59.0435 662.093 55.2763C659.055 49.9927 657.987 48.8014 658.348 43.21C658.664 38.2868 659.35 32.7526 659.609 27.6623C659.868 22.5281 660.26 16.1059 658.154 11.4904C656.413 7.67492 650.598 4.61988 653.209 0.131836C647.692 2.82642 647.578 12.4751 647.327 17.9653C647.165 21.5435 647.442 24.9502 646.677 28.3041C645.82 32.0537 642.765 34.2559 641.675 37.3373C637.956 47.8563 650.04 74.3099 640.202 82.0244C636.65 79.554 639.182 76.3802 638.923 72.8988C638.641 69.1405 637.859 67.7119 635.855 64.5162C634.044 61.6282 631.635 59.2017 630.545 56.0807C629.252 52.3839 630.632 50.6169 630.378 47.197C629.934 41.2232 629.265 9.34969 620.931 11.6047C620.742 15.3455 621.441 19.5742 620.848 23.2798C620.206 27.3151 617.938 30.6558 617.599 34.7702C617.261 38.9022 623.041 53.8785 615.757 54.0587C615.208 42.9595 611.678 33.9878 609.102 23.2007C608.32 23.4908 607.23 23.4732 606.566 23.7018C605.77 20.128 605.247 11.0289 599.994 16.5147C597.172 19.4643 599.436 26.8931 600.293 30.102C601.612 35.0296 602.073 38.133 600.293 43.0254C598.873 46.9376 598.768 49.8784 598.064 54.6565C597.383 59.2677 595.423 63.7689 596.416 69.0174C596.873 71.4351 601.814 80.3628 596.948 81.831C591.001 83.6244 590.262 59.3512 590.42 55.4478C590.557 52.0147 591.906 48.7662 591.743 45.087C591.612 42.0628 589.946 38.9066 589.954 36.0582C589.968 29.5921 593.409 26.1238 590.939 19.2577C589.844 16.2202 587.343 4.8045 585.119 3.08577C580.789 -0.254989 579.594 7.83316 579.435 11.4684C579.238 16.018 584.504 40.0407 577.985 37.5439C575.303 36.5153 573.251 27.6008 571.083 25.1699C569.33 23.205 568.226 24.0886 566.56 21.1962C565.409 19.1873 564.617 15.6576 564.006 13.5081C563.198 13.6311 562.248 13.8685 561.47 14.1982C559.962 18.0576 562.182 22.0885 560.595 26.2205C558.925 30.5811 556.274 31.3284 556.85 37.3505C557.408 43.1968 562.213 55.2587 556.846 60.0369C551.36 57.8127 554.542 51.3114 554.279 47.0607C553.892 40.8539 549.632 38.9022 547.786 33.4735C546.16 28.6777 545.676 23.5347 545.878 18.6115C546.05 14.3916 546.929 5.72321 540.146 7.72327C539.825 9.26178 540.094 12.8179 539.272 14.1015C538.181 15.7938 536.212 15.4817 535.038 16.8356C532.155 20.1588 531.711 20.8621 531.144 25.8645C530.26 33.6713 530.098 42.3748 528.432 50.2784C525.61 63.659 511.754 72.2834 500.611 78.8594C489.626 85.3432 475.784 86.0157 465.748 93.739C455.928 101.295 456.399 112.298 450.737 121.999C445.361 131.217 433.233 130.703 425.013 136.879H868.991C869.567 136.874 856.582 124.623 848.454 114.293L848.445 114.298Z" fill="#C1C7C2"/>
<path d="M552.744 39.4915C547.456 29.4868 548.366 20.3436 546.498 9.56969C545.944 6.39157 543.549 5.13439 541.329 7.95206L542.3 7.62677C545.056 12.2643 544.489 18.7084 544.247 24.1064C544.094 27.579 543.311 30.9286 543.272 34.4452C543.258 35.443 542.889 37.4167 543.272 38.3222C543.909 39.8211 544.735 39.175 545.531 40.2651C548.248 43.9751 548.933 50.9028 548.692 55.7733C548.56 58.4547 548.265 61.1668 548.779 63.8526C548.969 64.8373 550.243 70.1825 551.421 70.5649C551.421 70.5649 551.944 70.9429 551.931 70.9298C551.729 65.6593 555.087 61.5009 555.355 56.2436C555.483 53.7512 555.184 50.6874 555.334 48.3445C555.531 45.2631 554.243 42.3223 552.749 39.4871L552.744 39.4915Z" fill="#919191"/>
<path d="M569.422 46.4103C569.017 42.3135 568.305 38.2386 567.897 34.133C567.497 30.1461 568.059 26.8757 567.097 23.2272C566.508 20.9898 566.332 14.0797 563.624 13.7764L563.303 14.1017C562.068 17.016 564.046 21.3282 564.666 24.4404C565.475 28.4977 564.798 32.0143 564.595 36.0759C564.362 40.8101 566.213 43.641 567.914 47.6191C569.127 50.4544 567.576 55.9007 569.439 58.0942C571.343 55.3336 569.738 49.5972 569.422 46.4147V46.4103Z" fill="#919191"/>
<path d="M578.486 54.4059C578.486 48.9772 581.295 36.7307 575.576 34.4537L574.93 34.1328C574.754 37.434 575.756 40.9726 575.576 44.4716C575.339 49.0783 575.251 53.1092 575.251 57.7203C575.251 62.9908 575.598 68.2657 575.914 73.4659C576.077 76.1253 575.572 81.7738 577.44 83.5409C578.899 79.4001 577.624 73.8175 577.835 69.4262C578.073 64.437 578.481 59.4874 578.481 54.4103L578.486 54.4059Z" fill="#919191"/>
<path d="M593.638 75.1314C593.352 72.5027 591.55 70.0016 591.414 67.4081C591.132 62.1112 591.559 57.0341 592.165 51.79C592.442 49.4207 592.477 46.0272 592.381 43.4953C592.275 40.8447 590.614 38.5501 590.759 35.7412C591.027 30.4971 592.258 25.1826 591.717 19.9254C591.475 17.5824 587.471 -0.176345 584.627 3.10727V2.78198C581.98 6.61946 586.473 13.279 587.545 17.3231C588.948 22.6199 587.145 27.7937 586.89 33.1565C586.618 38.8754 588.504 43.4557 588.508 49.0603C588.508 55.1703 588.447 61.3244 588.187 67.3334C587.972 72.2654 590.535 82.1997 595.19 84.6482C595.427 82.2393 593.906 77.5227 593.647 75.127L593.638 75.1314Z" fill="#919191"/>
<path d="M603.427 15.3361C603.243 15.1954 603.502 14.8745 603.326 14.7866C600.478 17.6834 604.346 23.0814 604.667 26.3782C605.067 30.5014 605.111 35.5257 606.276 39.4906C606.847 37.8994 607.137 30.2552 606.627 23.9693L607.955 23.8594C606.728 19.8901 605.128 15.2789 603.423 15.3317L603.427 15.3361Z" fill="#919191"/>
<path d="M615.665 48.9942C615.41 44.6908 615.652 39.0247 614.685 34.7784C613.946 31.53 612.733 23.833 608.86 23.7935L607.959 23.8682C608.627 26.0309 609.186 28.0002 609.59 28.9233C613.234 37.2532 612.852 43.649 611.441 52.5504C610.597 57.8604 611.304 62.5507 611.779 67.7552C612.003 70.2036 612.386 72.4718 612.751 74.8455C613.102 77.1357 612.412 79.316 612.799 81.5886C616.135 80.0633 614.32 68.7091 614.359 65.1397C614.417 59.6934 615.981 54.2515 615.669 48.9942H615.665Z" fill="#919191"/>
<path d="M630.94 53.9484C631.573 41.9173 632.215 26.185 625.903 15.4681C625.731 15.178 625.151 14.567 625.336 14.7429L624.689 14.0967C626.197 24.4223 625.67 35.3852 625.661 45.8383C625.652 53.4781 625.261 60.4673 625.991 68.0631C626.351 71.8171 626.786 75.6238 626.953 79.3646C627.068 81.9273 626.443 85.312 627.274 87.4967C628.786 82.5031 628.98 75.0875 629.213 69.606C629.476 63.452 630.606 60.186 630.936 53.9528L630.94 53.9484Z" fill="#919191"/>
<path d="M636.004 64.8281C630.984 66.3578 635.815 77.6109 636.004 81.3077C636.175 84.6661 635.758 87.1936 636.571 90.4289C637.204 92.9433 636.751 97.9852 638.268 99.7742C641.42 95.9148 640.259 84.9694 639.31 80.2616C638.822 77.8395 640.316 64.0369 636.655 65.1534L636.008 64.8281H636.004Z" fill="#919191"/>
<path d="M662.51 62.8893C662.137 60.3705 662.269 57.8474 662.106 55.3858C661.934 52.8011 660.655 51.456 659.899 48.9944C658.352 43.9788 659.319 36.9676 659.578 31.6356C659.877 25.4376 661.086 20.0748 659.917 14.1054C659.486 11.8944 658.268 -2.94564 653.13 0.526987V0.201703C649.275 2.69848 653.996 10.7734 653.776 14.4175C653.416 20.3605 652.4 26.4882 652.484 32.5148C652.528 35.7236 653.745 38.4578 654.18 41.5612C654.563 44.2865 653.807 47.1042 654.084 49.9702C654.655 55.8517 656.761 60.8233 660.238 65.5487C664.528 71.3774 661.618 78.1777 663.398 84.7581C663.974 77.782 663.53 69.7554 662.51 62.8849V62.8893Z" fill="#919191"/>
<path d="M691.584 45.0341C691.588 38.7966 691.847 31.8777 690.938 25.728C690.344 21.7147 690.872 17.108 689.957 13.1255C689.632 11.7056 688.876 8.67258 688.036 7.622C687.315 6.71648 684.52 4.56696 684.797 6.98461L685.122 6.33844C689.14 16.2025 686.898 24.7478 687.386 35.3415C687.663 41.3109 689.043 47.0869 689.324 52.9508C689.531 57.2586 688.348 61.8082 691.513 65.1138C693.575 59.5752 691.579 50.9595 691.584 45.0341Z" fill="#919191"/>
<path d="M713.879 44.388C714.151 38.3439 715.835 33.0558 715.154 27.0205C714.639 22.4797 714.776 16.6465 709.931 15.1344C709.386 14.963 708.912 14.8838 708.389 14.7388H707.742C711.76 17.596 711 25.1611 710.327 29.2799C709.312 35.491 707.778 40.8978 708.705 47.3024C709.518 52.9465 711.879 58.428 711.945 64.1776C712.024 71.2328 711.685 78.5868 712.323 85.4618C715.36 84.3672 714.358 70.5954 714.529 67.4876C714.951 59.817 713.532 52.1641 713.883 44.3836L713.879 44.388Z" fill="#919191"/>
<path d="M727.774 26.3744L725.747 26.5106C721.132 30.9064 726.376 38.6429 727.145 43.8079C728.081 50.1201 726.741 58.1292 729.128 64.1469C731.123 61.4787 729.664 56.0588 729.712 52.6213C729.761 49.241 730.033 45.6848 730.033 42.199C730.033 38.7132 729.884 35.434 730.372 32.1899C730.776 29.491 731.976 25.8952 727.769 26.3744H727.774Z" fill="#919191"/>
<path d="M734.548 27.3633C730.35 26.8797 736.64 40.3746 736.482 42.8362C736.139 48.0452 735.66 53.0871 736.192 58.3796C736.68 63.2544 736.038 68.1117 736.513 72.9031C736.847 76.2482 735.488 84.5298 738.763 86.4419C740.535 81.6066 738.908 75.202 739.475 69.9975C739.976 65.4084 741.181 60.9291 741.343 56.085C741.524 50.6914 741.194 45.2671 741.669 39.9439C742.161 34.3964 739.954 27.4644 734.548 27.3633Z" fill="#919191"/>
<path d="M749.542 48.1284V47.8075C749.115 47.6976 749.12 47.4383 748.645 47.5262C746.623 50.7351 749.432 53.4516 749.862 56.533C750.254 59.3287 748.166 64.1728 750.429 66.1993C751.062 64.2036 753.454 46.4316 749.542 48.1284Z" fill="#919191"/>
<path d="M764.285 48.6695C760.034 50.3223 762.667 63.7777 763.56 67.158C765.278 73.6856 765.019 80.4727 766.544 87.0223C766.553 79.0265 765.854 71.3559 767.766 63.7821C768.689 60.1204 768.821 49.9091 764.28 48.3442V48.6651L764.285 48.6695Z" fill="#919191"/>
<path d="M847.795 113.976C838.999 102.793 838.261 90.2964 821.948 86.3138C816.95 85.0962 812.647 85.1841 807.965 83.1973C802.932 81.0565 802.545 77.9048 799.31 74.2871C796.972 71.6716 782.835 62.0406 776.479 61.8164C775.956 61.9703 773.476 62.1417 773.261 62.9065C772.742 64.7615 775.999 65.3638 777.516 66.1374C780 67.4034 782.294 68.4891 784.716 70.221C790.444 74.3267 789.49 79.2719 789.49 85.8303C789.49 89.2458 788.725 92.6964 793.068 93.6064C796.629 94.3536 799.912 91.259 803.455 90.9997C810.11 90.5118 841.087 93.8261 837.008 102.974C836.709 103.646 836.955 103.211 837.061 103.888C834.063 104.09 830.942 104.068 828.498 106.055C833.012 115.115 838.665 124.144 848.758 127.735C846.846 127.691 843.404 126.957 842.577 129.124C848.639 132.737 854.767 134.522 861.593 134.641C861.655 134.553 861.642 134.465 861.554 134.381C862.692 134.333 864.257 134.157 866.02 133.972C862.002 129.827 853.646 121.405 847.799 113.976H847.795Z" fill="#919191"/>
<path d="M541.329 26.6952C541.329 24.027 542.577 15.4817 538.419 16.0312L536.155 17.3235C532.647 16.4092 534.463 25.2622 534.792 27.0161C535.768 32.2383 534.849 37.8033 534.863 43.1749C534.876 49.4344 534.216 55.6104 534.216 61.9007C534.216 66.0459 533.408 71.4834 535.5 75.1318C537.988 72.8373 536.964 65.6327 536.819 62.3271C536.599 57.3511 536.366 52.2608 536.155 47.2849C535.979 43.1441 537.421 39.4341 537.777 35.4164C538.076 32.0844 537.307 28.814 537.504 25.4425C540.902 27.1876 539.012 35.5482 540.08 38.933C542.463 38.2604 541.324 29.1656 541.324 26.6952H541.329Z" fill="#D8D3D3"/>
<path d="M562.652 25.4028C563.127 29.3106 559.685 32.7217 559.742 36.9548C559.813 42.1638 561.189 47.1353 561.681 52.2871C562.362 59.4126 561.035 67.048 561.035 74.2834C561.035 78.5648 560.455 84.1606 563.879 87.0838C564.683 80.4242 563.624 73.9889 563.299 67.4129C563.017 61.7863 563.334 55.9884 563.606 50.353C563.839 45.5353 562.358 42.5022 561.703 37.9834C561.408 35.9526 561.057 33.658 561.76 31.6096C562.543 29.3238 564.059 28.7524 562.982 26.0446L562.661 25.3984L562.652 25.4028Z" fill="#D8D3D3"/>
<path d="M582.688 13.7715C581.383 19.8991 584.042 25.4685 583.981 31.5346C583.915 37.9876 582.904 44.3658 582.618 50.8407C582.35 56.9288 581.743 62.7619 581.396 68.7006C581.308 70.2083 580.31 85 584.077 82.3669C585.198 81.5845 584.306 73.9667 584.306 72.6567V61.9136C584.306 56.3925 585.277 51.355 585.277 45.7592C585.277 40.1635 585.603 35.0424 585.603 29.6049C585.603 25.1696 585.967 18.4002 583.664 14.7429L582.693 13.7715H582.688Z" fill="#D8D3D3"/>
<path d="M653.209 68.3797C652.651 65.4873 650.813 63.2763 649.899 60.6432C649.068 58.2432 649.059 55.0826 648.928 52.5463C648.651 47.1 648.084 42.0229 648.589 36.7128C648.677 35.8029 650.176 32.2644 648.866 31.5918C647.495 30.8885 646.409 33.9172 646.347 34.7743L645.376 36.0667C639.855 40.6075 643.824 44.1021 644.712 49.566C645.815 56.3354 645.398 63.9005 645.701 70.7139C645.947 76.2613 645.578 81.7647 645.055 87.1231C644.655 91.2507 643.45 96.763 644.132 100.97C648.598 102.302 648.035 87.0176 648.615 84.1384C649.714 78.6613 654.356 74.292 653.209 68.3841V68.3797Z" fill="#D8D3D3"/>
<path d="M685.764 73.5493C685.764 66.5337 684.792 59.9049 684.792 52.8717C684.792 42.1285 682.397 32.0491 682.924 21.2048C683.065 18.3212 683.794 14.7299 683.821 12.4793L683.175 9.56934C677.891 12.7431 679.944 18.8443 680.265 24.1104C680.603 29.6359 681.298 34.4228 680.274 39.6318C679.302 44.5726 682.032 50.5332 682.274 55.852C682.63 63.5973 682.001 71.3646 681.948 79.0527C681.935 81.2242 683.012 87.4178 685.43 83.2463C686.696 81.066 685.755 76.0548 685.755 73.5493H685.764Z" fill="#D8D3D3"/>
<path d="M703.879 54.1682C703.127 46.7043 701.672 39.1172 700.648 31.6137C700.235 28.5895 700.595 26.0751 701.206 23.1431C701.641 21.0552 703.158 17.7716 702.002 15.6308C701.395 14.5055 700.177 13.9341 699.012 13.4462L696.749 12.1538C693.122 14.0396 696.393 25.596 696.423 29.2093C696.498 37.0688 697.267 45.1746 698.344 52.8891C699.144 58.6255 701.285 63.8828 701.272 69.672C701.263 72.8237 701.272 75.9755 701.272 79.1228C701.272 81.1844 700.208 87.1802 701.347 88.9869C701.5 89.2286 701.54 89.3693 701.654 89.6506C702.068 89.6814 702.424 89.6902 702.841 89.6594C704.226 78.525 705.021 65.54 703.874 54.1726L703.879 54.1682Z" fill="#D8D3D3"/>
<path d="M732.737 25.5304L732.09 25.2095C728.693 26.726 730.161 35.0076 730.152 38.2165C730.143 41.3858 731.062 43.8957 731.462 46.9244C731.941 50.5773 731.238 54.7884 730.873 58.4017C730.178 65.2722 729.185 71.9493 729.185 78.9297C729.185 83.2595 728.684 89.3344 732.082 92.4598C733.528 91.0971 732.842 85.8267 732.737 83.6815C732.574 80.3759 732.745 77.1495 732.737 73.7692C732.723 67.0041 733.989 61.316 734.684 54.9378C735.295 49.3113 735.647 43.8957 735.647 38.1373C735.647 33.7943 737.779 26.5897 732.737 25.5348V25.5304Z" fill="#D8D3D3"/>
<path d="M762.298 47.9706C763.678 49.5179 765.094 48.4014 765.111 48.3487C764.206 48.1816 760.381 46.6387 759.441 46.731L756.381 47.2234C750.944 50.9597 756.931 63.9843 757.177 69.6724C757.419 75.189 757.287 80.82 757.502 86.4025C757.634 89.9015 757.564 95.6907 759.449 98.4776C761.986 94.2357 760.399 86.6135 760.412 81.6991C760.425 76.5913 760.588 71.3867 760.082 66.3712C759.726 62.8502 756.689 48.5025 762.302 47.9662L762.298 47.9706Z" fill="#D8D3D3"/>
<path d="M462.232 129.379C459.533 126.065 458.684 127.656 455.045 128.166C451.524 128.663 451.256 125.942 448.192 124.693C444.35 123.124 442.979 125.238 441.146 127.88C440.249 124.245 438.798 126.588 436.649 127.221C435.185 127.652 435.286 126.43 433.717 127.502C433.435 127.696 432.983 129.568 432.675 130.047C427.844 126.311 425.154 131.384 425.325 136.236L465.392 137.208C464.988 134.597 464.003 131.555 462.232 129.379Z" fill="#3D7D40"/>
<path d="M611.124 137.208C611.124 132.122 611.023 127.788 616.368 126.773C618.448 126.377 617.186 128.074 618.874 126.206C619.476 125.542 619.195 123.981 619.924 123.388C621.626 122.003 624.637 123.318 625.982 124.645C628.162 122.285 627.986 117.251 630.822 114.596C633.49 112.1 635.666 113.476 638.593 114.509C645.789 117.045 644.936 110.526 647.56 106.108C649.279 103.212 651.095 103.343 653.78 103.603C655.583 103.779 654.844 105.062 656.607 103.603C657.539 102.833 657.337 100.741 658.053 99.8004C662.409 94.0684 665.02 103.818 667.35 106.209C667.715 106.583 667.864 107.295 668.053 107.774C670.115 106.46 671.728 104.183 674.528 105.458C676.607 106.407 677.9 109.366 678.722 111.313C681.421 110.157 683.069 110.275 685.122 112.728C687.355 115.392 686.463 117.062 689.896 117.098C692.744 117.128 694.85 115.928 697.487 118.381C699.597 120.346 699.417 122.645 699.659 125.256C700.27 131.779 705.54 129.744 710.063 132.276C711.663 133.173 711.923 133.986 713.875 133.929C715.189 133.894 716.103 132.162 718.081 132.676C720.112 133.204 721.277 135.292 722.288 136.918C722.284 137.16 722.275 137.147 722.27 136.887L611.115 137.208H611.124Z" fill="#3D7D40"/>
<path d="M824.12 93.5281C823.5 91.8225 823.148 87.3477 821.161 86.4509C818.845 85.4047 816.467 89.1191 815.346 90.7148C812.906 88.407 806.137 91.3082 805.587 94.4951C802.607 93.9369 801.266 97.1194 800.387 99.3964C798.862 103.348 799.002 102.689 795.059 102.227C792.035 101.871 789.973 102.746 788.277 105.608C786.989 107.783 787.411 111.124 785.283 112.676C781.349 110.619 779.217 111.7 778.118 116.149C776.531 116.039 774.087 117.252 773.085 118.54C772.452 119.357 773.002 120.311 772.452 121.124C771.982 121.823 770.795 121.982 770.496 122.742C768.852 126.949 775.67 125.248 778.817 125.248L783.666 121.692C785.173 121.045 787.595 121.485 789.481 121.371C793.2 121.146 791.705 119.854 794.018 118.206C795.125 117.414 797.991 117.59 799.257 117.252C800.092 117.028 800.703 116.443 801.763 116.201C802.796 115.968 803.969 116.439 804.994 116.127C808.959 114.931 809.469 109.036 811.055 105.537C812.471 102.412 816.673 97.6952 819.539 102.522C820.33 100.425 826.493 100.144 828.265 101.045C830.994 98.3282 827.816 92.6401 824.12 93.5237V93.5281Z" fill="#3D7D40"/>
<path d="M611.137 92.2744C610.421 90.8063 606.887 89.9359 605.287 90.6348C603.335 86.349 602.799 82.9907 597.783 81.0653C594.794 79.9136 594.781 81.1269 592.297 81.8741C590.473 82.4236 588.952 81.1532 587.119 81.8653C584.992 82.6917 584.961 86.0369 583.572 87.3644C581.541 89.3117 580.209 88.6216 577.506 88.0809C572.811 87.1446 569.387 89.3513 569.708 94.8284C569.088 94.6877 568.16 95.0701 567.549 94.9339C565.013 99.0922 575.136 97.9186 575.892 96.8152L577.51 97.1361C583.73 96.468 591.027 103.33 595.616 106.547C598.794 101.651 601.52 99.0878 607.238 96.8856C609.151 96.1515 612.777 95.6416 611.133 92.2744H611.137Z" fill="#3D7D40"/>
<path d="M600.385 133.081C599.339 131.314 597.383 129.885 595.853 128.575C594.201 127.155 592.113 125.802 590.763 124.034C588.882 121.573 589.858 121.511 589.792 118.469C589.708 114.408 587.427 110.579 584.288 108.122C582.956 107.08 579.62 106.122 579.106 104.575C578.429 102.539 580.785 100.517 581.998 99.3172C579.519 96.1523 574.09 97.6556 570.407 97.4666C566.129 97.2468 563.316 98.5216 559.76 101.41C556.103 104.377 552.468 106.293 549.637 110.078C547.114 113.454 540.467 133.16 537.812 136.483L601.748 137.538C601.291 136.861 601.146 134.373 600.385 133.085V133.081Z" fill="#D8D3D3"/>
<path d="M563.637 136.602C563.378 135.098 563.158 133.454 562.274 132.096C560.564 132.03 558.305 131.476 556.819 130.426C554.472 128.769 555.188 128.391 554.898 125.577C554.393 120.733 551.329 118.716 547.144 117.177C541.188 114.988 544.204 108.79 540.683 103.92C536.678 98.3809 531.865 107.445 530.99 98.4336C530.691 95.3742 530.159 93.106 528.313 90.6884C526.084 87.7652 523.724 89.3169 521.851 86.8025C519.97 84.275 520.761 81.0133 516.77 80.6617C513.328 80.3584 513.587 83.0574 511.592 84.908C508.471 79.5759 501.714 83.2288 500.211 88.0905C499.596 90.0773 500.308 92.9873 498.765 94.6401C497.059 96.4644 495.182 95.6116 492.861 95.8446C489.965 96.1347 489.481 96.7501 487.288 95.6028C485.459 94.6445 484.729 93.2862 482.197 93.2599C476.505 93.1983 475.969 97.6072 474.127 101.629C472.276 99.9238 470.953 95.6731 467.735 99.1414C465.718 101.317 467.573 106.122 465.454 107.436C464.201 105.08 462.548 103.207 460.865 106.816C459.792 109.115 461.067 112.223 461.19 114.588C461.471 120.149 489.301 114.913 494.149 136.883L563.299 136.237C563.387 136.347 563.672 137.037 563.637 136.597V136.602Z" fill="#3D7D40"/>
</g>
<defs>
<clipPath id="clip0_0_1">
<rect width="769.49" height="211.633" fill="white" transform="translate(-130 52.7412)"/>
</clipPath>
<clipPath id="clip1_0_1">
<rect width="444" height="135.431" fill="white" transform="translate(425)"/>
</clipPath>
</defs>
</svg>
