<svg width="182" height="396" viewBox="0 0 182 396" fill="none" xmlns="http://www.w3.org/2000/svg">
<path d="M221.058 169.076C221.058 169.076 90.8388 155.667 38.1782 303.768C38.1782 303.768 154.243 295.934 221.058 169.076Z" fill="#374F3F"/>
<path d="M38.1782 303.756L221.058 169.076" stroke="#192D1F" stroke-width="1.28878" stroke-miterlimit="10"/>
<path d="M80.6418 246.345L129.612 236.422L106.79 276.368" stroke="#192D1F" stroke-width="1.28878" stroke-miterlimit="10"/>
<path d="M129.139 211.475L178.109 201.54L155.287 241.486" stroke="#192D1F" stroke-width="1.28878" stroke-miterlimit="10"/>
<path d="M217.962 162.347C218.824 162.262 219.698 162.165 220.56 162.068L220.56 162.056C220.148 161.315 205.422 134.51 173.399 110.948C138.097 85.0176 81.7829 63.0344 0.424804 84.2767L0.424804 84.301C1.04391 85.0662 25.5533 115.891 73.7345 138.979C74.475 139.332 75.2155 139.684 75.9682 140.024C111.112 156.445 158.467 168.553 217.95 162.347L217.962 162.347Z" fill="#5C893F"/>
<g style="mix-blend-mode:multiply" opacity="0.32">
<path d="M217.962 162.347C212.876 154.21 197.993 132.761 171.736 113.462C161.065 116.146 150.407 118.806 139.724 121.502C138.061 121.903 136.398 122.328 134.735 122.753C127.694 124.527 120.665 126.288 113.637 128.17C110.832 128.923 108.016 129.701 105.224 130.514C96.787 132.919 88.4109 135.567 80.1804 138.652C79.3185 138.98 77.8011 139.441 75.968 140.036C111.112 156.457 158.467 168.566 217.95 162.359L217.962 162.347Z" fill="#527F34"/>
</g>
<path d="M220.572 162.068L220.56 162.056L166.989 143.133L116.599 125.328L110.505 123.178L0.436944 84.3011L0.424805 84.2768" stroke="#355722" stroke-width="1.28878" stroke-miterlimit="10"/>
<path d="M73.7345 87.2281L110.493 123.178L63.3796 126.834" stroke="#355722" stroke-width="1.28878" stroke-miterlimit="10"/>
<path d="M131.396 108.349L168.167 144.287L121.042 147.955" stroke="#355722" stroke-width="1.28878" stroke-miterlimit="10"/>
<path d="M231.389 148.866C231.389 148.866 115.409 88.1269 11.6416 206.131C11.6416 206.131 122.341 241.899 231.389 148.866Z" fill="#659549"/>
<path d="M11.6414 206.131L231.388 148.866" stroke="#355722" stroke-width="1.28878" stroke-miterlimit="10"/>
<path d="M72.3506 168.566L121.515 177.505L85.5097 206.131" stroke="#355722" stroke-width="1.28878" stroke-miterlimit="10"/>
<path d="M130.316 154.161L179.481 163.1L143.475 191.739" stroke="#355722" stroke-width="1.28878" stroke-miterlimit="10"/>
<path d="M209.04 178.744C209.04 178.744 96.3743 245.422 142.043 395.818C142.043 395.818 230.709 320.48 209.04 178.744Z" fill="#77AD55"/>
<path d="M142.031 395.83L209.04 178.744" stroke="#355722" stroke-width="1.28878" stroke-miterlimit="10"/>
<path d="M142.055 324.403L175.535 287.287L180.913 332.99" stroke="#355722" stroke-width="1.28878" stroke-miterlimit="10"/>
<path d="M160.324 267.514L193.805 230.398L199.195 276.101" stroke="#355722" stroke-width="1.28878" stroke-miterlimit="10"/>
<path d="M246.587 158.157C246.587 158.157 237.895 27.4728 83.1304 0.43721C83.1304 0.43721 110.359 113.596 246.587 158.157Z" fill="#77AD55"/>
<path d="M83.1304 0.43721L246.587 158.157" stroke="#C2C155" stroke-width="1.28878" stroke-miterlimit="10"/>
<path d="M146.838 32.6589L164.853 79.2972L121.661 63.4961" stroke="#C2C155" stroke-width="1.28878" stroke-miterlimit="10"/>
<path d="M189.362 74.6334L207.377 121.259L164.173 105.458" stroke="#C2C155" stroke-width="1.28878" stroke-miterlimit="10"/>
</svg>
