<svg width="375" height="128" viewBox="0 0 375 128" fill="none" xmlns="http://www.w3.org/2000/svg">
<g clip-path="url(#clip0_20_2652)">
<path d="M364.65 101.572C360.965 93.2917 358.568 84.5977 357.289 75.7173C355.699 64.6593 341.023 49.6227 325.506 49.6227C314.295 49.6227 277.362 34.8469 272.41 31.7874C266.051 27.8585 263.136 20.895 255.502 18.7463C248.348 16.7301 240.557 19.1893 233.407 19.6654C227.387 20.0669 220.978 19.5205 215.129 18.7546C212.28 18.382 210.272 17.1855 207.192 17.231C204.236 17.2766 201.425 18.1708 198.564 18.1501C191.034 18.0963 192.218 10.9175 186.848 8.40447C182.108 6.18955 174.56 8.93853 169.232 7.48952C163.701 5.98669 158.464 4.85646 152.668 4.13609C146.897 3.41573 141.361 2.68294 135.756 1.63965C128.225 0.24032 119.858 -0.231644 112.923 2.54632C106.788 5.00136 102.424 6.79399 95.5809 6.01567C90.3355 5.41536 77.8781 3.74279 73.44 7.27838L79.5093 21.1848C78.0975 24.5133 81.364 31.924 81.9064 35.5631C82.7799 41.4295 83.8894 47.4698 83.0449 53.4439C82.0844 60.2418 80.4077 67.2509 77.4392 73.5148C73.7753 81.2484 69.9002 88.8412 70.1859 97.5063C70.5006 107.062 77.1701 114.563 88.0377 116.136C109.537 119.25 132.179 114.215 153.699 113.392C170.913 112.733 187.991 110.568 205.201 109.748C225.172 108.8 245.094 108.531 265.095 108.531C287.794 108.531 310.652 108.751 332.747 113.971C345.747 117.043 356.606 120.889 370.024 119.138C370.442 114.12 366.745 106.254 364.658 101.572H364.65Z" fill="#88938F"/>
<path d="M363.814 107.649C355.526 97.1172 354.834 85.343 339.47 81.5963C334.763 80.4495 329.907 81.3396 325.502 79.4641C320.762 77.4479 320.348 74.5334 317.301 71.1261C314.518 68.0169 295.416 53.03 293.578 60.6518C281.278 60.5111 294.087 40.1255 276.703 45.669C278.256 47.8633 278.55 55.1621 273.723 53.3198C271.197 52.3552 272.7 45.7146 270.435 45.048C263.455 43.0028 269.947 61.8069 262.735 62.4776C262.321 54.0443 260.354 46.141 260.789 37.6167C260.98 33.8244 262.714 29.7216 258.872 26.8112C255.333 24.1284 252.145 27.337 248.8 24.8985C247.264 28.3927 244.933 33.6754 240.126 32.1394C236.185 30.8767 237.025 26.5669 236.371 23.1804C234.649 14.3083 230.041 10.3918 220.13 11.5427C220.403 12.7102 219.674 14.4532 219.948 15.6207C211.411 18.1295 215.245 15.0038 213.481 9.14979C212.442 5.70114 208.393 3.29992 204.369 7.34059C201.413 10.309 202.336 16.7343 202.526 20.7129C202.659 23.4453 203.404 25.9997 202.572 28.6535C202.054 30.3012 199.852 31.5143 199.318 33.9652C197.186 43.7895 207.192 53.2287 201.632 63.0613C197.749 69.9255 196.291 66.1664 193.398 62.4403C191.419 59.8901 185.3 55.6093 188.301 52.0612C185.44 47.0849 184.434 45.963 184.774 40.6969C185.072 36.06 185.718 30.8477 185.962 26.0536C186.206 21.218 186.575 15.1694 184.592 10.8224C182.952 7.22881 177.475 4.35149 179.934 0.124512C174.738 2.66235 174.631 11.7497 174.395 16.9206C174.242 20.2906 174.502 23.4991 173.782 26.658C172.975 30.1894 170.098 32.2636 169.071 35.1658C165.568 45.0729 176.949 69.9876 167.684 77.2534C164.339 74.9267 166.723 71.9376 166.479 68.6586C166.214 65.1189 165.477 63.7734 163.589 60.7636C161.884 58.0436 159.615 55.7583 158.588 52.8189C157.371 49.3371 158.671 47.6728 158.431 44.4519C158.013 38.8256 157.383 8.80616 149.534 10.93C149.356 14.4532 150.014 18.4359 149.455 21.9259C148.851 25.7265 146.715 28.8729 146.396 32.748C146.077 36.6396 151.521 50.7447 144.661 50.9145C144.144 40.4609 140.819 32.0111 138.393 21.8514C137.656 22.1247 136.629 22.1081 136.004 22.3234C135.255 18.9575 134.762 10.3877 129.815 15.5544C127.157 18.3324 129.289 25.329 130.096 28.3513C131.338 32.9922 131.773 35.9151 130.096 40.523C128.759 44.2076 128.66 46.9773 127.997 51.4775C127.356 55.8204 125.509 60.0598 126.445 65.003C126.876 67.28 131.529 75.6884 126.946 77.0712C121.344 78.7603 120.649 55.8991 120.798 52.2227C120.926 48.9893 122.197 45.9299 122.044 42.4646C121.92 39.6163 120.351 36.6438 120.359 33.961C120.372 27.871 123.613 24.6045 121.286 18.1378C120.256 15.277 117.9 4.52537 115.805 2.90662C111.727 -0.239811 110.601 7.37785 110.452 10.8017C110.266 15.0866 115.225 37.7119 109.086 35.3603C106.56 34.3916 104.627 25.9956 102.586 23.7062C100.934 21.8556 99.8949 22.6877 98.3259 19.9636C97.2412 18.0716 96.496 14.7471 95.9205 12.7226C95.1587 12.8386 94.2645 13.0621 93.5317 13.3726C92.1116 17.0076 94.2024 20.804 92.7078 24.6956C91.1346 28.8025 88.6382 29.5063 89.1805 35.1782C89.7063 40.6844 94.2314 52.0447 89.1764 56.5449C84.0096 54.4501 87.007 48.3269 86.7586 44.3235C86.3943 38.4778 82.3826 36.6396 80.6438 31.5267C79.1119 27.0099 78.6565 22.1661 78.847 17.5292C79.0084 13.5548 79.8365 5.39064 73.4484 7.27435C73.1462 8.72336 73.3987 12.0727 72.6245 13.2815C71.5978 14.8755 69.743 14.5815 68.6377 15.8566C65.9218 18.9865 65.5036 19.6489 64.9696 24.3603C64.1374 31.713 63.9843 39.9102 62.4152 47.354C59.7573 59.9563 46.7079 68.079 36.2129 74.2725C25.867 80.3791 12.83 81.0125 3.37828 88.2866C-5.87056 95.4033 -5.42757 105.766 -10.7599 114.903C-15.8232 123.585 -27.2456 123.1 -34.9874 128.917H383.164C383.707 128.913 371.477 117.374 363.822 107.645L363.814 107.649Z" fill="#C1C7C2"/>
<path d="M85.3137 37.1944C80.3332 27.7717 81.1902 19.1604 79.4307 9.0132C78.909 6.01995 76.6527 4.8359 74.562 7.48966L75.477 7.1833C78.0728 11.551 77.5387 17.6203 77.311 22.7043C77.1661 25.9749 76.4292 29.1296 76.3919 32.4417C76.3795 33.3814 76.0317 35.2403 76.3919 36.0932C76.9922 37.5049 77.7705 36.8963 78.5199 37.9231C81.0784 41.4173 81.7243 47.9419 81.4966 52.5291C81.3724 55.0545 81.095 57.6089 81.5794 60.1385C81.7574 61.0659 82.958 66.1001 84.0675 66.4603C84.0675 66.4603 84.5602 66.8164 84.5478 66.804C84.3573 61.84 87.5203 57.9236 87.7729 52.9721C87.8929 50.6247 87.6114 47.7391 87.7522 45.5325C87.9385 42.6303 86.7254 39.8606 85.3178 37.1903L85.3137 37.1944Z" fill="#919191"/>
<path d="M101.021 43.7105C100.64 39.852 99.9693 36.0142 99.5843 32.1474C99.2076 28.3923 99.7375 25.3122 98.8308 21.8759C98.2761 19.7687 98.1105 13.2605 95.5602 12.9749L95.258 13.2812C94.0946 16.0261 95.9577 20.0874 96.5414 23.0186C97.3032 26.8398 96.6656 30.1519 96.4752 33.9773C96.2557 38.4361 97.9987 41.1023 99.6009 44.849C100.744 47.5193 99.2821 52.6488 101.037 54.7147C102.83 52.1147 101.319 46.712 101.021 43.7146V43.7105Z" fill="#919191"/>
<path d="M109.558 51.2413C109.558 46.1284 112.203 34.5942 106.817 32.4497L106.208 32.1475C106.043 35.2566 106.987 38.5894 106.817 41.8848C106.593 46.2236 106.511 50.02 106.511 54.3629C106.511 59.3268 106.838 64.2948 107.136 69.1925C107.289 71.6972 106.813 77.0172 108.572 78.6815C109.947 74.7815 108.746 69.5237 108.945 65.3878C109.169 60.6889 109.554 56.0272 109.554 51.2454L109.558 51.2413Z" fill="#919191"/>
<path d="M123.828 70.7615C123.559 68.2858 121.862 65.9301 121.733 63.4875C121.468 58.4987 121.87 53.717 122.441 48.7779C122.702 46.5465 122.735 43.3504 122.644 40.9657C122.545 38.4692 120.98 36.3082 121.117 33.6627C121.369 28.7236 122.528 23.7183 122.019 18.7668C121.791 16.5602 118.02 -0.165556 115.341 2.92705V2.62069C112.849 6.23494 117.08 12.5071 118.09 16.3159C119.411 21.3047 117.713 26.1775 117.473 31.2283C117.217 36.6145 118.993 40.9284 118.997 46.207C118.997 51.9616 118.939 57.7577 118.695 63.4171C118.492 68.0622 120.905 77.4187 125.29 79.7247C125.513 77.456 124.081 73.0137 123.837 70.7574L123.828 70.7615Z" fill="#919191"/>
<path d="M133.048 14.4448C132.874 14.3123 133.119 14.01 132.953 13.9272C130.27 16.6555 133.913 21.7395 134.216 24.8445C134.592 28.7279 134.634 33.4599 135.731 37.1942C136.269 35.6956 136.542 28.496 136.062 22.5758L137.312 22.4723C136.157 18.7338 134.65 14.3909 133.044 14.4406L133.048 14.4448Z" fill="#919191"/>
<path d="M144.574 46.145C144.334 42.0919 144.562 36.7554 143.651 32.7561C142.955 29.6966 141.813 22.4474 138.165 22.4102L137.317 22.4805C137.946 24.5174 138.472 26.3722 138.853 27.2416C142.285 35.0869 141.925 41.1107 140.596 49.4943C139.801 54.4954 140.467 58.9128 140.914 63.8146C141.125 66.1206 141.486 68.2569 141.829 70.4925C142.16 72.6495 141.511 74.7029 141.875 76.8433C145.017 75.4067 143.307 64.713 143.345 61.3513C143.398 56.2218 144.872 51.0965 144.578 46.145H144.574Z" fill="#919191"/>
<path d="M158.961 50.8107C159.557 39.4794 160.161 24.6622 154.216 14.5688C154.055 14.2955 153.508 13.7201 153.682 13.8857L153.074 13.2771C154.494 23.002 153.997 33.3273 153.989 43.1723C153.98 50.3677 153.612 56.9503 154.299 64.1043C154.639 67.6399 155.048 71.2252 155.206 74.7483C155.313 77.162 154.725 80.3498 155.508 82.4074C156.932 77.7043 157.114 70.7201 157.334 65.5575C157.582 59.7614 158.646 56.6854 158.957 50.8148L158.961 50.8107Z" fill="#919191"/>
<path d="M163.73 61.0574C159.002 62.4981 163.552 73.0966 163.73 76.5784C163.892 79.7414 163.498 82.1219 164.264 85.1689C164.86 87.537 164.434 92.2857 165.862 93.9707C168.831 90.3357 167.738 80.027 166.843 75.593C166.384 73.3119 167.791 60.3122 164.343 61.3637L163.734 61.0574H163.73Z" fill="#919191"/>
<path d="M188.694 59.2317C188.343 56.8594 188.467 54.4831 188.314 52.1646C188.152 49.7303 186.947 48.4634 186.235 46.145C184.778 41.4212 185.689 34.8179 185.933 29.796C186.215 23.9586 187.353 18.9077 186.252 13.2856C185.846 11.2031 184.699 -2.77364 179.86 0.496991V0.190629C176.229 2.54217 180.675 10.1474 180.468 13.5795C180.129 19.1768 179.172 24.948 179.251 30.624C179.292 33.6463 180.439 36.2214 180.849 39.1442C181.209 41.711 180.497 44.3648 180.758 47.0641C181.296 52.6035 183.279 57.2859 186.554 61.7364C190.595 67.2261 187.854 73.6307 189.531 79.8284C190.073 73.2581 189.655 65.6984 188.694 59.2275V59.2317Z" fill="#919191"/>
<path d="M216.077 42.4148C216.081 36.5401 216.325 30.0237 215.468 24.2318C214.909 20.452 215.406 16.1132 214.545 12.3623C214.239 11.0251 213.526 8.16848 212.736 7.17901C212.057 6.32616 209.424 4.30168 209.684 6.5787L209.991 5.97012C213.775 15.2604 211.663 23.3086 212.123 33.2861C212.384 38.9082 213.684 44.3482 213.949 49.8711C214.143 53.9283 213.03 58.2132 216.01 61.3265C217.952 56.1101 216.073 47.9956 216.077 42.4148Z" fill="#919191"/>
<path d="M237.075 41.8061C237.331 36.1136 238.917 31.1331 238.275 25.4489C237.791 21.1722 237.919 15.6784 233.357 14.2542C232.844 14.0927 232.397 14.0182 231.904 13.8816H231.295C235.079 16.5726 234.363 23.6976 233.73 27.5768C232.773 33.4267 231.328 38.5189 232.202 44.551C232.968 49.8668 235.191 55.0294 235.253 60.4446C235.328 67.0893 235.009 74.0156 235.609 80.4906C238.47 79.4597 237.526 66.489 237.688 63.562C238.085 56.3377 236.748 49.1299 237.079 41.802L237.075 41.8061Z" fill="#919191"/>
<path d="M250.161 24.8404L248.253 24.9687C243.906 29.1087 248.845 36.3952 249.569 41.2597C250.451 47.2048 249.189 54.748 251.437 60.4157C253.316 57.9027 251.942 52.798 251.987 49.5605C252.033 46.3768 252.289 43.0275 252.289 39.7445C252.289 36.4614 252.149 33.373 252.608 30.3176C252.989 27.7756 254.119 24.3891 250.157 24.8404H250.161Z" fill="#919191"/>
<path d="M256.541 25.7719C252.588 25.3165 258.512 38.0265 258.363 40.3449C258.04 45.2508 257.589 49.9994 258.09 54.984C258.549 59.5753 257.945 64.1501 258.392 68.6627C258.707 71.8133 257.427 79.6131 260.512 81.414C262.18 76.86 260.648 70.828 261.182 65.9262C261.654 61.604 262.789 57.3853 262.942 52.8229C263.112 47.7431 262.801 42.6343 263.248 37.6207C263.712 32.396 261.634 25.8672 256.541 25.7719Z" fill="#919191"/>
<path d="M270.663 45.3291V45.0269C270.261 44.9234 270.266 44.6791 269.818 44.7619C267.914 47.7842 270.559 50.3427 270.965 53.2449C271.334 55.8779 269.367 60.4403 271.499 62.3488C272.095 60.4692 274.348 43.7311 270.663 45.3291Z" fill="#919191"/>
<path d="M284.549 45.8388C280.545 47.3955 283.025 60.0681 283.866 63.2518C285.484 69.3998 285.24 75.792 286.677 81.9606C286.685 74.4299 286.027 67.2056 287.828 60.0723C288.697 56.6236 288.821 47.0063 284.545 45.5325V45.8347L284.549 45.8388Z" fill="#919191"/>
<path d="M363.201 107.347C354.917 96.8148 354.221 85.0447 338.858 81.2938C334.15 80.1471 330.097 80.2299 325.688 78.3586C320.948 76.3424 320.584 73.374 317.536 69.9667C315.334 67.5034 302.02 58.4326 296.033 58.2214C295.54 58.3663 293.205 58.5278 293.003 59.2482C292.514 60.9953 295.582 61.5624 297.01 62.2911C299.349 63.4834 301.51 64.506 303.792 66.1372C309.186 70.004 308.288 74.6615 308.288 80.8384C308.288 84.0552 307.567 87.3052 311.658 88.1622C315.011 88.866 318.104 85.9514 321.44 85.7071C327.709 85.2476 356.883 88.3692 353.041 96.9846C352.76 97.618 352.992 97.2081 353.091 97.8457C350.268 98.0361 347.328 98.0154 345.026 99.8867C349.278 108.419 354.602 116.923 364.108 120.305C362.307 120.264 359.065 119.573 358.287 121.614C363.996 125.017 369.767 126.698 376.197 126.809C376.255 126.727 376.242 126.644 376.159 126.565C377.232 126.52 378.705 126.354 380.366 126.18C376.582 122.276 368.711 114.344 363.205 107.347H363.201Z" fill="#919191"/>
<path d="M74.5619 25.1428C74.5619 22.6298 75.7377 14.5815 71.8212 15.099L69.6891 16.3162C66.3854 15.4551 68.0952 23.7931 68.4057 25.445C69.3248 30.3634 68.4595 35.6046 68.4719 40.6638C68.4844 46.5592 67.8634 52.3759 67.8634 58.3003C67.8634 62.2044 67.1016 67.3256 69.0723 70.7618C71.4155 68.6007 70.4509 61.8152 70.3143 58.7019C70.1073 54.0154 69.8878 49.2212 69.6891 44.5347C69.5235 40.6348 70.8814 37.1406 71.2168 33.3566C71.4983 30.2185 70.7738 27.1383 70.9601 23.9629C74.1604 25.6065 72.3801 33.4808 73.3862 36.6686C75.6301 36.0352 74.5578 27.4695 74.5578 25.1428H74.5619Z" fill="#D8D3D3"/>
<path d="M94.6453 23.9255C95.0924 27.606 91.8508 30.8187 91.9046 34.8055C91.9708 39.7115 93.2667 44.3939 93.7304 49.246C94.3721 55.957 93.1218 63.1482 93.1218 69.9627C93.1218 73.9951 92.5753 79.2654 95.8004 82.0185C96.558 75.7463 95.5602 69.6853 95.2539 63.4918C94.9889 58.1926 95.287 52.7319 95.5437 47.4244C95.7631 42.8869 94.3679 40.0303 93.751 35.7743C93.4737 33.8616 93.1425 31.7005 93.8049 29.7713C94.5418 27.6184 95.9701 27.0802 94.9558 24.53L94.6536 23.9214L94.6453 23.9255Z" fill="#D8D3D3"/>
<path d="M113.515 12.9707C112.286 18.7419 114.791 23.9873 114.733 29.7006C114.671 35.7782 113.718 41.7853 113.449 47.8836C113.197 53.6176 112.625 59.1114 112.298 64.7046C112.215 66.1246 111.276 80.0558 114.824 77.576C115.879 76.839 115.039 69.6643 115.039 68.4306V58.3124C115.039 53.1125 115.954 48.368 115.954 43.0977C115.954 37.8275 116.26 33.0043 116.26 27.8831C116.26 23.7058 116.604 17.3302 114.435 13.8857L113.52 12.9707H113.515Z" fill="#D8D3D3"/>
<path d="M179.934 64.4024C179.408 61.6782 177.678 59.5958 176.817 57.1159C176.034 54.8554 176.026 51.8788 175.902 49.49C175.641 44.3605 175.107 39.5787 175.583 34.5775C175.666 33.7206 177.077 30.3878 175.844 29.7544C174.552 29.092 173.529 31.9445 173.472 32.7518L172.557 33.969C167.357 38.2456 171.095 41.5369 171.931 46.683C172.971 53.0587 172.577 60.1837 172.863 66.6007C173.095 71.8254 172.747 77.0088 172.254 82.0555C171.878 85.943 170.743 91.1346 171.385 95.0966C175.591 96.351 175.061 81.9561 175.608 79.2444C176.643 74.0859 181.015 69.9707 179.934 64.4065V64.4024Z" fill="#D8D3D3"/>
<path d="M210.595 69.2714C210.595 62.6639 209.68 56.4207 209.68 49.7967C209.68 39.6784 207.424 30.1853 207.921 19.9719C208.053 17.256 208.741 13.8736 208.765 11.7539L208.157 9.01318C203.181 12.0023 205.114 17.7487 205.416 22.7084C205.735 27.9124 206.389 32.4209 205.424 37.3269C204.509 41.9803 207.08 47.5942 207.308 52.6036C207.643 59.8984 207.051 67.2138 207.002 74.4547C206.989 76.4999 208.004 82.3332 210.281 78.4043C211.473 76.3509 210.587 71.6312 210.587 69.2714H210.595Z" fill="#D8D3D3"/>
<path d="M227.656 51.018C226.948 43.9882 225.578 36.8425 224.613 29.7754C224.224 26.9271 224.564 24.559 225.139 21.7976C225.549 19.8311 226.977 16.7385 225.888 14.7223C225.317 13.6624 224.17 13.1242 223.073 12.6647L220.941 11.4475C217.526 13.2236 220.606 24.1077 220.635 27.5108C220.705 34.9132 221.43 42.5475 222.444 49.8132C223.197 55.216 225.214 60.1674 225.201 65.6199C225.193 68.5883 225.201 71.5567 225.201 74.5209C225.201 76.4626 224.199 82.1096 225.272 83.8112C225.416 84.0389 225.454 84.1714 225.561 84.4363C225.951 84.4653 226.286 84.4736 226.679 84.4446C227.983 73.9579 228.733 61.7282 227.652 51.0221L227.656 51.018Z" fill="#D8D3D3"/>
<path d="M254.836 24.0456L254.227 23.7434C251.027 25.1717 252.41 32.9715 252.401 35.9938C252.393 38.9787 253.258 41.3427 253.635 44.1952C254.086 47.6355 253.424 51.6017 253.08 55.0048C252.426 61.4757 251.49 67.7644 251.49 74.3388C251.49 78.4167 251.019 84.1382 254.219 87.0818C255.581 85.7984 254.935 80.8345 254.836 78.8141C254.682 75.7008 254.844 72.6621 254.836 69.4784C254.823 63.1069 256.016 57.7497 256.67 51.7425C257.245 46.4432 257.576 41.3427 257.576 35.9193C257.576 31.8289 259.584 25.0434 254.836 24.0498V24.0456Z" fill="#D8D3D3"/>
<path d="M282.677 45.1803C283.977 46.6376 285.31 45.586 285.327 45.5363C284.474 45.379 280.872 43.9258 279.986 44.0128L277.105 44.4765C271.984 47.9955 277.622 60.2624 277.854 65.6196C278.082 70.8154 277.958 76.1188 278.161 81.3766C278.285 84.6721 278.218 90.1245 279.995 92.7493C282.383 88.7541 280.889 81.5753 280.901 76.9468C280.914 72.136 281.067 67.2342 280.591 62.5105C280.255 59.1943 277.395 45.6812 282.681 45.1761L282.677 45.1803Z" fill="#D8D3D3"/>
<path d="M0.0661964 121.854C-2.47578 118.732 -3.27481 120.231 -6.70276 120.711C-10.0189 121.179 -10.2715 118.616 -13.1571 117.44C-16.7755 115.962 -18.0672 117.954 -19.7935 120.442C-20.6381 117.018 -22.0043 119.225 -24.0288 119.821C-25.4074 120.227 -25.3122 119.076 -26.7902 120.086C-27.0552 120.268 -27.4816 122.032 -27.7714 122.483C-32.3213 118.964 -34.855 123.742 -34.6935 128.312L3.04288 129.227C2.662 126.768 1.73463 123.903 0.0661964 121.854Z" fill="#3D7D40"/>
<path d="M140.297 129.227C140.297 124.437 140.202 120.355 145.236 119.399C147.195 119.026 146.006 120.624 147.596 118.865C148.163 118.24 147.898 116.77 148.586 116.211C150.188 114.907 153.024 116.145 154.291 117.395C156.344 115.172 156.179 110.431 158.849 107.931C161.362 105.579 163.411 106.875 166.168 107.848C172.946 110.237 172.142 104.097 174.614 99.9365C176.233 97.2082 177.943 97.3324 180.472 97.5767C182.17 97.7423 181.474 98.9512 183.134 97.5767C184.012 96.8522 183.822 94.8815 184.496 93.9955C188.599 88.5969 191.058 97.7795 193.253 100.032C193.596 100.384 193.737 101.054 193.915 101.506C195.857 100.268 197.376 98.1232 200.013 99.3238C201.971 100.218 203.189 103.004 203.963 104.838C206.505 103.749 208.057 103.861 209.991 106.171C212.094 108.68 211.253 110.253 214.487 110.287C217.17 110.316 219.153 109.185 221.637 111.495C223.624 113.346 223.454 115.511 223.682 117.97C224.257 124.114 229.221 122.197 233.481 124.582C234.988 125.427 235.232 126.193 237.071 126.139C238.309 126.106 239.17 124.474 241.033 124.959C242.945 125.456 244.042 127.422 244.995 128.954C244.991 129.182 244.982 129.169 244.978 128.925L140.289 129.227H140.297Z" fill="#3D7D40"/>
<path d="M340.903 88.0877C340.319 86.4813 339.988 82.2668 338.117 81.4222C335.935 80.4369 333.695 83.9352 332.639 85.4381C330.342 83.2645 323.966 85.997 323.448 88.9985C320.641 88.4727 319.379 91.4701 318.551 93.6146C317.114 97.3365 317.247 96.7155 313.533 96.2808C310.685 95.9455 308.743 96.7693 307.145 99.4645C305.932 101.514 306.329 104.66 304.326 106.122C300.62 104.184 298.612 105.203 297.577 109.392C296.083 109.289 293.781 110.431 292.837 111.644C292.241 112.415 292.758 113.313 292.241 114.079C291.798 114.737 290.68 114.886 290.399 115.602C288.85 119.564 295.271 117.962 298.236 117.962L302.802 114.613C304.222 114.004 306.503 114.418 308.279 114.311C311.782 114.1 310.374 112.882 312.552 111.33C313.595 110.585 316.294 110.75 317.487 110.431C318.273 110.22 318.849 109.67 319.847 109.442C320.819 109.223 321.925 109.666 322.89 109.372C326.624 108.246 327.104 102.694 328.599 99.3983C329.932 96.4547 333.89 92.0124 336.589 96.5582C337.334 94.5834 343.138 94.3184 344.807 95.1671C347.378 92.6086 344.385 87.2514 340.903 88.0835V88.0877Z" fill="#3D7D40"/>
<path d="M140.31 86.9078C139.635 85.525 136.306 84.7053 134.799 85.3636C132.961 81.327 132.456 78.164 127.732 76.3507C124.917 75.266 124.905 76.4087 122.566 77.1125C120.848 77.63 119.415 76.4335 117.689 77.1042C115.685 77.8825 115.656 81.0331 114.348 82.2834C112.435 84.1174 111.181 83.4674 108.634 82.9582C104.213 82.0764 100.988 84.1547 101.29 89.3132C100.706 89.1807 99.8327 89.5409 99.2573 89.4125C96.8685 93.329 106.403 92.2236 107.115 91.1845L108.639 91.4867C114.497 90.8574 121.369 97.32 125.691 100.35C128.685 95.7385 131.251 93.3249 136.638 91.2507C138.439 90.5593 141.854 90.0791 140.306 86.9078H140.31Z" fill="#3D7D40"/>
<path d="M130.183 125.34C129.198 123.676 127.356 122.33 125.915 121.096C124.358 119.759 122.392 118.484 121.121 116.82C119.349 114.501 120.268 114.443 120.206 111.578C120.127 107.753 117.978 104.147 115.022 101.833C113.768 100.852 110.626 99.9491 110.141 98.4918C109.504 96.5749 111.723 94.6705 112.866 93.5403C110.531 90.5595 105.418 91.9754 101.948 91.7973C97.92 91.5903 95.2704 92.7909 91.9211 95.5109C88.4766 98.3055 85.0528 100.111 82.3866 103.675C80.0102 106.855 73.7505 125.414 71.2499 128.544L131.467 129.538C131.036 128.9 130.899 126.557 130.183 125.344V125.34Z" fill="#D8D3D3"/>
<path d="M95.5727 128.656C95.3284 127.24 95.1214 125.691 94.2893 124.412C92.6788 124.35 90.5508 123.828 89.1515 122.839C86.9407 121.278 87.6155 120.922 87.3423 118.273C86.8662 113.71 83.9806 111.81 80.0393 110.361C74.4295 108.299 77.2696 102.462 73.9534 97.8746C70.1818 92.6581 65.6485 101.195 64.8246 92.7078C64.5431 89.8263 64.0422 87.6901 62.3034 85.4131C60.2044 82.6599 57.9812 84.1214 56.2175 81.7533C54.4456 79.3728 55.1908 76.3008 51.4316 75.9696C48.19 75.684 48.4342 78.226 46.5547 79.9689C43.6152 74.9471 37.252 78.3874 35.8361 82.9663C35.2565 84.8376 35.9272 87.5783 34.474 89.135C32.8677 90.8531 31.0999 90.0499 28.914 90.2693C26.1857 90.5426 25.7303 91.1222 23.6644 90.0416C21.9422 89.1391 21.2549 87.8598 18.8702 87.835C13.5089 87.777 13.0038 91.9295 11.2691 95.7176C9.52619 94.1113 8.28004 90.1079 5.24953 93.3743C3.34925 95.4237 5.09635 99.9487 3.10085 101.187C1.92094 98.9675 0.364286 97.2039 -1.22135 100.603C-2.23152 102.768 -1.0309 105.695 -0.914983 107.922C-0.65002 113.16 25.5605 108.229 30.127 128.921L95.2539 128.312C95.3367 128.416 95.6058 129.066 95.5727 128.652V128.656Z" fill="#3D7D40"/>
</g>
<defs>
<clipPath id="clip0_20_2652">
<rect width="418.173" height="127.553" fill="white" transform="translate(-35)"/>
</clipPath>
</defs>
</svg>
