<svg width="825" height="310" viewBox="0 0 825 310" fill="none" xmlns="http://www.w3.org/2000/svg">
<g clip-path="url(#clip0_24_6759)">
<path d="M969.086 246.295C960.151 226.217 954.339 205.135 951.237 183.602C947.382 156.788 911.794 120.327 874.168 120.327C846.983 120.327 757.426 84.4978 745.419 77.079C729.999 67.5521 722.932 50.6667 704.42 45.4565C687.073 40.5675 668.18 46.5306 650.843 47.6851C636.246 48.6589 620.706 47.3337 606.521 45.4766C599.614 44.573 594.745 41.6718 587.276 41.7822C580.108 41.8927 573.292 44.0611 566.355 44.0109C548.094 43.8804 550.965 26.4729 537.945 20.3793C526.45 15.0085 508.149 21.6743 495.229 18.1607C481.817 14.5166 469.118 11.7759 455.064 10.0292C441.069 8.2824 427.647 6.50551 414.055 3.97571C395.794 0.582559 375.505 -0.561877 358.69 6.17423C343.813 12.1273 333.232 16.4741 316.637 14.5868C303.918 13.1312 273.711 9.07547 262.949 17.6487L277.666 51.3694C274.243 59.4407 282.164 77.4103 283.479 86.2345C285.597 100.46 288.287 115.106 286.239 129.593C283.91 146.076 279.845 163.072 272.647 178.261C263.762 197.014 254.366 215.425 255.059 236.437C255.822 259.606 271.994 277.797 298.346 281.612C350.478 289.161 405.381 276.954 457.563 274.956C499.305 273.36 540.716 268.109 582.447 266.122C630.875 263.823 679.182 263.17 727.68 263.17C782.724 263.17 838.148 263.702 891.726 276.361C923.248 283.81 949.58 293.136 982.116 288.89C983.13 276.723 974.166 257.649 969.106 246.295H969.086Z" fill="#88938F"/>
<path d="M967.058 261.032C946.96 235.493 945.284 206.942 908.029 197.857C896.615 195.076 884.839 197.235 874.158 192.687C862.663 187.798 861.66 180.731 854.271 172.469C847.525 164.929 801.205 128.588 796.748 147.07C766.922 146.729 797.983 97.2972 755.829 110.739C759.594 116.06 760.307 133.758 748.601 129.291C742.478 126.952 746.122 110.85 740.63 109.233C723.705 104.274 739.446 149.871 721.958 151.497C720.954 131.048 716.186 111.884 717.24 91.2136C717.702 82.018 721.908 72.0694 712.592 65.0121C704.009 58.5069 696.279 66.287 688.167 60.3741C684.443 68.8469 678.791 81.6566 667.136 77.9321C657.579 74.8703 659.616 64.4198 658.03 56.2079C653.854 34.6946 642.681 25.1978 618.648 27.9886C619.31 30.8195 617.543 35.0459 618.206 37.8769C597.506 43.9605 606.802 36.3811 602.525 22.1861C600.005 13.8237 590.187 8.00111 580.43 17.7991C573.262 24.997 575.5 40.5774 575.962 50.2248C576.283 56.8504 578.091 63.0444 576.073 69.4794C574.818 73.4749 569.477 76.4163 568.182 82.3593C563.012 106.182 587.276 129.07 573.794 152.913C564.377 169.557 560.844 160.442 553.826 151.407C549.028 145.223 534.19 134.843 541.469 126.239C534.532 114.173 532.092 111.452 532.915 98.6826C533.638 87.439 535.204 74.8 535.797 63.1749C536.389 51.4495 537.282 36.7827 532.474 26.2418C528.498 17.528 515.217 10.551 521.18 0.30127C508.581 6.45512 508.32 28.4905 507.748 41.0291C507.376 49.2008 508.009 56.9809 506.262 64.6406C504.305 73.2038 497.328 78.2333 494.838 85.2706C486.345 109.294 513.942 169.708 491.475 187.326C483.363 181.684 489.146 174.436 488.554 166.485C487.911 157.902 486.124 154.639 481.546 147.341C477.41 140.746 471.909 135.204 469.419 128.076C466.468 119.634 469.62 115.598 469.038 107.788C468.024 94.145 466.498 21.3529 447.464 26.5028C447.033 35.0459 448.629 44.7034 447.274 53.1662C445.808 62.3819 440.628 70.0114 439.855 79.4079C439.082 88.8444 452.283 123.047 435.648 123.459C434.394 98.1103 426.332 77.6209 420.45 52.9855C418.663 53.648 416.173 53.6079 414.657 54.1299C412.84 45.9683 411.645 25.1877 399.649 37.7163C393.204 44.4524 398.374 61.4181 400.332 68.7465C403.343 80.0002 404.397 87.0876 400.332 98.2609C397.089 107.196 396.848 113.912 395.242 124.824C393.686 135.355 389.208 145.635 391.477 157.621C392.521 163.142 403.805 183.531 392.692 186.884C379.109 190.98 377.423 135.545 377.784 126.631C378.095 118.79 381.177 111.372 380.806 102.969C380.505 96.0624 376.7 88.8545 376.72 82.3493C376.75 67.582 384.611 59.6613 378.969 43.9806C376.469 37.0437 370.757 10.9726 365.677 7.04742C355.789 -0.582154 353.058 17.8894 352.697 26.1916C352.245 36.5819 364.272 91.4445 349.384 85.7424C343.26 83.3933 338.572 63.0344 333.623 57.4829C329.618 52.9955 327.098 55.0133 323.293 48.4077C320.663 43.8199 318.856 35.7587 317.46 30.8497C315.613 31.1308 313.445 31.6729 311.668 32.4258C308.225 41.2399 313.294 50.4456 309.67 59.8822C305.855 69.8408 299.802 71.5474 301.117 85.3007C302.392 98.6524 313.365 126.199 301.107 137.112C288.578 132.032 295.847 117.184 295.244 107.477C294.361 93.3017 284.633 88.8444 280.417 76.4464C276.702 65.4939 275.598 53.7484 276.06 42.5048C276.451 32.8675 278.459 13.0708 262.969 17.6385C262.236 21.1521 262.849 29.2736 260.971 32.2049C258.482 36.0699 253.984 35.3571 251.304 38.4491C244.718 46.0385 243.705 47.6448 242.41 59.069C240.392 76.8981 240.02 96.7752 236.216 114.825C229.771 145.384 198.128 165.08 172.679 180.098C147.592 194.905 115.98 196.441 93.0607 214.08C70.6338 231.337 71.7079 256.464 58.7778 278.62C46.5003 299.672 18.8029 298.497 0.0301476 312.602H1013.98C1015.29 312.592 985.64 284.613 967.078 261.022L967.058 261.032Z" fill="#C1C7C2"/>
<path d="M291.741 90.1897C279.664 67.3412 281.742 46.4603 277.475 21.8549C276.211 14.5968 270.739 11.7256 265.67 18.1606L267.888 17.4177C274.183 28.0088 272.888 42.7258 272.335 55.0536C271.984 62.9843 270.197 70.634 270.107 78.6651C270.077 80.9439 269.233 85.4514 270.107 87.5194C271.563 90.9427 273.45 89.4669 275.267 91.9566C281.471 100.429 283.037 116.251 282.485 127.374C282.184 133.498 281.511 139.692 282.686 145.825C283.117 148.074 286.029 160.281 288.719 161.155C288.719 161.155 289.914 162.018 289.884 161.988C289.422 149.951 297.091 140.455 297.704 128.448C297.995 122.756 297.312 115.759 297.654 110.408C298.105 103.371 295.164 96.6548 291.751 90.1797L291.741 90.1897Z" fill="#919191"/>
<path d="M329.828 105.991C328.905 96.6348 327.278 87.3287 326.345 77.9523C325.431 68.8471 326.716 61.3781 324.518 53.0458C323.173 47.936 322.771 32.1548 316.587 31.4622L315.854 32.205C313.033 38.8608 317.551 48.709 318.966 55.8165C320.813 65.0825 319.267 73.1136 318.806 82.3895C318.274 93.2014 322.5 99.6665 326.385 108.752C329.156 115.227 325.612 127.665 329.868 132.674C334.215 126.37 330.551 113.269 329.828 106.001V105.991Z" fill="#919191"/>
<path d="M350.529 124.252C350.529 111.854 356.943 83.8851 343.883 78.685L342.407 77.9521C342.006 85.4914 344.294 93.5727 343.883 101.564C343.341 112.084 343.14 121.29 343.14 131.821C343.14 143.858 343.933 155.904 344.656 167.78C345.027 173.854 343.873 186.754 348.139 190.789C351.472 181.333 348.561 168.583 349.043 158.555C349.585 147.16 350.519 135.857 350.519 124.262L350.529 124.252Z" fill="#919191"/>
<path d="M385.133 171.585C384.48 165.582 380.364 159.87 380.053 153.947C379.41 141.85 380.384 130.255 381.77 118.279C382.402 112.868 382.482 105.118 382.262 99.3351C382.021 93.2817 378.226 88.0414 378.557 81.6265C379.17 69.6501 381.98 57.513 380.746 45.5065C380.194 40.1558 371.048 -0.40142 364.553 7.09764V6.35476C358.509 15.1187 368.769 30.3277 371.219 39.5635C374.421 51.6604 370.305 63.4761 369.723 75.7236C369.101 88.7842 373.407 99.2448 373.417 112.044C373.417 125.998 373.277 140.053 372.684 153.776C372.192 165.04 378.045 187.728 388.676 193.319C389.219 187.818 385.745 177.046 385.153 171.575L385.133 171.585Z" fill="#919191"/>
<path d="M407.489 35.0259C407.068 34.7046 407.66 33.9718 407.258 33.771C400.753 40.3866 409.587 52.7144 410.32 60.2436C411.234 69.6601 411.334 81.1346 413.995 90.1897C415.3 86.5556 415.962 69.0979 414.798 54.7423L417.829 54.4913C415.029 45.4262 411.374 34.8954 407.479 35.0158L407.489 35.0259Z" fill="#919191"/>
<path d="M435.438 111.894C434.855 102.066 435.408 89.1254 433.199 79.4278C431.512 72.0091 428.742 54.4309 419.897 54.3406L417.839 54.5112C419.365 59.4504 420.64 63.9478 421.564 66.056C429.886 85.0797 429.013 99.6863 425.79 120.015C423.863 132.142 425.479 142.854 426.563 154.74C427.075 160.331 427.949 165.511 428.782 170.932C429.585 176.163 428.009 181.142 428.892 186.332C436.512 182.849 432.366 156.918 432.456 148.767C432.587 136.328 436.16 123.9 435.448 111.894H435.438Z" fill="#919191"/>
<path d="M470.323 123.208C471.768 95.7313 473.234 59.8021 458.818 35.3272C458.427 34.6646 457.102 33.2692 457.523 33.6708L456.048 32.1951C459.491 55.7765 458.286 80.8135 458.266 104.686C458.246 122.134 457.353 138.096 459.019 155.443C459.842 164.016 460.836 172.71 461.218 181.253C461.479 187.105 460.053 194.835 461.95 199.825C465.404 188.421 465.846 171.485 466.378 158.966C466.98 144.912 469.56 137.453 470.313 123.218L470.323 123.208Z" fill="#919191"/>
<path d="M481.888 148.054C470.423 151.547 481.456 177.247 481.888 185.69C482.279 193.36 481.325 199.132 483.183 206.521C484.628 212.263 483.594 223.777 487.058 227.863C494.256 219.049 491.605 194.052 489.437 183.301C488.323 177.769 491.736 146.247 483.373 148.797L481.898 148.054H481.888Z" fill="#919191"/>
<path d="M542.422 143.627C541.569 137.875 541.87 132.112 541.499 126.49C541.107 120.588 538.186 117.516 536.459 111.894C532.925 100.44 535.134 84.4274 535.726 72.2502C536.409 58.0954 539.17 45.8479 536.499 32.2151C535.516 27.1655 532.735 -6.72585 520.999 1.20489V0.462012C512.195 6.16411 522.977 24.6056 522.475 32.9278C521.652 46.5004 519.333 60.4947 519.524 74.258C519.624 81.5864 522.405 87.8306 523.399 94.9181C524.272 101.142 522.545 107.577 523.178 114.123C524.483 127.555 529.291 138.909 537.232 149.7C547.03 163.012 540.384 178.542 544.45 193.57C545.765 177.639 544.751 159.308 542.422 143.617V143.627Z" fill="#919191"/>
<path d="M608.82 102.849C608.83 88.6037 609.422 72.8025 607.344 58.758C605.989 49.5925 607.193 39.0717 605.105 29.9765C604.362 26.7339 602.636 19.8071 600.718 17.4078C599.072 15.3397 592.687 10.4307 593.32 15.9521L594.062 14.4764C603.238 37.0037 598.118 56.5193 599.232 80.7131C599.865 94.346 603.017 107.537 603.66 120.929C604.131 130.767 601.431 141.157 608.659 148.707C613.367 136.058 608.81 116.381 608.82 102.849Z" fill="#919191"/>
<path d="M659.737 101.373C660.359 87.5696 664.204 75.4928 662.648 61.7094C661.474 51.3392 661.785 38.0175 650.722 34.5641C649.477 34.1726 648.393 33.9919 647.198 33.6606H645.723C654.898 40.1859 653.161 57.4629 651.625 66.8694C649.306 81.0543 645.803 93.4022 647.921 108.029C649.778 120.919 655.169 133.437 655.32 146.568C655.501 162.681 654.728 179.476 656.183 195.177C663.12 192.677 660.831 161.225 661.223 154.128C662.186 136.61 658.944 119.132 659.747 101.363L659.737 101.373Z" fill="#919191"/>
<path d="M691.47 60.2335L686.842 60.5447C676.301 70.5836 688.278 88.2521 690.034 100.048C692.173 114.464 689.111 132.755 694.562 146.498C699.12 140.404 695.787 128.026 695.897 120.176C696.008 112.456 696.63 104.334 696.63 96.3735C696.63 88.4127 696.289 80.9237 697.403 73.5149C698.327 67.3511 701.067 59.1392 691.46 60.2335H691.47Z" fill="#919191"/>
<path d="M706.94 62.4923C697.353 61.3881 711.718 92.2075 711.357 97.8293C710.574 109.725 709.48 121.24 710.694 133.327C711.809 144.46 710.343 155.553 711.427 166.495C712.19 174.135 709.088 193.048 716.567 197.415C720.613 186.372 716.898 171.746 718.194 159.86C719.338 149.379 722.089 139.149 722.46 128.087C722.872 115.769 722.119 103.381 723.203 91.2237C724.327 78.5546 719.288 62.7232 706.94 62.4923Z" fill="#919191"/>
<path d="M741.183 109.916V109.183C740.209 108.932 740.219 108.34 739.135 108.541C734.517 115.869 740.932 122.073 741.915 129.111C742.809 135.495 738.04 146.558 743.211 151.186C744.656 146.628 750.117 106.041 741.183 109.916Z" fill="#919191"/>
<path d="M774.853 111.151C765.145 114.925 771.159 145.655 773.197 153.374C777.122 168.282 776.53 183.782 780.013 198.74C780.033 180.48 778.437 162.962 782.804 145.665C784.912 137.302 785.213 113.982 774.843 110.408V111.141L774.853 111.151Z" fill="#919191"/>
<path d="M965.572 260.299C945.484 234.76 943.798 206.219 906.544 197.124C895.129 194.343 885.301 194.544 874.61 190.006C863.115 185.118 862.232 177.92 854.843 169.658C849.502 163.684 817.217 141.689 802.701 141.177C801.506 141.529 795.845 141.92 795.353 143.667C794.168 147.903 801.607 149.279 805.07 151.045C810.742 153.937 815.983 156.416 821.514 160.372C834.595 169.748 832.416 181.042 832.416 196.02C832.416 203.82 830.669 211.701 840.588 213.779C848.719 215.485 856.219 208.418 864.31 207.826C879.509 206.711 950.253 214.281 940.937 235.172C940.254 236.707 940.816 235.714 941.057 237.26C934.211 237.721 927.083 237.671 921.501 242.209C931.811 262.899 944.722 283.519 967.771 291.721C963.404 291.62 955.543 289.944 953.656 294.893C967.5 303.145 981.494 307.221 997.084 307.492C997.225 307.291 997.195 307.09 996.994 306.9C999.594 306.789 1003.17 306.388 1007.19 305.966C998.018 296.499 978.934 277.265 965.582 260.299H965.572Z" fill="#919191"/>
<path d="M265.67 60.9664C265.67 54.8728 268.521 35.3572 259.024 36.612L253.854 39.5635C245.843 37.4754 249.989 57.6937 250.742 61.6993C252.97 73.6255 250.872 86.3348 250.902 98.6023C250.933 112.898 249.427 127.002 249.427 141.368C249.427 150.835 247.58 163.253 252.358 171.585C258.04 166.345 255.701 149.891 255.37 142.342C254.868 130.978 254.336 119.353 253.854 107.989C253.452 98.532 256.745 90.0592 257.558 80.8836C258.241 73.2741 256.484 65.8052 256.936 58.1053C264.696 62.0908 260.379 81.1848 262.819 88.9148C268.26 87.3788 265.66 66.6083 265.66 60.9664H265.67Z" fill="#D8D3D3"/>
<path d="M314.368 58.0149C315.453 66.9395 307.592 74.7297 307.723 84.3972C307.883 96.2933 311.026 107.647 312.15 119.413C313.706 135.686 310.674 153.124 310.674 169.648C310.674 179.425 309.349 192.205 317.169 198.881C319.006 183.672 316.587 168.975 315.844 153.957C315.202 141.107 315.925 127.866 316.547 114.996C317.079 103.993 313.696 97.0663 312.2 86.7463C311.527 82.1083 310.724 76.868 312.331 72.1899C314.117 66.9696 317.581 65.6646 315.121 59.4806L314.389 58.0049L314.368 58.0149Z" fill="#D8D3D3"/>
<path d="M360.126 31.4521C357.144 45.4464 363.218 58.1657 363.077 72.0194C362.927 86.7565 360.618 101.323 359.965 116.11C359.353 130.014 357.967 143.336 357.174 156.898C356.974 160.342 354.695 194.123 363.298 188.109C365.858 186.322 363.82 168.925 363.82 165.933V141.398C363.82 128.789 366.039 117.285 366.039 104.505C366.039 91.7258 366.782 80.0304 366.782 67.6123C366.782 57.483 367.615 42.0231 362.354 33.6707L360.136 31.4521H360.126Z" fill="#D8D3D3"/>
<path d="M521.18 156.165C519.905 149.56 515.709 144.51 513.621 138.497C511.723 133.016 511.703 125.798 511.402 120.005C510.77 107.567 509.475 95.972 510.629 83.845C510.83 81.767 514.253 73.6857 511.262 72.1497C508.129 70.5435 505.65 77.4603 505.509 79.4179L503.291 82.3693C490.682 92.7395 499.747 100.72 501.775 113.199C504.294 128.659 503.341 145.936 504.033 161.496C504.596 174.165 503.752 186.734 502.558 198.971C501.644 208.398 498.894 220.987 500.45 230.594C510.649 233.636 509.364 198.73 510.689 192.155C513.199 179.646 523.8 169.668 521.18 156.175V156.165Z" fill="#D8D3D3"/>
<path d="M595.528 167.971C595.528 151.949 593.31 136.811 593.31 120.748C593.31 96.2132 587.838 73.194 589.043 48.428C589.364 41.8424 591.031 33.6407 591.091 28.5007L589.615 21.855C577.548 29.1031 582.237 43.0371 582.969 55.0637C583.742 67.6826 585.329 78.615 582.989 90.5111C580.771 101.795 587.005 115.408 587.557 127.555C588.37 145.243 586.935 162.982 586.814 180.54C586.784 185.499 589.244 199.644 594.765 190.117C597.656 185.138 595.508 173.693 595.508 167.971H595.528Z" fill="#D8D3D3"/>
<path d="M636.898 123.709C635.182 106.663 631.859 89.3362 629.52 72.1998C628.576 65.293 629.399 59.5508 630.795 52.8548C631.789 48.0864 635.252 40.5873 632.612 35.6983C631.226 33.1284 628.446 31.8233 625.785 30.709L620.615 27.7576C612.333 32.0643 619.802 58.4565 619.872 66.7085C620.043 84.6581 621.8 103.17 624.259 120.788C626.087 133.889 630.975 145.895 630.945 159.117C630.925 166.315 630.945 173.512 630.945 180.7C630.945 185.409 628.516 199.102 631.116 203.228C631.467 203.78 631.558 204.101 631.819 204.744C632.762 204.814 633.576 204.834 634.529 204.764C637.691 179.335 639.509 149.68 636.888 123.719L636.898 123.709Z" fill="#D8D3D3"/>
<path d="M702.804 58.3063L701.328 57.5735C693.568 61.0369 696.921 79.9502 696.901 87.2786C696.881 94.5167 698.979 100.249 699.893 107.166C700.987 115.508 699.381 125.125 698.547 133.377C696.961 149.068 694.692 164.317 694.692 180.259C694.692 190.147 693.548 204.021 701.308 211.159C704.611 208.047 703.045 196.01 702.804 191.111C702.432 183.562 702.824 176.193 702.804 168.473C702.774 153.023 705.665 140.033 707.251 125.467C708.647 112.617 709.45 100.249 709.45 87.0979C709.45 77.1795 714.319 60.7257 702.804 58.3164V58.3063Z" fill="#D8D3D3"/>
<path d="M770.316 109.555C773.468 113.089 776.7 110.539 776.74 110.418C774.672 110.037 765.939 106.513 763.79 106.724L756.803 107.848C744.385 116.381 758.058 146.127 758.62 159.117C759.172 171.716 758.871 184.576 759.363 197.325C759.664 205.316 759.504 218.537 763.81 224.902C769.603 215.214 765.979 197.807 766.009 186.583C766.039 174.918 766.41 163.032 765.256 151.578C764.443 143.537 757.506 110.77 770.326 109.545L770.316 109.555Z" fill="#D8D3D3"/>
<path d="M85.0295 295.475C78.8656 287.906 76.9281 291.54 68.6159 292.705C60.5747 293.839 59.9624 287.625 52.9653 284.774C44.1913 281.19 41.0591 286.019 36.8729 292.052C34.825 283.75 31.5121 289.101 26.6031 290.546C23.2601 291.53 23.491 288.739 19.9071 291.189C19.2646 291.63 18.2306 295.907 17.5279 297.001C6.49515 288.468 0.351342 300.053 0.742859 311.136L92.2475 313.355C91.3239 307.392 89.0752 300.445 85.0295 295.475Z" fill="#3D7D40"/>
<path d="M425.067 313.355C425.067 301.739 424.837 291.841 437.044 289.522C441.792 288.619 438.911 292.494 442.766 288.227C444.141 286.711 443.499 283.147 445.165 281.792C449.05 278.63 455.927 281.632 458.999 284.663C463.978 279.272 463.577 267.778 470.052 261.714C476.145 256.012 481.115 259.154 487.801 261.514C504.234 267.306 502.287 252.418 508.28 242.329C512.205 235.714 516.351 236.015 522.485 236.607C526.601 237.009 524.914 239.94 528.94 236.607C531.068 234.85 530.606 230.072 532.243 227.923C542.191 214.833 548.155 237.099 553.475 242.56C554.308 243.413 554.65 245.04 555.081 246.134C559.79 243.132 563.474 237.932 569.869 240.843C574.617 243.012 577.569 249.768 579.446 254.215C585.61 251.575 589.374 251.846 594.062 257.448C599.162 263.531 597.124 267.346 604.965 267.427C611.47 267.497 616.279 264.756 622.302 270.358C627.121 274.845 626.709 280.096 627.261 286.059C628.657 300.956 640.693 296.308 651.023 302.091C654.677 304.139 655.27 305.996 659.727 305.865C662.729 305.785 664.817 301.83 669.334 303.004C673.972 304.209 676.632 308.978 678.941 312.692C678.931 313.244 678.911 313.214 678.901 312.622L425.047 313.355H425.067Z" fill="#3D7D40"/>
<path d="M911.503 213.598C910.087 209.703 909.284 199.483 904.747 197.435C899.456 195.046 894.025 203.529 891.465 207.173C885.894 201.902 870.434 208.528 869.179 215.806C862.372 214.531 859.31 221.8 857.303 227C853.819 236.025 854.14 234.519 845.136 233.465C838.229 232.652 833.521 234.649 829.646 241.185C826.704 246.154 827.668 253.784 822.809 257.327C813.824 252.629 808.955 255.099 806.446 265.258C802.822 265.007 797.24 267.778 794.951 270.719C793.505 272.586 794.76 274.765 793.505 276.622C792.431 278.218 789.721 278.58 789.038 280.316C785.284 289.924 800.854 286.039 808.042 286.039L819.115 277.917C822.558 276.441 828.089 277.445 832.396 277.184C840.889 276.672 837.476 273.721 842.756 269.956C845.286 268.149 851.831 268.551 854.723 267.778C856.63 267.266 858.025 265.931 860.445 265.379C862.804 264.846 865.484 265.921 867.824 265.208C876.879 262.477 878.043 249.015 881.667 241.024C884.9 233.886 894.497 223.115 901.042 234.137C902.849 229.349 916.924 228.706 920.97 230.764C927.204 224.56 919.945 211.57 911.503 213.588V213.598Z" fill="#3D7D40"/>
<path d="M425.098 210.737C423.461 207.384 415.39 205.396 411.736 206.992C407.279 197.204 406.054 189.535 394.599 185.138C387.773 182.507 387.743 185.278 382.071 186.985C377.905 188.24 374.431 185.338 370.245 186.965C365.386 188.852 365.316 196.492 362.144 199.523C357.506 203.971 354.464 202.395 348.29 201.16C337.568 199.021 329.748 204.061 330.481 216.569C329.065 216.248 326.947 217.122 325.552 216.81C319.759 226.307 342.879 223.627 344.606 221.107L348.3 221.84C362.505 220.314 379.17 235.985 389.65 243.333C396.908 232.15 403.132 226.297 416.193 221.268C420.56 219.591 428.842 218.427 425.088 210.737H425.098Z" fill="#3D7D40"/>
<path d="M400.542 303.928C398.153 299.892 393.686 296.63 390.192 293.638C386.418 290.395 381.649 287.304 378.567 283.268C374.271 277.646 376.499 277.506 376.349 270.559C376.158 261.283 370.948 252.539 363.78 246.927C360.738 244.548 353.119 242.359 351.944 238.826C350.398 234.178 355.779 229.56 358.55 226.819C352.888 219.591 340.49 223.024 332.077 222.593C322.309 222.091 315.884 225.002 307.763 231.598C299.41 238.374 291.108 242.751 284.643 251.394C278.881 259.104 263.702 304.109 257.639 311.698L403.654 314.107C402.61 312.561 402.279 306.879 400.542 303.938V303.928Z" fill="#D8D3D3"/>
<path d="M316.617 311.969C316.025 308.536 315.523 304.781 313.505 301.679C309.6 301.529 304.44 300.264 301.047 297.865C295.686 294.08 297.322 293.217 296.66 286.792C295.505 275.729 288.508 271.121 278.951 267.607C265.348 262.608 272.235 248.453 264.194 237.33C255.048 224.681 244.056 245.381 242.058 224.801C241.375 217.814 240.161 212.634 235.944 207.113C230.855 200.437 225.464 203.981 221.187 198.238C216.891 192.466 218.698 185.017 209.582 184.214C201.722 183.521 202.314 189.685 197.756 193.912C190.629 181.734 175.199 190.077 171.766 201.18C170.36 205.717 171.987 212.363 168.463 216.138C164.568 220.304 160.281 218.356 154.981 218.888C148.365 219.551 147.261 220.956 142.251 218.336C138.075 216.148 136.409 213.046 130.626 212.986C117.626 212.845 116.401 222.914 112.195 232.1C107.968 228.205 104.947 218.497 97.5983 226.418C92.9904 231.387 97.2268 242.359 92.3881 245.361C89.527 239.98 85.7523 235.704 81.9074 243.946C79.4579 249.196 82.3692 256.293 82.6503 261.694C83.2928 274.394 146.849 262.437 157.922 312.612L315.844 311.136C316.045 311.387 316.697 312.963 316.617 311.959V311.969Z" fill="#3D7D40"/>
</g>
<defs>
<clipPath id="clip0_24_6759">
<rect width="1014" height="309.294" fill="white"/>
</clipPath>
</defs>
</svg>
