<svg width="241" height="86" viewBox="0 0 241 86" fill="none" xmlns="http://www.w3.org/2000/svg">
<path d="M0 92.253C35.3135 18.6555 108.658 -19.189 174.183 9.74382C202.996 22.4652 234.859 53.6626 240.601 93.4785L0.0133338 92.253H0Z" fill="#9DCA55"/>
<path d="M114.599 1.44498L120.3 91.6402" stroke="#CEDE86" stroke-width="1.33208" stroke-linecap="round" stroke-linejoin="round"/>
<path d="M96.5227 5.33463C106.367 32.7489 115.998 67.0233 121.872 95.5565" stroke="#CEDE86" stroke-width="1.33208" stroke-linecap="round" stroke-linejoin="round"/>
<path d="M51.6582 30.6975C68.0295 54.9414 84.3875 79.1853 100.759 103.429" stroke="#CEDE86" stroke-width="1.33208" stroke-linecap="round" stroke-linejoin="round"/>
<path d="M78.5796 15.2712C87.16 41.6577 95.8355 68.2558 109.621 92.3252" stroke="#CEDE86" stroke-width="1.058" stroke-linecap="round" stroke-linejoin="round"/>
<path d="M34.9404 43.219L83.6813 97.861" stroke="#CEDE86" stroke-width="1.33208" stroke-linecap="round" stroke-linejoin="round"/>
<path d="M145.41 1.51154C142.599 34.4539 138.75 67.3031 133.874 99.9924" stroke="#CEDE86" stroke-width="1.33208" stroke-linecap="round" stroke-linejoin="round"/>
<path d="M159.104 7.81229L134.685 103.752" stroke="#CEDE86" stroke-width="1.058" stroke-linecap="round" stroke-linejoin="round"/>
<path d="M153.549 94.8106C180.47 72.5648 187.85 66.0243 213.146 41.9402" stroke="#CEDE86" stroke-width="1.33208" stroke-linecap="round" stroke-linejoin="round"/>
<path d="M168.961 95.6365C193.538 78.7989 200.025 74.5363 225.242 58.6579" stroke="#CEDE86" stroke-width="1.33208" stroke-linecap="round" stroke-linejoin="round"/>
</svg>
